<?xml version="1.0" encoding="UTF-8" standalone="no"?>
<svg
   width="1511.811"
   height="792.9071"
   viewBox="0 0 400 209.79001"
   version="1.1"
   id="svg5"
   inkscape:version="1.1-dev (9017afb, 2021-01-01)"
   sodipodi:docname="icon-symbol-uh-logo-black.svg"
   xmlns:inkscape="http://www.inkscape.org/namespaces/inkscape"
   xmlns:sodipodi="http://sodipodi.sourceforge.net/DTD/sodipodi-0.dtd"
   xmlns="http://www.w3.org/2000/svg"
   xmlns:svg="http://www.w3.org/2000/svg">
  <sodipodi:namedview
     id="namedview7"
     pagecolor="#ffffff"
     bordercolor="#666666"
     borderopacity="1.0"
     objecttolerance="10.0"
     gridtolerance="10.0"
     guidetolerance="10.0"
     inkscape:pageshadow="2"
     inkscape:pageopacity="0.0"
     inkscape:pagecheckerboard="0"
     inkscape:document-units="mm"
     showgrid="false"
     inkscape:zoom="0.77771465"
     inkscape:cx="643.55223"
     inkscape:cy="426.89179"
     inkscape:window-width="2386"
     inkscape:window-height="1296"
     inkscape:window-x="0"
     inkscape:window-y="25"
     inkscape:window-maximized="0"
     inkscape:current-layer="layer1"
     units="px"
     width="11485.984px"
     fit-margin-top="0"
     fit-margin-left="0"
     fit-margin-right="0"
     fit-margin-bottom="0" />
  <defs
     id="defs2" />
  <g
     inkscape:label="Logo Universität Heidelberg Internet"
     inkscape:groupmode="layer"
     id="layer1"
     transform="translate(-10,-10.11)">
    <path
       fill="#171717"
       d="M 234.49,219.79 V 10.11 h 0.63 v 209.68 h -0.63 m 14.9,-37.19 c 1,3.35 3,4.89 6.51,4.89 3,0 5.57,-1.72 5.57,-4.83 0,-2.63 -1,-3.9 -6.18,-5.82 -3.37,-1.27 -3.72,-2.15 -3.72,-3.39 0,-2.15 1.47,-3.37 3.6,-3.37 a 4.46,4.46 0 0 1 4.41,3.44 l 1.44,-0.43 a 5.76,5.76 0 0 0 -5.85,-4.37 c -3.39,0 -5.27,2 -5.27,4.73 0,6.05 9.9,4.12 9.9,9 a 3.39,3.39 0 0 1 -3.65,3.64 c -2.88,0 -4.51,-1.21 -5.21,-4 l -1.54,0.48 z m 26.71,4.63 v -1.37 h -9.24 v -7.44 h 6.31 v -1.36 h -6.31 v -6.74 h 8.76 V 169 h -10.43 v 18.28 z m 3.32,0 h 1.67 V 169 h -1.67 v 18.28 z m 5.14,-16.91 H 290 v 16.91 h 1.67 v -16.91 h 5.42 V 169 h -12.5 v 1.36 z M 314,187.23 v -1.37 h -3 V 168.7 h -1.06 l -4.1,1.34 v 1 l 3.49,-0.51 v 15.34 h -3.14 v 1.37 z m 1.77,-3.39 c 1,2.48 3.19,3.64 6.15,3.64 3.62,0 6.25,-1.57 6.25,-5.42 0,-2.51 -1.47,-3.85 -3.49,-4.61 2.12,-1 2.93,-2.2 2.93,-4.3 0,-3.42 -3.16,-4.45 -5.52,-4.45 a 6.88,6.88 0 0 0 -5.52,2.88 l 1.19,0.86 c 1.27,-1.6 2.5,-2.38 4.2,-2.38 2.45,0 4,1 4,3.24 0,2.43 -1.72,3.55 -5,3.55 h -1.37 v 1.36 h 1.67 c 3.45,0 5.27,1.27 5.27,3.9 0,2.63 -1.44,4 -4.51,4 a 4.66,4.66 0 0 1 -4.88,-3 l -1.34,0.76 z m 21.87,-15.14 c -3.47,0 -5.72,1.57 -5.72,4.63 0,2 1.21,3.47 3.49,4.28 -3.14,1.42 -4.2,3.09 -4.2,4.91 0,3.65 2.63,5 6.43,5 3.8,0 6.43,-1.31 6.43,-5 0,-1.82 -1.06,-3.49 -4.2,-4.91 2.28,-0.81 3.5,-2.28 3.5,-4.28 0,-3.06 -2.25,-4.63 -5.72,-4.63 z m -4.76,13.82 c 0,-2 1.77,-3 4.76,-4.21 3,1.22 4.76,2.23 4.76,4.21 0,2.49 -2.07,3.6 -4.76,3.6 -2.69,0 -4.76,-1.11 -4.76,-3.6 z m 0.71,-9.27 c 0,-2.15 1.67,-3.19 4.05,-3.19 2.38,0 4.05,1 4.05,3.19 0,2 -1.77,3.09 -4.05,3.7 -2.28,-0.61 -4.05,-1.72 -4.05,-3.7 z m 24.73,-3 A 7.08,7.08 0 0 0 354,168.7 c -5.17,0 -7.29,5.44 -7.29,10 0,4.21 1.19,8.73 6.28,8.73 3.32,0 6.18,-2.17 6.18,-5.67 0,-3.5 -2.15,-6 -5.88,-6 a 6.82,6.82 0 0 0 -4.91,2.43 c 0,-3.47 1.42,-8.15 5.59,-8.15 a 4.43,4.43 0 0 1 3.6,1.39 l 0.76,-1.24 z m -0.84,11.32 c 0,2.83 -1.62,4.58 -4.46,4.58 -2.84,0 -4.61,-2.1 -4.61,-5.39 0,-0.66 1.9,-3.57 4.58,-3.57 a 4.15,4.15 0 0 1 4.48,4.38 z M 250.53,143.75 h 8.76 l -9.55,15.55 v 1.36 h 11.75 v -1.36 h -9.67 l 9.54,-15.5 v -1.42 h -10.83 v 1.36 z m 14.66,-1.36 v 12.3 c 0,4.15 2.17,6.23 6.61,6.23 4.44,0 6.61,-2.07 6.61,-6.23 v -12.3 h -1.67 v 12.46 c 0,3.49 -1.7,4.71 -4.94,4.71 -3.24,0 -4.94,-1.21 -4.94,-4.71 v -12.46 z m 18.28,18.28 h 1.67 v -6.1 l 3.45,-4 5.8,10.07 h 1.87 l -6.61,-11.29 5.9,-7 h -2.05 l -8.36,9.92 v -9.92 h -1.67 v 18.28 z m 15.47,-18.28 v 12.3 c 0,4.15 2.17,6.23 6.61,6.23 4.44,0 6.61,-2.07 6.61,-6.23 v -12.3 h -1.67 v 12.46 c 0,3.49 -1.7,4.71 -4.94,4.71 -3.24,0 -4.94,-1.21 -4.94,-4.71 v -12.46 z m 18.28,18.28 h 1.67 v -16.92 l 9.78,16.91 h 1.72 v -18.27 h -1.67 v 15.24 h -0.05 L 320,142.39 h -2.81 v 18.28 z m 19.95,0 v -8.81 h 6.61 v -1.36 h -6.61 v -6.74 h 9.07 v -1.36 h -10.73 v 18.28 z m 10.67,-16.91 h 5.42 v 16.91 h 1.67 v -16.92 h 5.42 v -1.36 h -12.5 v 1.36 z m -94.44,-9.6 V 126 h 7.35 v 8.19 h 3.64 v -19.11 h -3.64 v 7.61 h -7.35 v -7.61 h -3.64 v 19.07 z m 28.35,0 v -3.06 h -9.27 v -5.34 H 279 v -3.06 h -6.53 v -4.55 h 9 v -3.06 h -12.63 v 19.07 z m 7.21,0 v -19.08 h -3.64 v 19.07 z m 4.66,0 h 6.31 c 5,0 8.53,-2.8 8.56,-9.54 0.03,-6.74 -3.51,-9.54 -8.56,-9.54 h -6.31 v 19.07 z m 3.64,-16 h 2.43 c 4.18,0 5.16,3.06 5.16,6.47 0,3.41 -1,6.47 -5.16,6.47 h -2.43 v -12.95 z m 27.06,16 v -3.06 h -9.28 v -5.34 h 6.53 v -3.06 h -6.53 v -4.55 h 9 v -3.06 h -12.63 v 19.07 z m 15,0 V 131.1 H 331 v -16 h -3.64 v 19.07 z m 2.75,0 h 7 c 4.86,0 6.95,-2.06 6.95,-5 0,-2.94 -0.85,-4 -3.33,-5 a 4.25,4.25 0 0 0 2.9,-4.33 c -0.21,-3.41 -2.67,-4.68 -6.47,-4.68 h -7.08 v 19.07 z m 3.64,-8.51 h 3.65 c 2.12,0 3,1 3,2.78 0,1.78 -0.92,2.77 -3,2.77 h -3.65 z m 0,-7.61 h 3.65 c 1.75,0 2.62,1 2.62,2.32 0,1.32 -0.87,2.33 -2.62,2.33 h -3.65 V 118 Z m 27.06,16.12 v -3.06 h -9.27 v -5.34 h 6.5 v -3.06 h -6.53 v -4.55 h 9 v -3.06 h -12.6 v 19.07 z m 6.71,0 v -7.77 h 3.15 l 3.59,7.77 h 4 l -4.2,-8.51 a 4.72,4.72 0 0 0 3.49,-4.91 c 0,-3.15 -1.77,-5.65 -6.1,-5.65 h -7.61 v 19.07 z m 0,-16.12 h 3.33 c 2,0 3.09,0.9 3.09,2.7 0,1.8 -0.87,2.7 -3.73,2.7 h -2.7 V 118 Z m 27.59,1.64 a 6.74,6.74 0 0 0 -6.92,-4.86 c -6.11,0 -8,5.23 -8,10.09 0,5.39 2.4,9.51 7.59,9.51 a 6,6 0 0 0 5,-2.22 v 2 h 2.64 v -9.64 h -7.13 v 3.06 h 3.62 a 3.77,3.77 0 0 1 -4,3.78 c -2.54,0 -4,-2.54 -4,-6.55 0,-4.23 1.32,-6.92 4,-6.92 1.9,0 3,0.79 3.83,2.7 l 3.38,-0.9 z M 260.75,99.88 c 0,3.09 -1.22,4.18 -3.67,4.18 -2.45,0 -3.67,-1.08 -3.67,-4.18 v -12.1 h -3.64 v 11.95 c 0,5.58 3.43,7.4 7.32,7.4 3.89,0 7.32,-1.82 7.32,-7.4 V 87.78 h -3.64 v 12.1 z m 11.44,7 v -13.6 h 0.05 l 7.8,13.58 h 3.51 V 87.78 h -3.43 v 13 h -0.05 l -7.51,-13 h -3.8 v 19.08 z m 19.71,0 v -19.1 h -3.65 v 19.08 z m 7.9,0 h 4.07 l 5,-19.08 h -3.59 l -3.54,14.06 h -0.05 L 298.31,87.8 h -3.59 l 5,19.08 z m 24.52,0 v -3.08 h -9.28 v -5.35 h 6.53 v -3.06 h -6.53 v -4.55 h 9 v -3.06 h -12.63 v 19.08 z m 6.71,0 v -7.79 h 3.15 l 3.59,7.77 h 4 l -4.2,-8.51 a 4.72,4.72 0 0 0 3.49,-4.92 c 0,-3.15 -1.77,-5.65 -6.1,-5.65 h -7.61 v 19.08 z m 0,-16.12 h 3.33 c 2,0 3.09,0.9 3.09,2.7 0,1.8 -0.87,2.7 -3.73,2.7 H 331 v -5.42 z m 26.32,1.08 a 6.94,6.94 0 0 0 -6.74,-4.3 c -3.3,0 -6.15,1.93 -6.15,5.34 0,5.87 9.83,5.13 9.83,8.88 0,1.85 -1.4,2.54 -3.23,2.54 -2.14,0 -3.28,-1.19 -4.15,-3 l -3,1.32 a 7.56,7.56 0 0 0 7.13,4.52 c 4.23,0 6.68,-2 6.68,-5.86 0,-6.19 -9.83,-5.5 -9.83,-8.78 0,-1.48 1.14,-2.11 2.72,-2.11 a 3.51,3.51 0 0 1 3.39,2.46 l 3.33,-1 z m 8,15 V 87.78 h -3.64 v 19.08 z m 3.12,-19.08 v 3.06 h 5 v 16 h 3.64 v -16 h 5 v -3.04 z m 20.85,3.67 h 0.05 l 2.14,8.27 H 387 l 2.25,-8.27 z m -7.8,15.41 h 3.62 l 1.13,-4.12 h 6 l 1.05,4.12 h 3.62 L 391.52,87.76 H 387 l -5.5,19.08 z m 3.65,-23.46 v 3.06 h 3.17 v -3.05 z m 5,0 v 3.06 h 3.17 v -3.05 z m 6.21,4.39 v 3.06 h 5 v 16 H 405 v -16 h 5 v -3.05 z"
       id="path826"
       style="display:inline"
       inkscape:label="Schriftzug" />
    <circle
       cx="114.87"
       cy="115.03"
       r="104.87"
       fill="#e80036"
       id="circle828"
       inkscape:label="Hintergrund" />
    <path
       d="m 103.33,59.79 h 1.15 v -1.15 h 1.16 v -1.15 h -1.16 v -1.16 h -1.15 v 1.15 h -1.15 v 1.15 h 1.15 z m 20.37,67 h 1.15 v -0.92 h 0.92 v -1.15 h -0.92 v -0.92 h -1.15 v 0.92 h -0.92 v 1.15 h 0.92 z M 99,59.79 h 1.15 v -1.15 h 1.15 v -1.15 h -1.2 V 56.33 H 99 v 1.15 h -1.2 v 1.15 H 99 Z m 25.77,101.35 c 1.28,8.36 1.56,16.22 2.49,20.28 l 1.12,-0.26 c -0.89,-3.84 -1.19,-11.78 -2.48,-20.2 z m -11.57,-45.8 a 2.5,2.5 0 0 0 -2.86,0.89 l 0.39,0.39 a 2.08,2.08 0 0 1 1.61,-0.89 1.87,1.87 0 0 1 1.77,1.67 v 1.35 h 0.55 v -1.43 a 2.45,2.45 0 0 0 -1.52,-1.98 z m 3.48,0 a 2.46,2.46 0 0 0 -1.47,2 v 1.43 h 0.56 v -1.37 a 1.87,1.87 0 0 1 1.77,-1.67 2.08,2.08 0 0 1 1.61,0.89 l 0.39,-0.39 a 2.5,2.5 0 0 0 -2.91,-0.89 z m 0.93,1.24 c -1,0 -1.39,0.39 -1.39,0.76 h 1.15 a 0.4,0.4 0 0 0 -0.26,0.36 0.46,0.46 0 0 0 0.92,0 0.39,0.39 0 0 0 -0.24,-0.35 h 1.12 c -0.05,-0.35 -0.64,-0.78 -1.35,-0.78 z m 8.95,40.69 z M 140.18,80.53 139,78.75 137.89,80.53 139,82.31 Z M 139,121.16 a 2.79,2.79 0 1 0 -2.8,-2.8 2.8,2.8 0 0 0 2.8,2.8 z m 0,-5 a 2.21,2.21 0 1 1 -2.22,2.21 2.21,2.21 0 0 1 2.22,-2.22 z m -0.55,3.69 h 1.15 v -0.92 h 0.92 v -1.15 h -0.92 v -0.92 h -1.15 v 0.92 h -0.92 v 1.15 h 0.92 z m -20.1,-60 h 1.15 v -1.21 h 1.16 v -1.15 h -1.16 v -1.16 h -1.15 v 1.15 h -1.15 v 1.15 h 1.15 z m -4,0 h 1.15 v -1.21 h 1.15 v -1.15 h -1.15 v -1.16 h -1.2 v 1.15 h -1.16 v 1.15 h 1.16 z m -4.1,0 h 1.15 v -1.21 h 1.16 v -1.15 h -1.16 v -1.16 h -1.2 v 1.15 H 109 v 1.15 h 1.15 z m 2.2,56.72 c -1,0 -1.39,0.39 -1.39,0.76 h 1.17 a 0.4,0.4 0 0 0 -0.26,0.36 0.46,0.46 0 0 0 0.92,0 0.39,0.39 0 0 0 -0.25,-0.35 h 1.11 c -0.04,-0.43 -0.63,-0.84 -1.34,-0.84 z m 10.55,41.2 a 3.09,3.09 0 0 0 -0.17,-1 0.9,0.9 0 0 0 -0.82,-0.6 1.73,1.73 0 0 0 -1.09,0.6 c -0.3,0.28 -0.6,0.61 -0.9,0.9 a 5.59,5.59 0 0 1 -3.83,1.54 5.32,5.32 0 0 1 -3.3,-1.14 3.46,3.46 0 0 0 -2,-1.07 1.14,1.14 0 0 0 -1,0.73 3.76,3.76 0 0 0 -0.21,1.43 v 0.13 c 0,0.36 0.21,1.55 0.53,3.37 0.47,2.69 1.23,6.59 2,10.07 0.4,1.74 0.83,3.38 1.23,4.72 a 11.77,11.77 0 0 0 1.23,3 2.65,2.65 0 0 0 2.13,1.24 2.69,2.69 0 0 0 2.46,-2.25 c 0.26,-1 1.73,-7.51 2.74,-13.3 a 0.49,0.49 0 0 0 0,-0.07 c 0.3,-1.73 0.56,-3.39 0.74,-4.84 a 28.71,28.71 0 0 0 0.24,-3.1 C 123,158 123,157.86 123,157.77 Z m -4.84,21.32 c -0.28,1 -0.85,1.39 -1.35,1.39 a 1.51,1.51 0 0 1 -1.19,-0.76 3.27,3.27 0 0 1 -0.32,-0.58 22.82,22.82 0 0 0 4,-6.06 l 0.33,-0.67 c -0.68,3.36 -1.3,6.09 -1.46,6.69 z m 0.11,-6.52 a 25.29,25.29 0 0 1 -3.42,5.41 c -0.23,-0.66 -0.47,-1.45 -0.71,-2.32 v -0.06 a 28.77,28.77 0 0 0 6.54,-8.86 37.85,37.85 0 0 1 -2.4,5.84 z m 3.37,-11.66 a 29.49,29.49 0 0 1 -7.85,13.43 c -0.7,-2.77 -1.39,-6.08 -1.93,-8.91 -0.54,-2.83 -1,-5.33 -1,-6 a 15.22,15.22 0 0 0 4,6.54 l 0.75,-0.86 a 10.86,10.86 0 0 1 -2,-2.39 6.88,6.88 0 0 0 1.85,0.24 7.86,7.86 0 0 0 5.14,-1.73 l -0.81,-0.81 a 6.88,6.88 0 0 1 -4.33,1.4 4.11,4.11 0 0 1 -2.83,-0.89 12.29,12.29 0 0 1 -0.84,-2.32 l 0.39,0.33 a 6.46,6.46 0 0 0 4,1.38 6.73,6.73 0 0 0 4.62,-1.86 c 0.34,-0.32 0.65,-0.66 0.9,-0.9 l 0.12,-0.11 v 0.61 a 25.09,25.09 0 0 1 -0.17,2.86 z m -15.49,-3.68 c -1,5.87 -2,15 -6.19,22.68 l 1,0.55 c 4.36,-7.92 5.37,-17.23 6.32,-23.05 z m 1.21,12.11 c -0.18,4.81 -0.79,9.65 -2.68,11.79 l 0.87,0.75 c 2.26,-2.68 2.74,-7.63 3,-12.5 0.26,-4.87 0.08,-9.68 0.73,-11.66 l -1.09,-0.36 c -0.8,2.42 -0.62,7.15 -0.83,11.98 z M 112.47,41 l -1.11,-1.78 -1.12,1.78 1.11,1.78 z m 29.58,-18.71 -2.52,-0.75 -0.83,2.79 -2.79,-0.83 -0.75,2.5 2.79,0.83 -0.83,2.8 2.52,0.75 0.83,-2.79 2.79,0.83 0.74,-2.52 -2.79,-0.83 z M 159,98.74 157.89,97 l -1.11,1.78 1.11,1.78 z m 50.16,1.89 0.09,0.73 -6.48,0.84 a 0.63,0.63 0 0 1 -0.61,-0.25 h -0.08 a 14.16,14.16 0 0 1 -1.11,2.66 l 2,1.46 0.22,-0.3 c -0.7,-0.45 -0.5,-0.8 0,-1.81 l 6.37,-0.83 0.19,1.45 0.92,0.29 -0.24,-1.85 2.73,-0.36 v -0.19 a 6.83,6.83 0 0 1 -3.54,-1.92 z m 1.29,-17.91 -2.32,-0.87 a 7.1,7.1 0 0 1 -0.66,0.36 18.6,18.6 0 0 0 2.11,1.4 4.7,4.7 0 0 0 0.87,-0.9 z M 148,146.39 v 1 l 2.61,-1.71 1.09,1.37 -3,2.32 0.54,0.81 3.13,-2.39 0.73,0.85 -1.19,1 0.64,0.64 2,-1.58 -0.93,-1.09 1.73,-1.58 -0.76,-2.34 0.56,-0.38 v -0.61 h -1.6 l 0.89,3 -0.58,0.46 -1.07,-1.33 V 142 h -2.44 v 0.84 l 0.54,0.61 -0.54,0.4 -1.65,-1.85 h -0.76 v 0.48 l 2.06,2.42 z m -0.37,-47.7 1.11,1.78 1.11,-1.78 -1.11,-1.78 z m 62.52,9.21 -6.67,0.33 c -0.54,0 -0.61,-0.28 -0.61,-0.28 h -0.09 l -1.17,1.75 1.39,1.3 h 0.08 a 1.64,1.64 0 0 1 0.34,-0.92 l 6.8,-0.33 a 0.59,0.59 0 0 1 0.52,0.24 h 0.09 l 1.26,-1.7 a 7.38,7.38 0 0 1 -1.41,-1.33 h -0.08 c 0,0 0.09,0.91 -0.46,0.94 z M 199.49,89.13 h -0.08 a 14.18,14.18 0 0 1 -0.73,2.79 l 2.16,1.17 0.18,-0.33 c -0.76,-0.34 -0.61,-0.72 -0.31,-1.78 l 6.19,-1.72 0.39,1.41 1,0.15 -0.5,-1.8 2.65,-0.74 -0.05,-0.19 a 6.88,6.88 0 0 1 -3.77,-1.4 l -0.35,0.1 0.2,0.71 -6.3,1.74 a 0.62,0.62 0 0 1 -0.68,-0.11 z m 2.5,11.75 h 0.08 c -0.08,-0.4 0,-1 0.15,-1 l 6.86,-1.37 a 0.6,0.6 0 0 1 0.62,0.2 h 0.08 a 16.49,16.49 0 0 1 0.28,-2.48 c -1.22,-0.48 -1.52,-2.89 -3.19,-2.56 l -5.49,1.1 a 0.59,0.59 0 0 1 -0.55,-0.16 h -0.09 l -0.92,2.21 1.44,1.18 -0.86,1.81 a 9.59,9.59 0 0 1 1.6,1.08 z m -0.26,-4.38 6.76,-1.35 a 6.14,6.14 0 0 0 -0.2,1.65 l -6.29,1.27 -0.64,-0.54 z m 4.81,21.69 a 0.58,0.58 0 0 1 0.5,0.28 h 0.1 l 0.93,-1.89 2.6,1.83 a 9.59,9.59 0 0 1 1.63,-2.18 16.79,16.79 0 0 1 -1.3,-3.13 l -2.83,-0.07 a 0.61,0.61 0 0 1 -0.55,-0.33 h -0.08 l -1.21,2.12 -3.26,-2.25 a 8.33,8.33 0 0 1 -1.28,2.44 15.26,15.26 0 0 1 1.59,3.12 z m 1.59,-3.35 3.07,0.07 0.07,0.14 a 14.29,14.29 0 0 0 -1.69,2.13 l -2,-1.49 z m -5.3,1.25 a 13,13 0 0 0 1.33,-2.25 l 2.61,1.77 -0.41,0.8 -3.39,-0.08 z M 176,100.47 l 1.11,-1.78 -1.11,-1.78 -1.11,1.78 z m -75.62,112.3 a 4.81,4.81 0 0 0 0.35,1.2 l 1.89,-1.61 v -0.76 a 18.94,18.94 0 0 0 -2.23,1.17 z m 65.36,-114.08 1.11,1.78 1.15,-1.78 -1.11,-1.78 z m -66.6,109.68 c 0.07,-0.38 1.15,-6 1.26,-6.56 0.11,-0.56 0.42,-0.53 0.42,-0.53 v -0.09 l -1.43,-1.55 -1.56,1.08 v 0.08 a 1.64,1.64 0 0 1 0.82,0.54 c 0,0 -1.21,6.33 -1.28,6.68 a 0.58,0.58 0 0 1 -0.35,0.45 v 0.09 l 1.36,1.63 a 7.46,7.46 0 0 1 1.62,-1.06 v -0.07 c 0,0 -1,-0.14 -0.86,-0.69 z m 12,1.61 c 0,0 0.5,-6.1 0.54,-6.52 a 0.62,0.62 0 0 1 0.37,-0.54 v -0.08 l -2.3,-1.81 -3.23,1.77 -0.59,7.05 a 0.58,0.58 0 0 1 -0.31,0.49 v 0.09 c 1.77,1.4 3.22,2.66 5,4.27 a 7.23,7.23 0 0 1 1.5,-1.33 v -0.08 c -0.49,0 -3,-2.32 -3,-2.32 z m -3.39,-0.17 0.63,-7.59 h 0.05 l 1.44,1.07 -0.6,7.23 -0.43,0.23 z m -5.9,-8.37 v 0.07 a 1.62,1.62 0 0 1 0.84,0.51 c 0,0 -0.92,6.38 -1,6.73 a 0.6,0.6 0 0 1 -0.34,0.47 v 0.09 l 1.42,1.56 a 7.39,7.39 0 0 1 1.57,-1.12 v -0.08 c 0,0 -0.95,-0.11 -0.87,-0.66 0,-0.38 0.88,-6.07 1,-6.6 0.12,-0.53 0.4,-0.55 0.4,-0.55 v -0.09 l -1.49,-1.49 z m 17.22,1.72 a 0.59,0.59 0 0 1 0.26,-0.52 v -0.09 l -2.28,-1.32 a 29.57,29.57 0 0 1 -3.17,2.17 c 0,0 0.06,6.21 0.06,6.62 a 0.62,0.62 0 0 1 -0.31,0.57 v 0.08 l 1.45,1.15 1.27,-1.27 v -0.06 l -0.59,-0.43 -0.07,-7.45 0.27,-0.17 1.32,0.81 c 0,0 0.06,6.05 0.06,6.6 0,0.55 -0.31,0.6 -0.31,0.6 v 0.09 l 1.71,1.24 1.32,-1.37 v -0.07 a 1.63,1.63 0 0 1 -0.9,-0.38 c 0,0 -0.06,-6.43 -0.06,-6.79 z m 31,-7 -0.33,-0.21 -0.47,0.71 a 4.67,4.67 0 0 1 -3.56,2 l -5,-0.07 a 4.31,4.31 0 0 1 -0.17,2.67 h 2.45 l -0.41,0.62 a 5.15,5.15 0 0 1 -4.23,2.37 h -2.8 a 2.3,2.3 0 0 1 0.21,1.14 c 0,1 -0.43,1.22 -0.43,1.22 h 2.32 a 3.17,3.17 0 0 0 1.48,-0.4 6.46,6.46 0 0 0 -1.37,3.37 v 1.16 a 7.78,7.78 0 0 1 2.88,-0.25 v -2.32 a 8.37,8.37 0 0 1 0.88,-4 l 1.94,-2.9 a 6.65,6.65 0 0 0 3.58,-1 v 4.92 a 3.33,3.33 0 0 1 -2.06,1 h -2.52 a 6.31,6.31 0 0 1 0,2.19 4.9,4.9 0 0 0 2.63,-0.49 7,7 0 0 0 -0.09,2.11 4.47,4.47 0 0 1 2.17,0 v -3 a 4.23,4.23 0 0 1 0.2,-1.52 h 2.76 v -0.46 c -0.55,0 -0.76,-0.45 -0.83,-1.64 v -2.22 c 0,-1.47 -0.06,-3.46 0.8,-4.75 z m -17.6,9.35 v -0.08 l -2.28,-0.85 1.7,-3.58 a 8.37,8.37 0 0 1 -2.62,-0.88 15.62,15.62 0 0 1 -2.82,2.07 l 0.43,3.15 a 0.58,0.58 0 0 1 -0.19,0.54 v 0.1 l 2,0.62 -1.39,2.85 a 9.37,9.37 0 0 1 2.4,1.26 16.65,16.65 0 0 1 2.89,-1.8 c 0,0 -0.33,-2.39 -0.39,-2.81 a 0.62,0.62 0 0 1 0.35,-0.54 z m -3.86,-0.64 -0.46,-3.35 0.2,-0.17 a 13.53,13.53 0 0 0 2.44,0.95 l -1.34,2.86 z m 2.11,4.64 a 14.57,14.57 0 0 0 -2.37,-1.33 l 1.14,-2.25 0.94,0.45 0.43,3 z m -6.16,-0.08 c 0,0 -0.35,-6.11 -0.38,-6.53 a 0.6,0.6 0 0 1 0.28,-0.58 v -0.08 A 14.48,14.48 0 0 1 122,201 l -1.59,1.86 0.27,0.25 c 0.51,-0.68 0.84,-0.45 1.81,0.07 l 0.37,6.42 -1.47,0.08 -0.35,0.9 1.87,-0.1 0.15,2.74 h 0.2 a 6.81,6.81 0 0 1 2.16,-3.39 v -0.36 z m 42.63,-175 0.63,-1 -1,-0.65 -0.63,0.95 -0.95,-0.63 -0.65,1 1,0.63 -0.64,1 1,0.65 0.63,-0.95 0.95,0.63 0.65,-1 z M 199,87.76 a 1.67,1.67 0 0 1 0,-1 l 6.36,-2.41 a 0.59,0.59 0 0 1 0.57,0.07 h 0.09 l 0.67,-2 a 7.34,7.34 0 0 1 -1.74,-0.83 h -0.07 c 0,0 0.37,0.89 -0.16,1.09 L 198.54,85 c -0.51,0.19 -0.67,-0.08 -0.67,-0.08 h -0.09 l -0.57,2 1.73,0.76 z m 1.21,71 a 3.86,3.86 0 0 0 0.33,-2.16 5.76,5.76 0 0 1 -2.83,0 v 2.75 a 5.17,5.17 0 0 1 -0.38,2.34 21.26,21.26 0 0 1 -2.47,0 l 0.1,5.09 a 5.47,5.47 0 0 1 -0.76,3.2 h -3.21 a 5.7,5.7 0 0 0 -3.39,1 9,9 0 0 0 1.13,-4.12 v -3.14 a 3.63,3.63 0 0 1 2,-0.79 h 2.38 a 7.48,7.48 0 0 1 0,-2.56 6.13,6.13 0 0 0 -2,0.21 3.9,3.9 0 0 0 0.33,-2.16 5.83,5.83 0 0 1 -2.84,0 v 2.75 a 4.44,4.44 0 0 1 -0.42,2.41 l -0.05,0.07 a 2.32,2.32 0 0 1 -1.93,0.66 v 4.36 c 0,0.88 0.17,3.18 -0.4,4.38 l -1.47,2.21 0.35,0.2 c 0,0 1.47,-2.94 4.47,-2.94 h 6.66 a 3.46,3.46 0 0 1 0.25,-2.48 h -1.3 a 13.89,13.89 0 0 0 1.38,-1.49 4.07,4.07 0 0 1 2.44,-1.13 H 201 a 7.38,7.38 0 0 1 0,-2.56 c -1.77,0 -2.43,0.14 -3.41,1.28 a 4.07,4.07 0 0 0 0.24,-1.32 v -2.84 a 3.58,3.58 0 0 1 2,-0.79 h 2.37 a 7.5,7.5 0 0 1 0,-2.56 6.17,6.17 0 0 0 -1.97,0.13 z m -6.5,-85.29 5.74,-3.12 0.4,0.11 a 11.9,11.9 0 0 1 -1.11,2.1 v 0.08 a 6.89,6.89 0 0 1 1.87,0.35 h 0.09 l 1,-2.23 -1.7,-0.61 0.42,-1.88 a 9.54,9.54 0 0 1 -1.84,-0.58 h -0.07 c 0.19,0.36 0.28,0.93 0.14,1 l -5.9,3.21 a 0.63,0.63 0 0 1 -0.65,0 L 192,72 a 14.87,14.87 0 0 1 -0.08,2.88 l 2.37,0.65 0.1,-0.35 c -0.78,-0.18 -0.72,-0.6 -0.66,-1.71 z M 211,126 a 3.42,3.42 0 0 0 0.32,-2 5.2,5.2 0 0 1 -2.55,0 v 2.46 a 4.53,4.53 0 0 1 -0.35,2.12 5.18,5.18 0 0 1 -2.76,0.77 v 0.44 c 0.58,0 0.84,0.95 0.84,1.52 v 0.85 c 0,1.33 0,3.84 -0.55,4.69 l -0.75,1.19 -3.61,5.45 -2,3 v 0.07 -7 l 0.94,-1.42 a 3.6,3.6 0 0 1 2.16,-1 h 1.64 a 6.57,6.57 0 0 1 0,-2.32 6.94,6.94 0 0 0 -1.19,0.07 3.79,3.79 0 0 0 0.35,-2.16 5.75,5.75 0 0 1 -2.79,0 v 2.7 a 5.18,5.18 0 0 1 -0.36,2.28 l -0.89,1.34 c -0.28,0.31 -1.08,0.94 -3.12,0.94 v 0.45 c 0.59,0 0.85,0.94 0.85,1.52 v 6.69 c 0,1.33 0,3.84 -0.56,4.69 -0.26,0.41 -0.79,1.17 -0.79,1.17 l 0.31,0.19 c 0,0 0.68,-0.92 1.48,-2.13 l 0.23,-0.36 a 5.84,5.84 0 0 1 4.47,-2.49 h 2.39 a 2.57,2.57 0 0 1 0.85,-2.1 c -2.85,0 -4.61,-0.34 -6.28,1.77 l -0.17,0.25 a 7.45,7.45 0 0 0 0.42,-2.41 l 0.47,-0.71 a 6.55,6.55 0 0 1 5,-2.7 h 2.71 a 2.9,2.9 0 0 1 0.94,-2.36 3.16,3.16 0 0 1 1.79,-0.7 h 2.08 a 6.56,6.56 0 0 1 0,-2.24 5.35,5.35 0 0 0 -1.77,0.19 3.38,3.38 0 0 0 0.3,-1.89 5.1,5.1 0 0 1 -2.48,0 v 2.41 a 3.9,3.9 0 0 1 -0.36,2.11 l -0.07,0.09 c -2.23,0 -3.85,-0.14 -5.28,0.8 l 2.69,-4.06 0.15,-0.23 1.11,-1.68 0.16,-0.24 v -0.08 l 0.19,-0.28 a 3.82,3.82 0 0 1 2.36,-1.12 h 2.61 a 7.35,7.35 0 0 1 0,-2.51 c -1.91,0 -2.76,0.16 -3.93,1.63 a 8.1,8.1 0 0 0 0.61,-3 v -2 a 4.66,4.66 0 0 1 2.36,-0.75 h 1.58 a 6.7,6.7 0 0 1 0,-2.3 A 5.4,5.4 0 0 0 211,126 Z m -20.43,-58.45 2,-1.26 a 22.63,22.63 0 0 1 3.88,1.12 h 0.08 l 1.58,-3.06 a 16.74,16.74 0 0 1 -2.93,-1.84 l -5.65,3.63 a 0.63,0.63 0 0 1 -0.64,0 h -0.07 a 18.75,18.75 0 0 1 0.19,3.54 l 2.43,0.48 v -0.37 c -0.81,-0.07 -0.76,-0.79 -0.87,-2.24 z m 5.8,-3.73 -1.31,2.66 c 0,0 -1.17,-0.31 -2,-0.5 z m 3.89,17.4 a 0.61,0.61 0 0 1 0.58,0 h 0.09 v -2.11 l 3.13,0.56 a 9.63,9.63 0 0 1 0.56,-2.67 16.62,16.62 0 0 1 -2.51,-2.29 l -2.6,1.14 a 0.62,0.62 0 0 1 -0.64,-0.07 h -0.08 l -0.2,2.43 -3.91,-0.66 a 8.21,8.21 0 0 1 -0.13,2.76 15.58,15.58 0 0 1 2.76,2.15 z m 0,-3.7 2.81,-1.23 0.12,0.1 a 14.74,14.74 0 0 0 -0.64,2.65 l -2.47,-0.49 z m -4,3.52 -0.23,-0.16 a 13.33,13.33 0 0 0 0.26,-2.61 l 3.11,0.52 v 0.89 z m -9.17,49.72 h -1.15 v 0.92 H 185 v 1.15 h 0.92 v 0.92 h 1.15 v -0.92 H 188 v -1.15 h -0.92 z m 26.51,-22.63 c 0,0 -0.57,0.13 -0.74,0.14 a 19.15,19.15 0 0 0 1.57,2 4.65,4.65 0 0 0 1.11,-0.58 z m -98.71,-98 A 104.87,104.87 0 1 0 219.74,115 104.87,104.87 0 0 0 114.87,10.16 Z m 11.29,23.17 c 0.9,0.12 1.8,0.26 2.7,0.42 v 6 l -2.7,-4.14 z m 3.62,157.31 -1,0.92 v 1.15 h 1.14 v 1.17 H 128.8 V 195 h -1.2 v -1.14 h -1.14 v -1.16 h 1.14 v -1.15 l -1,-0.92 h -3.5 l -1,0.92 v 1.15 h 1.15 v 1.17 H 122.1 V 195 h -1.16 v -1.14 h -1.14 v -1.16 h 1.14 v -1.14 l -1,-0.93 h -3.39 l -1,0.93 v 1.14 h 1.14 v 1.17 h -1.14 V 195 h -1.17 v -1.14 h -1.14 v -1.16 h 1.14 v -1.15 l -1,-0.92 h -3.48 l -1,0.93 v 1.14 h 1.1 v 1.17 h -1.14 V 195 h -1.17 v -1.14 h -1.14 v -1.16 h 1.14 v -1.15 l -1,-0.92 h -3.47 l -1,0.93 v 1.14 h 1.15 v 1.17 h -1.15 V 195 H 101 v -1.14 H 99.87 V 192.7 H 101 v -1.13 l -1,-0.94 H 90 c 0.4,0.4 3.49,3.13 5.07,4.53 a 82.2,82.2 0 0 1 -8.15,-2.46 v -1.47 l 0.64,-0.57 2,-1.75 h 17.92 a 2.9,2.9 0 0 0 1.71,1 h 0.32 a 5.79,5.79 0 0 0 1.14,-0.13 3.09,3.09 0 0 0 1,-0.33 9.2,9.2 0 0 0 0.81,-0.52 h 8.23 a 5.48,5.48 0 0 0 0.47,0.4 3.87,3.87 0 0 0 2.31,0.78 4,4 0 0 0 1.94,-0.51 1.41,1.41 0 0 0 0.55,-0.68 h 14.26 l 2.57,2.25 v 1.59 l -0.57,0.23 q -3.72,1.3 -7.59,2.25 l 4.44,-4.56 z M 131,196 a 82.94,82.94 0 0 1 -32.36,0 z M 106.79,55.4 v 5.06 H 96.71 V 55.4 Z m -6,-1.15 V 46 a 1.24,1.24 0 0 1 0.41,-0.88 1.47,1.47 0 0 1 1,-0.39 1.29,1.29 0 0 1 1.3,1.27 v 8.23 z M 104.65,46 a 1.48,1.48 0 0 1 0.33,-1 0.88,0.88 0 0 1 0.67,-0.34 1.09,1.09 0 0 1 0.77,0.37 1.37,1.37 0 0 1 0.37,0.93 v 8.23 h -2.14 z m 10.14,9.37 h 6.31 v 5.06 H 108.55 V 55.4 Z m -6.24,-1.15 V 46 a 1.23,1.23 0 0 1 1.06,-1.3 1,1 0 0 1 0.73,0.36 1.4,1.4 0 0 1 0.36,0.94 v 8.23 z m 3.29,0 V 46 a 1.22,1.22 0 1 1 2.44,0 v 8.23 z m 3.6,0 V 46 a 1.19,1.19 0 1 1 2.37,0 v 8.23 z m -0.57,39.47 h -0.08 a 17,17 0 0 0 -3.52,0.39 l 3.58,-5.49 3.6,5.5 a 17.19,17.19 0 0 0 -3.58,-0.37 z m 2.94,1.44 v 6.15 a 13,13 0 0 0 -2.39,-0.32 v -6.1 a 16.1,16.1 0 0 1 2.39,0.29 z m -3.54,-0.28 V 101 a 13.18,13.18 0 0 0 -2.71,0.41 v -6.2 a 16.15,16.15 0 0 1 2.71,-0.33 z m 0.57,-8.36 -5.24,8 c -0.35,0.12 -0.7,0.24 -1,0.38 v -2.09 l 6.29,-9.64 6.26,9.56 v 2.23 c -0.33,-0.13 -0.66,-0.25 -1,-0.36 z m 0,-8.75 6.26,9.48 v 3.38 l -6.25,-9.6 -6.29,9.64 v -3.22 z m -6.3,-8.68 a 1.38,1.38 0 0 1 1.32,-1.21 1.31,1.31 0 0 1 1.26,1.3 v 12.21 l -2.58,4 z m 5.74,1.52 v 4.52 h -2 V 69.19 A 1.44,1.44 0 0 1 113,68 a 3,3 0 0 1 1.33,-0.47 v 1.25 a 1.1,1.1 0 0 0 0,1.88 z M 114,76.9 112.24,79.6 V 75.88 A 5.16,5.16 0 0 0 114,76.9 Z m 1.4,-8.16 V 67.5 a 3,3 0 0 1 1.25,0.46 1.45,1.45 0 0 1 0.68,1.23 v 5.94 h -1.93 v -4.52 a 1.1,1.1 0 0 0 0,-1.87 z m 1.93,7.14 v 3.63 l -1.73,-2.62 a 5.15,5.15 0 0 0 1.77,-1.01 z m 1.15,5.37 V 69.19 a 1.33,1.33 0 0 1 1.28,-1.3 1.35,1.35 0 0 1 1.3,1.23 V 85.17 Z M 119,95.42 a 16.26,16.26 0 0 1 2.36,0.84 v 6.41 a 13.3,13.3 0 0 0 -2.36,-1 z m 2.14,-41.17 H 119 V 46 a 1.48,1.48 0 0 1 0.33,-1 0.88,0.88 0 0 1 0.67,-0.34 1.1,1.1 0 0 1 0.77,0.36 1.35,1.35 0 0 1 0.37,0.92 z m 0,7.36 v 5.52 a 2.47,2.47 0 0 0 -1.3,-0.38 2.44,2.44 0 0 0 -1.83,0.86 2.76,2.76 0 0 0 -0.62,-0.59 4.18,4.18 0 0 0 -1.91,-0.68 V 65.7 h 1 v -1.15 h -1 v -1 h -1.15 v 1 h -1 v 1.15 h 1 v 0.63 a 4.25,4.25 0 0 0 -2,0.69 2.86,2.86 0 0 0 -0.62,0.58 2.4,2.4 0 0 0 -1.81,-0.86 2.51,2.51 0 0 0 -1.32,0.39 V 61.61 Z M 110.41,95.5 v 6.25 a 13.14,13.14 0 0 0 -2.31,1.1 v -6.47 a 15.93,15.93 0 0 1 2.31,-0.88 z m 4.46,6.62 a 12,12 0 0 1 8.43,3.46 11.45,11.45 0 0 1 3.49,8.14 c 0,4.52 -2.74,8.23 -7,10.48 0,-0.24 0,-0.49 0.07,-0.75 a 14.73,14.73 0 0 1 1.68,-4.21 1.67,1.67 0 0 0 1.52,-0.66 1.59,1.59 0 0 0 0.06,-1.54 1.83,1.83 0 0 0 1.24,-1.37 1.55,1.55 0 0 0 -1.12,-1.73 1.62,1.62 0 0 0 0.27,-1.67 1.65,1.65 0 0 0 -1.77,-0.95 c 0,0 0.19,-0.7 -0.7,-1.23 -0.89,-0.53 -1.38,-0.23 -1.38,-0.23 a 1.31,1.31 0 0 0 -0.74,-0.69 2.12,2.12 0 0 0 -1.07,-0.08 1.48,1.48 0 0 0 -0.82,-0.41 1.59,1.59 0 0 0 -1,0.14 1.58,1.58 0 0 0 -2.38,0 c 0,0 -0.17,-0.25 -0.83,-0.24 a 1.18,1.18 0 0 0 -1,0.51 1.21,1.21 0 0 0 -1.05,0 1.5,1.5 0 0 0 -0.76,0.82 c 0,0 -0.43,-0.38 -1.39,0.21 a 1.39,1.39 0 0 0 -0.69,1.25 1.61,1.61 0 0 0 -1.56,0.61 1.66,1.66 0 0 0 0,1.91 1.46,1.46 0 0 0 -1.09,1.59 1.79,1.79 0 0 0 1.27,1.6 2.18,2.18 0 0 0 0.17,1.51 1.84,1.84 0 0 0 1.59,0.66 c 0.12,0.46 0.88,3.49 1,4.69 -0.74,-0.48 -1.31,-0.88 -1.31,-0.89 a 11.11,11.11 0 0 1 -1.69,-17.48 12,12 0 0 1 8.56,-3.46 z m 24.72,-32.26 v -1 h -1.15 v 1 h -1 V 71 h 1 v 3.35 l -2.87,4.36 V 56.57 l 6.72,10.17 v 11.75 l -2.71,-4.13 V 71 h 1 v -1.15 z m -0.59,5.71 3.28,5 v 2.9 a 2.6,2.6 0 0 0 -3.35,0.52 2.57,2.57 0 0 0 -2,-0.91 2.63,2.63 0 0 0 -1.41,0.42 v -2.7 z m 3.28,9.82 v 26.83 L 139.51,108 V 85.53 a 1.41,1.41 0 0 1 1.42,-1.29 1.38,1.38 0 0 1 1.37,1.15 z m -6.72,0.14 a 1.39,1.39 0 0 1 1.41,-1.3 1.36,1.36 0 0 1 1.37,1.29 V 108 l -2.79,4.25 V 85.53 Z m 3.36,23.67 3.36,5.12 v 9.8 a 2.5,2.5 0 0 0 -1.34,-0.4 2.69,2.69 0 0 0 -2,0.94 2.77,2.77 0 0 0 -2,-0.94 2.61,2.61 0 0 0 -1.31,0.36 v -9.74 z m 0.57,70.47 V 154 h 2.79 v 18 l -2.68,4.77 v 2.92 z m 0.1,6.13 v 1.31 h -0.78 a 1.84,1.84 0 0 0 0.21,-0.23 4.34,4.34 0 0 0 0.59,-1.08 z m -0.1,-34.39 v -25.25 a 1.24,1.24 0 0 1 0.43,-0.9 1.54,1.54 0 0 1 1,-0.4 1.31,1.31 0 0 1 1.32,1.3 v 25.25 z m -2.63,-26.55 a 1.58,1.58 0 0 1 1,0.4 1.2,1.2 0 0 1 0.44,0.89 v 25.25 h -2.79 v -25.57 a 1.28,1.28 0 0 1 1.37,-0.97 z m 1.5,29.14 v 24.63 l -0.37,-0.33 a 10.43,10.43 0 0 1 -2.33,-2.78 v -0.06 l -0.08,-0.09 V 154 Z m -1.14,25.15 c 0.85,0.78 1.69,1.46 2.14,1.9 a 38.07,38.07 0 0 1 -0.65,3.79 3.62,3.62 0 0 1 -0.57,1.29 0.83,0.83 0 0 1 -0.71,0.37 0.94,0.94 0 0 1 -0.77,-0.37 c -0.69,-0.75 -0.83,-3 -0.81,-4.06 V 181 a 8.14,8.14 0 0 1 -3.15,-1.81 c -1.14,-1.15 -2.3,-3.2 -2.9,-7.17 -0.21,-1.37 -0.43,-4.41 -0.77,-7.46 a 32.8,32.8 0 0 0 -1.49,-7.76 l -1.05,0.46 a 32.22,32.22 0 0 1 1.39,7.42 c 0.34,3 0.56,6 0.78,7.5 0.62,4.12 1.86,6.44 3.22,7.8 a 7.79,7.79 0 0 0 2.87,1.81 8.18,8.18 0 0 0 -0.93,1.14 29.51,29.51 0 0 1 -2.25,2.89 3.82,3.82 0 0 1 -2.41,1.48 1.67,1.67 0 0 1 -1.22,-0.61 8.09,8.09 0 0 0 -5.64,-2.84 5.47,5.47 0 0 0 -3.71,1.49 2.9,2.9 0 0 1 -1.91,0.85 3.42,3.42 0 0 1 -2.35,-1.18 c -0.31,-0.3 -1,-1 -0.92,-0.86 a 5.44,5.44 0 0 0 -1.54,-1.06 5.08,5.08 0 0 0 -1.66,-0.3 5.45,5.45 0 0 0 -2.1,0.42 13.11,13.11 0 0 0 -3.57,2.36 4.21,4.21 0 0 1 -2.69,1.16 3.55,3.55 0 0 1 -2.76,-1.51 6.14,6.14 0 0 0 -1.45,-1.52 2.36,2.36 0 0 0 -1.28,-0.37 c 1.94,-4.86 5,-14.17 5.88,-17.81 0.52,-2.11 1,-4.23 1.56,-6.3 0.44,-1.6 1.15,-3.82 2.86,-5 a 6.87,6.87 0 0 1 2.25,-0.43 3.15,3.15 0 0 1 1.1,0.17 21,21 0 0 1 3.24,1.86 7.74,7.74 0 0 0 3.81,1.44 c 2.55,0 5.19,-1.52 6,-1.83 0.23,-0.11 0.5,-0.26 0.79,-0.43 a 8.42,8.42 0 0 0 1,-0.48 l 0.28,-0.16 a 3.91,3.91 0 0 1 1.59,-0.38 2.64,2.64 0 0 1 0.93,0.16 2.38,2.38 0 0 1 1,1.07 c 1.09,1.85 1.9,5.48 2.22,7.31 0.43,2.48 1.07,6.45 1.9,9.55 a 14.84,14.84 0 0 0 1.13,2.75 9.19,9.19 0 0 0 0.68,1.11 l 0.12,0.15 a 11.59,11.59 0 0 0 2.52,3.11 z m -1.22,7.96 h -4 a 15.93,15.93 0 0 0 1.37,-1.52 c 0.55,-0.7 1,-1.4 1.46,-2 a 9.81,9.81 0 0 0 0.26,1.7 4,4 0 0 0 0.76,1.59 1.73,1.73 0 0 0 0.15,0.23 z m -9.25,0 h -0.83 a 6.13,6.13 0 0 0 -0.38,-1 9.88,9.88 0 0 1 1.19,1 z m -2.94,-1.66 a 5.18,5.18 0 0 1 1.12,2.61 0.79,0.79 0 0 1 -0.1,0.44 v 0.07 a 2.83,2.83 0 0 1 -1.34,0.34 2.7,2.7 0 0 1 -1.64,-0.56 6.36,6.36 0 0 1 -1.55,-1.79 c -0.17,-0.27 -0.29,-0.52 -0.38,-0.7 a 4.2,4.2 0 0 1 2.48,-0.83 h 0.09 l 0.8,2.24 1.08,-0.38 z m -4.55,1.66 H 118 a 4.49,4.49 0 0 0 1,-0.53 c 0,0.16 0.12,0.34 0.24,0.53 z m -3.81,0 h -2.12 c 0,-0.37 0.06,-0.79 0.08,-1.22 v -0.19 l 0.17,0.15 a 5.53,5.53 0 0 0 1.85,1.26 z m -4.32,0.36 0.93,-2.81 0.24,0.14 v 1 a 13.09,13.09 0 0 1 -0.15,1.69 1.17,1.17 0 0 1 -0.42,0.46 c -0.24,0.19 -0.52,0.34 -0.72,0.47 a 2.74,2.74 0 0 1 -0.59,0.17 4.81,4.81 0 0 1 -0.91,0.11 h -0.18 a 2.18,2.18 0 0 1 -1.24,-0.93 1.4,1.4 0 0 1 -0.2,-0.82 4.62,4.62 0 0 1 0.93,-2.62 1.23,1.23 0 0 1 0.16,-0.17 3.82,3.82 0 0 1 0.68,-0.17 h 0.49 a 3.15,3.15 0 0 1 0.59,0.07 l 0.32,0.1 -1,3 z m -4.43,-0.36 h -2.25 a 7.8,7.8 0 0 0 0.88,-0.64 18.84,18.84 0 0 1 1.7,-1.3 5.47,5.47 0 0 0 -0.34,1.81 c 0,0 -0.01,0.09 -0.01,0.13 z m -16,-6.62 a 36.14,36.14 0 0 0 6.18,-8.42 c 2.23,-4.05 3.63,-9.48 4.3,-11.69 a 8.88,8.88 0 0 1 2.74,-4.6 15.57,15.57 0 0 0 -1.18,3.15 c -0.59,2.11 -1,4.23 -1.56,6.33 a 180.36,180.36 0 0 1 -6.31,18.82 16.59,16.59 0 0 0 -0.83,1.46 2,2 0 0 1 -1.25,1 1,1 0 0 1 -0.25,0 c -0.38,0 -0.83,-0.31 -1.23,-1.37 a 14.46,14.46 0 0 1 -0.64,-4.68 z m 0.42,6.62 h -1 v -2 q 0.07,0.25 0.16,0.5 a 4,4 0 0 0 0.82,1.5 z m 3,-33.07 v 20.4 a 35.33,35.33 0 0 1 -2.79,3.77 V 154 Z m -2.79,-2.63 v -25.25 a 1.22,1.22 0 0 1 0.42,-0.9 1.56,1.56 0 0 1 1,-0.4 1.34,1.34 0 0 1 1.35,1.25 v 25.3 z M 94.12,112.23 91.29,108 V 85.53 a 1.32,1.32 0 0 1 1.35,-1.3 1.54,1.54 0 0 1 1,0.4 1.23,1.23 0 0 1 0.42,0.89 z m 11.13,10.86 a 2.21,2.21 0 0 1 2.2,2.13 l -0.65,0.21 0.16,0.54 a 1,1 0 0 1 0,0.3 c 0,0.36 -0.21,0.48 -0.52,0.51 a 0.61,0.61 0 0 1 -0.6,-0.47 l -0.06,-0.18 v -0.24 h 0.92 v -1.15 h -0.92 v -0.92 h -1.15 v 0.92 h -0.92 v 1.15 h 0.92 v 0.21 l -1.27,0.43 a 2.18,2.18 0 0 1 -0.37,-1.21 2.22,2.22 0 0 1 2.23,-2.23 z m -0.11,-0.58 v -0.57 c 0.19,0.21 0.39,0.41 0.6,0.61 a 2.76,2.76 0 0 0 -0.49,0 z m 3,3.76 v -0.07 l 0.57,-0.19 1.39,3.91 -0.49,0.18 a 1.66,1.66 0 0 0 -1.39,-0.74 1.8,1.8 0 0 0 -1.81,1.75 l -0.62,0.21 -1.35,-4 0.59,-0.19 a 1.75,1.75 0 0 0 1.44,0.75 1.7,1.7 0 0 0 1.14,-0.43 1.62,1.62 0 0 0 0.51,-1.18 z m -0.33,-2.05 0.88,0.59 L 108,125 a 2.81,2.81 0 0 0 -0.21,-0.78 z M 120,119.16 h -0.6 a 3.79,3.79 0 0 1 -0.44,1 c -0.28,0.45 -0.29,0.29 -0.81,1 a 5,5 0 0 0 -1.72,-0.91 v -1 h -0.49 v 1 h -0.29 v -0.24 h -0.38 v 0.4 a 0.35,0.35 0 0 1 -0.69,0 v -0.44 h -0.37 v 0.28 h -0.3 v -1.05 h -0.55 v 1 a 4.47,4.47 0 0 0 -1.54,0.78 2.43,2.43 0 0 1 -1.57,-1.92 h -0.34 a 20,20 0 0 1 -0.89,-3.37 c 0.36,-0.32 1.31,-1.21 1.27,-1.65 a 1.51,1.51 0 0 0 1,0.4 1.67,1.67 0 0 0 1.32,-0.69 1.69,1.69 0 0 0 2.28,-0.4 c 0.27,0.27 0.57,0.7 1.08,0.7 a 3.77,3.77 0 0 0 1.2,-0.29 1.52,1.52 0 0 0 1.32,0.69 c 0.93,0 1,-0.4 1,-0.4 0,0 1.15,1.19 1.6,1.63 a 21.67,21.67 0 0 1 -1.09,3.48 z m 1.61,7 V 127 q -0.68,-0.89 -1.35,-1.71 c 0.47,-0.24 0.91,-0.51 1.35,-0.79 a 2.8,2.8 0 0 0 -0.12,0.82 2.87,2.87 0 0 0 0.1,0.8 z m -0.59,2 a 10.34,10.34 0 0 1 -1.32,1.19 3.58,3.58 0 0 0 -1.59,2.49 1.75,1.75 0 0 0 0,0.34 17,17 0 0 0 0.83,2.24 c 0.69,1.64 1.7,3.91 2.67,5.86 0.48,1 1,1.86 1.38,2.56 a 4.57,4.57 0 0 0 1.19,1.48 3.58,3.58 0 0 0 1.4,0.82 c 1.49,0.45 2.66,0.76 3.27,2.06 l 1,-0.48 c -0.87,-1.84 -2.58,-2.25 -4,-2.68 l -0.15,-0.06 v -0.28 a 28.42,28.42 0 0 1 0.49,-4.09 l -1.13,-0.2 a 34,34 0 0 0 -0.49,3.71 4.31,4.31 0 0 1 -0.47,-0.74 14.35,14.35 0 0 1 -1.12,-5 c -0.16,-1.84 -0.18,-3.59 -0.37,-4.73 l -1.13,0.19 c 0.2,1.14 0.2,3.38 0.46,5.61 -0.26,-0.55 -0.52,-1.11 -0.77,-1.66 -0.53,-1.17 -1,-2.3 -1.37,-3.17 a 16.65,16.65 0 0 1 -0.6,-1.61 0.81,0.81 0 0 1 0,-0.14 c 0,-0.43 0.47,-1 1.18,-1.61 0.43,-0.38 0.91,-0.71 1.28,-1.12 4.36,5.94 8.74,13.46 9.58,17.07 a 4.54,4.54 0 0 1 0.07,0.83 4.83,4.83 0 0 1 -2,3.75 8.4,8.4 0 0 1 -1,0.68 v -0.44 a 4.06,4.06 0 0 0 -0.72,-2.47 4.16,4.16 0 0 0 -0.92,-0.84 5.24,5.24 0 0 0 -2.62,-1.07 h -0.42 c -0.06,0 -0.3,-0.08 -0.61,-0.42 -1.09,-1.19 -2.46,-4.69 -3.56,-8.23 -1,-3.25 -1.86,-6.59 -2.29,-8.4 a 10,10 0 0 0 1.17,-0.59 2.45,2.45 0 0 0 1.1,-1.45 5.31,5.31 0 0 0 0.17,-1.08 q 0.71,0.73 1.39,1.63 z m 3.26,-5 a 2.21,2.21 0 1 1 -2.21,2.21 2.21,2.21 0 0 1 2.19,-2.26 z m -0.19,-0.57 c 0.12,-0.12 0.25,-0.23 0.37,-0.36 v 0.35 h -0.37 z M 127.55,101 v 9.68 a 12.62,12.62 0 0 0 -2,-4.21 V 99 a 18.33,18.33 0 0 1 2,2 z m -1.89,-3.45 1.89,-2.94 v 4.67 a 19.33,19.33 0 0 0 -1.89,-1.7 z m 1.89,28.72 v 9.45 c -0.63,-1 -1.3,-2.1 -2,-3.15 v -4.81 a 2.8,2.8 0 0 0 0,-4.92 v -2 a 12.11,12.11 0 0 0 2,-4.11 v 7.61 a 2.74,2.74 0 0 0 0,2 z m -3.11,1.8 v 2.82 c -0.56,-0.82 -1.13,-1.62 -1.7,-2.4 v -0.87 a 2.74,2.74 0 0 0 1.52,0.45 z m 5.85,23.31 a 5.88,5.88 0 0 0 2.21,-4.38 6,6 0 0 0 -0.09,-1 19.11,19.11 0 0 0 -1.09,-3.07 v -15 a 2.8,2.8 0 0 0 1.63,-2.39 v 25.94 z m 2.66,2.63 v 13.77 c -0.39,-2 -0.72,-4 -1,-5.45 a 37.61,37.61 0 0 0 -1.26,-5.17 13.46,13.46 0 0 0 -1.09,-2.53 6.86,6.86 0 0 0 -0.43,-0.64 z m -4.25,-53.42 v -6 l 4.25,6.47 v 8 a 23.8,23.8 0 0 0 -4.26,-8.43 z m 4.25,16.75 v 7.79 a 2.79,2.79 0 0 0 -1.63,-2.39 v -15 a 29.38,29.38 0 0 1 1.62,9.63 z M 130.17,105 v 17.48 a 2.79,2.79 0 0 0 -1.47,0.42 v -20.4 a 21.34,21.34 0 0 1 1.47,2.5 z M 128.7,92.47 v -4 l 4.24,6.53 v 4 z m 0,-6.06 v -7.05 a 2.06,2.06 0 0 1 2.08,-2 2.14,2.14 0 0 1 2.17,2 v 13.55 z m 2.08,-10.27 a 3.25,3.25 0 0 0 -2.7,1.44 3.46,3.46 0 0 0 -2.81,-1.44 3.71,3.71 0 0 0 -2.36,0.87 l 5.29,-8.01 4.74,7.23 V 77 a 3.4,3.4 0 0 0 -2.17,-0.82 z m -0.61,46.93 a 2.21,2.21 0 1 1 -2.21,2.21 2.21,2.21 0 0 1 2.2,-2.17 z m 0,5 v 12.3 c -0.45,-0.87 -0.94,-1.78 -1.47,-2.72 v -10 a 2.77,2.77 0 0 0 1.47,0.42 z m -5.87,23.7 -4,2.43 a 1.94,1.94 0 0 1 -0.33,-0.17 l 4.11,-2.65 -0.62,-1 -4.26,2.75 a 1.87,1.87 0 0 1 -0.12,-0.58 l 4.22,-2.53 -0.59,-1 -3.17,1.9 a 2.9,2.9 0 0 1 1,-1 c 0.31,-0.18 0.35,-0.19 3.58,-2.26 h 0.12 a 7.07,7.07 0 0 1 1.88,0.81 3.3,3.3 0 0 1 1.14,2.49 2.5,2.5 0 0 1 -0.1,0.75 l -2.55,1.56 a 11,11 0 0 0 -1.24,0.65 5.94,5.94 0 0 1 -1,0.32 l 2.54,-1.53 z m -9.93,1 h -0.34 a 2.92,2.92 0 0 1 -2.65,-2.84 3,3 0 0 1 0,-0.42 3,3 0 0 1 3.06,-2.61 4.15,4.15 0 0 1 0.66,0.06 l 0.35,0.06 0.21,-0.3 a 2.52,2.52 0 0 1 2.17,-1.17 4,4 0 0 1 1.81,0.47 2.67,2.67 0 0 1 1.38,2.24 l -0.41,0.26 v -0.06 a 2.4,2.4 0 0 0 -1,-1.91 2.44,2.44 0 0 0 -1.52,-0.54 2.67,2.67 0 0 0 -2.46,1.64 2.3,2.3 0 0 0 -1.19,-0.32 2.62,2.62 0 0 0 -2.59,2.16 3,3 0 0 0 0,0.43 2.36,2.36 0 0 0 0.74,1.77 2.48,2.48 0 0 0 1.69,0.64 2.67,2.67 0 0 0 0.51,0 2.69,2.69 0 0 0 2.62,2.54 2.37,2.37 0 0 0 1,-0.2 l 0.28,-0.15 a 3.53,3.53 0 0 0 0.46,0.41 3.4,3.4 0 0 1 -1,0.33 4.46,4.46 0 0 1 -0.81,0.08 2.91,2.91 0 0 1 -2.83,-2.15 z m 0,2.33 -0.51,-0.31 c -0.54,-0.33 -1.08,-0.69 -1.62,-1 h 1.28 a 4.9,4.9 0 0 0 0.87,1.4 z m -14.92,-32 a 2.21,2.21 0 1 1 -2.21,2.21 2.22,2.22 0 0 1 2.21,-2.21 z m -0.09,-0.58 v -17.14 a 21.6,21.6 0 0 1 1.6,-2.76 V 123 a 2.74,2.74 0 0 0 -1.51,-0.45 z m 1.6,5.14 v 11.42 l -0.88,1.64 c -0.26,0.49 -0.5,1 -0.72,1.4 v -14 h 0.09 a 2.77,2.77 0 0 0 1.55,-0.47 z m -2.27,19.13 v -0.1 a 24.71,24.71 0 0 1 2.38,-5.45 c 1.2,-2.27 2.72,-4.92 4.29,-7.42 l 1.33,3.91 2.63,-0.92 -0.12,-0.51 a 0.82,0.82 0 0 1 0,-0.23 0.62,0.62 0 0 1 0.64,-0.62 c 0.24,0 0.42,0.08 0.56,0.46 l 0.18,0.55 c -0.67,1.91 -1.75,4.55 -2.3,6 a 2.27,2.27 0 0 0 -0.53,-0.06 4.13,4.13 0 0 0 -2.86,1.56 37.59,37.59 0 0 1 1.29,-5.88 l -1.07,-0.41 a 46,46 0 0 0 -1.83,11.09 5.29,5.29 0 0 0 0.2,1.7 2.2,2.2 0 0 0 2,1.64 5.25,5.25 0 0 0 3,-1.4 5.94,5.94 0 0 1 -3.56,2.85 1.94,1.94 0 0 1 -0.61,0.09 6,6 0 0 1 -3.78,-2.06 6.49,6.49 0 0 1 -2,-4.07 2.46,2.46 0 0 1 0.16,-0.72 z m 8.84,-15.68 a 0.64,0.64 0 0 1 0.66,-0.6 c 0.24,0 0.41,0.07 0.54,0.47 a 1,1 0 0 1 0,0.23 0.64,0.64 0 0 1 -0.65,0.62 c -0.24,0 -0.4,-0.07 -0.55,-0.47 a 0.75,0.75 0 0 1 0,-0.25 z m 0.55,1.86 a 1.79,1.79 0 0 0 1.8,-1.77 l 0.55,-0.2 1.36,3.82 -0.3,0.1 -0.29,0.09 a 1.7,1.7 0 0 0 -1.4,-0.74 1.78,1.78 0 0 0 -1.8,1.73 l -0.61,0.22 -1.29,-3.82 0.59,-0.21 a 1.67,1.67 0 0 0 1.39,0.81 z m 6.9,-5.76 h 0.54 a 3.57,3.57 0 0 0 3,-1.9 12,12 0 0 1 -0.19,1.81 1.27,1.27 0 0 1 -0.62,0.8 c -0.34,0.22 -0.85,0.43 -1.47,0.73 l -0.41,0.2 0.1,0.45 c 0.11,0.49 0.27,1.16 0.47,1.93 a 2.21,2.21 0 0 1 -1.41,0.53 2.49,2.49 0 0 1 -1.72,-0.45 c 0.23,-0.76 0.42,-1.43 0.55,-1.91 l 0.14,-0.5 -0.48,-0.19 a 3.8,3.8 0 0 1 -2.27,-2.16 c 0,-0.24 -0.1,-0.59 -0.18,-0.95 a 6.47,6.47 0 0 1 0,-0.78 4.41,4.41 0 0 0 3.97,2.39 z m -1.44,-4.69 h 2.7 a 1.38,1.38 0 0 1 -2.7,0 z m 4.46,18.32 c -0.47,-2.15 -1.05,-5.07 -1.53,-8.22 l 0.32,-0.17 c 0.46,1.8 1.07,4 1.74,6.12 a 26.69,26.69 0 0 1 0.9,6.15 6.25,6.25 0 0 0 -0.62,-0.17 h 0.06 c 0,0 -0.42,-1.44 -0.87,-3.71 z m -1.47,-1.38 a 7,7 0 0 0 -0.49,-0.77 1.67,1.67 0 0 0 -1.24,-0.81 0.86,0.86 0 0 0 -0.26,0 l -0.21,0.06 c 0.14,-1 0.43,-3.32 0.49,-5 h 0.46 c 0.4,2.38 0.82,4.63 1.21,6.51 z m -3.91,-5.94 0.33,-1 a 3.1,3.1 0 0 0 0.73,0.31 c 0,0.92 -0.13,2.06 -0.24,3.07 z m 0.48,4.81 -0.48,0.14 -0.83,-2.42 0.17,-0.05 0.33,-0.11 z m -0.48,-8.73 c -0.16,0.57 -0.37,1.31 -0.62,2.12 l -0.52,-1.47 -0.85,-2.4 a 5.16,5.16 0 0 0 1.94,1.75 z m -1,9.58 a 8.15,8.15 0 0 0 -0.88,1.37 5.49,5.49 0 0 1 -1,1.48 c 0.43,-1.11 1,-2.57 1.51,-3.91 z m -3.92,4.39 a 25.55,25.55 0 0 0 -1.87,2.23 c -0.47,0.62 -0.92,1.24 -1.29,1.78 0,-0.41 0.07,-0.85 0.12,-1.3 0.91,-1.58 2.12,-2.66 2.97,-2.71 z m 2.61,5.63 0.07,-0.07 v 0.28 a 4.6,4.6 0 0 0 0,0.58 3.9,3.9 0 0 0 1.12,2.73 h -2.82 a 6.67,6.67 0 0 0 1.57,-3.52 z m 0.49,-1.8 c -0.36,0.25 -0.69,0.48 -0.95,0.68 l -0.33,0.27 c -0.06,0.08 -0.11,0.09 -0.18,0.19 -1.85,1.81 -3.14,2.46 -3.75,2.43 -0.45,0 -0.69,-0.21 -1,-0.9 a 2.26,2.26 0 0 1 -0.1,-0.52 c 0.46,-0.59 1.26,-1.8 2.22,-3.08 a 11.48,11.48 0 0 1 3.16,-3.22 4.42,4.42 0 0 0 1.85,-2.18 c 0.43,-0.82 0.87,-1.45 1.21,-1.52 l 1.87,-0.54 a 1.66,1.66 0 0 1 0.35,0.39 l -1.26,0.54 0.45,1.06 1.39,-0.59 c 0.07,0.15 0.14,0.3 0.19,0.45 l -1.37,0.56 0.43,1.06 1.32,-0.54 c 0,0.16 0.09,0.31 0.13,0.47 l -1.27,0.47 0.4,1.07 1.07,-0.4 v 0.2 a 1.26,1.26 0 0 1 -0.06,0.45 c -0.62,0.21 -2.69,1.21 -3.91,1.86 -0.45,0.34 -1.23,0.85 -1.93,1.34 z m 9.78,-3.34 c 0.17,0.38 0.34,0.73 0.51,1.07 a 8.66,8.66 0 0 0 1.16,1.77 3.64,3.64 0 0 0 0.43,0.41 l -0.5,0.32 a 3.72,3.72 0 0 0 -1.59,-2.39 v -0.43 c 0,0 -0.06,-0.46 -0.07,-0.75 z m -1.28,5.48 a 4.23,4.23 0 0 0 -0.45,0.52 l -0.88,-0.07 -0.41,0.92 0.66,0.37 a 4,4 0 0 0 -0.24,1.28 3,3 0 0 0 0.16,1 l -0.14,0.08 a 1.28,1.28 0 0 1 -0.5,0.1 1.47,1.47 0 0 1 -1,-0.46 1.44,1.44 0 0 1 -0.45,-1 0.94,0.94 0 0 1 0.25,-0.64 l -0.79,-0.83 a 1.8,1.8 0 0 1 -1.11,0.4 1.2,1.2 0 0 1 -1.4,-1.21 1.93,1.93 0 0 1 0,-0.26 1.49,1.49 0 0 1 1.45,-1.18 1.22,1.22 0 0 1 1.15,0.81 l 1.07,-0.4 a 1.34,1.34 0 0 1 -0.05,-0.37 1.26,1.26 0 0 1 0.45,-0.95 1.58,1.58 0 0 1 1,-0.41 1.26,1.26 0 0 1 0.81,0.28 1.24,1.24 0 0 1 0.55,1 2.46,2.46 0 0 1 -0.3,1 z M 104,122.81 a 2.79,2.79 0 0 0 -0.83,4.35 l 0.83,2.45 v 4.29 c -0.64,1 -1.26,2.07 -1.85,3.1 v -10.88 a 2.84,2.84 0 0 0 0.14,-0.86 2.74,2.74 0 0 0 -0.14,-0.85 v -8.1 a 12.24,12.24 0 0 0 1.85,4.15 z M 102.15,99.37 V 94.6 l 1.95,3 a 19.06,19.06 0 0 0 -1.99,1.77 z M 104,99.16 v 7.61 a 12.6,12.6 0 0 0 -1.85,4.24 v -9.93 A 18.87,18.87 0 0 1 104,99.16 Z m -2.37,-21.55 a 3.25,3.25 0 0 0 -2.7,-1.44 3.4,3.4 0 0 0 -2.17,0.79 v -0.64 l 4.77,-7.32 5.26,8 v 0.08 a 3.73,3.73 0 0 0 -2.41,-0.9 3.46,3.46 0 0 0 -2.8,1.43 z m -4.87,1.73 a 2.15,2.15 0 0 1 2.17,-2 2,2 0 0 1 2.08,2 v 7.1 l -4.25,6.47 V 79.35 Z m 4.24,9.2 v 4 L 96.71,99 v -4 z m 0,6.06 v 6.09 a 24.07,24.07 0 0 0 -4.25,8.46 v -8.08 z m -4.23,23 a 29.14,29.14 0 0 1 1.48,-9.39 v 14.59 a 2.79,2.79 0 0 0 -1.5,2 v -7.21 z m 1.48,10.24 v 16.76 a 9.1,9.1 0 0 0 -0.63,1.93 3.73,3.73 0 0 0 -0.14,1 6.77,6.77 0 0 0 1.49,3.87 h -2.26 v -25.56 a 2.79,2.79 0 0 0 1.5,1.97 z m 3.59,26.16 a 6.19,6.19 0 0 0 1.59,0.65 l -0.21,0.17 a 10.08,10.08 0 0 0 -3.15,5.19 73.83,73.83 0 0 1 -3.35,9.74 V 154 Z m -6.52,31.51 a 4.29,4.29 0 0 1 0.48,-0.84 0.54,0.54 0 0 1 0.47,-0.22 1.22,1.22 0 0 1 0.78,0.19 5.08,5.08 0 0 1 1.16,1.24 5.34,5.34 0 0 0 1.24,1.18 h -5.28 a 4.34,4.34 0 0 0 1.15,-1.51 z m 37.62,-111.39 -4.25,-6.47 v -2 h 1 v -1.1 h -1 v -1 h -1.15 v 1 h -1 v 1.15 h 1 v 2.18 L 122.86,75 V 61.61 h 10.08 z M 123.56,78 a 2.56,2.56 0 0 1 1.7,-0.66 2.25,2.25 0 0 1 2.28,2.22 v 6.91 l -4.69,7.11 V 79.43 A 2.12,2.12 0 0 1 123.56,78 Z m 4,10.54 v 4 l -2.81,4.38 a 18,18 0 0 0 -1.88,-1.15 v -0.1 z m -3.11,9.55 v 7 a 13.31,13.31 0 0 0 -2,-1.7 v -6.56 a 16.84,16.84 0 0 1 1.98,1.26 z M 107,103.62 a 13,13 0 0 0 -1.85,1.69 v -7.1 A 17,17 0 0 1 107,97 Z m -2,-6.74 -2.87,-4.37 v -4 l 4.74,7.19 A 18.19,18.19 0 0 0 105,96.88 Z m -2.87,-10.43 v -6.91 a 2.26,2.26 0 0 1 2.28,-2.22 2.59,2.59 0 0 1 1.71,0.66 2.16,2.16 0 0 1 0.69,1.3 v 14.29 z m 0,-18.68 V 65.7 h 1 v -1.15 h -1 v -1 H 101 v 1 h -1 v 1.15 h 1 v 2.07 l -4.25,6.47 V 61.61 h 10.05 v 13.3 z M 99.06,54.25 H 96.71 V 43.71 L 96,42.44 v -4.16 h 1 v -1.15 h -1 v -1 h -1.18 v 1 h -1 v 1.15 h 1 v 4.2 L 94.09,43.7 V 54.62 L 87.36,64.78 V 37.26 a 81.89,81.89 0 0 1 11.69,-3.18 z m -5,2.45 v 21.9 l -2.8,-4.25 V 71 h 1 v -1.15 h -1 v -1 h -1.12 v 1 h -1 V 71 h 1 v 3.35 l -2.78,4.24 V 66.86 Z m -3.34,18.87 3.37,5.12 v 2.82 a 2.69,2.69 0 0 0 -1.44,-0.43 2.54,2.54 0 0 0 -1.93,0.89 2.54,2.54 0 0 0 -1.94,-0.89 2.6,2.6 0 0 0 -1.41,0.42 v -2.81 z m -1.94,8.67 a 1.35,1.35 0 0 1 1.37,1.3 V 108 l -2.78,4.24 v -26.7 a 1.42,1.42 0 0 1 1.41,-1.3 z m 1.94,25 3.37,5.12 v 9.78 a 2.56,2.56 0 0 0 -1.35,-0.39 2.69,2.69 0 0 0 -2,0.92 2.63,2.63 0 0 0 -2,-0.92 2.59,2.59 0 0 0 -1.38,0.4 v -9.8 z m -2,15.66 a 1.4,1.4 0 0 1 1.4,1.3 v 25.25 h -2.76 v -25.31 a 1.38,1.38 0 0 1 1.38,-1.28 z m 1.42,29.1 v 25.38 l -0.09,0.09 v -2.66 l -2.69,-4.78 V 154 Z m -1.84,23.3 v 10.29 l -1.37,1.2 v -13.92 z m 53.07,10.29 V 177.3 l 1.37,-2.44 v 13.92 z M 142.3,64.66 135.58,54.49 V 43.7 l -0.72,-1.24 v -4.18 h 1 v -1.15 h -1 v -1 h -1.16 v 1 h -1 v 1.15 h 1 v 4.18 L 133,43.7 v 10.55 h -2.33 V 34.07 a 82.15,82.15 0 0 1 11.69,3.16 z m -9.35,-9.26 v 5.06 H 122.86 V 55.4 Z M 122.87,54.25 V 46 a 1.23,1.23 0 0 1 1.06,-1.3 1,1 0 0 1 0.73,0.36 A 1.39,1.39 0 0 1 125,46 v 8.23 z m 3.29,0 V 46 a 1.3,1.3 0 0 1 1.3,-1.29 1.45,1.45 0 0 1 1,0.4 1.26,1.26 0 0 1 0.42,0.91 v 8.21 z m 2.7,-12.41 V 44 a 2.62,2.62 0 0 0 -1.4,-0.43 2.43,2.43 0 0 0 -1.85,0.87 2.17,2.17 0 0 0 -1.68,-0.87 2.12,2.12 0 0 0 -1.37,0.55 v -2.7 l 3,-4.61 z m -6.29,-11.22 a 1.2206556,1.2206556 0 1 1 2.44,0.08 v 4.89 l -2.45,3.73 V 30.7 a 0.58,0.58 0 0 0 0,-0.08 z M 119,12.88 q 3,0.12 6,0.41 v 11 l -3,-7.72 -3,7.81 z m 0,15.38 v -0.73 l 3,-7.81 3,7.72 v 1.19 a 2.29,2.29 0 0 0 -1.22,-0.36 2.33,2.33 0 0 0 -1.8,0.86 2.33,2.33 0 0 0 -1.8,-0.86 2.3,2.3 0 0 0 -1.23,0.36 z m 0,2.45 a 1.23,1.23 0 1 1 2.45,-0.08 v 8.7 L 119,35.59 Z m 2.44,10.71 v 2.74 a 2.22,2.22 0 0 0 -1.45,-0.58 2,2 0 0 0 -1.6,0.82 2.24,2.24 0 0 0 -2.92,-0.47 V 41.3 l 2.94,-4.49 z m -6,-2.21 v -11 a 1.19,1.19 0 1 1 2.37,-0.08 v 7.41 z m -3.6,-26.37 h 5.94 V 21 l -3,-7.7 -3,7.61 z m 0,11.23 3,-7.61 3,7.7 v 2 a 2.26,2.26 0 0 0 -1.18,-0.34 2.29,2.29 0 0 0 -1.77,0.85 2.3,2.3 0 0 0 -3,-0.49 z m 0,4.06 a 1.23,1.23 0 1 1 2.45,0.12 v 11.07 l -2.45,-3.73 z m 2.45,13.29 v 2.52 a 2.3,2.3 0 0 0 -1.22,-0.36 2.33,2.33 0 0 0 -1.79,0.85 2.17,2.17 0 0 0 -1.66,-0.85 2.08,2.08 0 0 0 -1.37,0.55 v -2.71 l 3,-4.61 z m -6,-2.09 v -8.65 a 1.23,1.23 0 1 1 2.45,0 v 4.89 z m -3.59,-26 c 2,-0.2 4,-0.33 6,-0.42 v 11.33 l -3,-7.71 -3,7.82 z m 0,14.22 3,-7.82 3,7.71 v 1.21 a 2.29,2.29 0 0 0 -1.23,-0.36 2.34,2.34 0 0 0 -1.8,0.85 2.32,2.32 0 0 0 -1.8,-0.85 2.28,2.28 0 0 0 -1.22,0.36 z m 0,3.19 a 1.22,1.22 0 1 1 2.44,0 v 8.62 l -2.44,-3.73 z m 2.44,10.71 v 2.75 a 2.22,2.22 0 0 0 -1.45,-0.59 2.05,2.05 0 0 0 -1.61,0.84 2.42,2.42 0 0 0 -1.83,-0.84 2.61,2.61 0 0 0 -1.4,0.42 v -2.2 l 3.27,-5 z m -6.28,-1.69 v -6 c 0.89,-0.15 1.79,-0.3 2.69,-0.42 v 2.25 z m -53.58,95 h -2.89 a 2.79,2.79 0 0 0 0,-5 h 2.87 z m -5.3,-5 a 2.79,2.79 0 0 0 0,5 h -2.69 v -5 z M 39.29,128 v -5.35 a 1.28,1.28 0 0 1 0.49,-1 1.9,1.9 0 0 1 1.23,-0.44 1.52,1.52 0 0 1 1.61,1.41 V 128 Z m 1.64,4.27 a 2.21,2.21 0 1 1 2.21,2.21 2.22,2.22 0 0 1 -2.21,-2.21 z m 6.3,-4.27 h -3.45 v -5.35 a 1.55,1.55 0 0 1 1.66,-1.41 2,2 0 0 1 1.27,0.45 1.26,1.26 0 0 1 0.51,1 z m 0,-7.36 a 3.22,3.22 0 0 0 -1.79,-0.55 2.91,2.91 0 0 0 -2.23,1 2.84,2.84 0 0 0 -2.19,-1 3.09,3.09 0 0 0 -1.74,0.53 v -2.79 l 3.92,-6 4,6.11 z m 0,-4.74 -3.45,-5.28 v -2.2 h 1 v -1.15 h -1 v -1 h -1.15 v 1 h -1 v 1.15 h 1 v 2.2 l -3.34,5.12 v -8.19 l 7.94,-11.36 z m 0,-21.71 -7.94,11.36 V 91.88 l -0.87,-1.41 -0.89,1.41 v 44.65 h 9.69 v 25.79 a 82.52,82.52 0 0 1 0,-94.5 z m 0,-32.29 v 3.92 a 83.66,83.66 0 0 0 0,98.46 v 27.39 q -2.39,-2.11 -4.66,-4.36 A 102.24,102.24 0 0 1 103.5,13.42 v 18.75 c -0.9,0.12 -1.8,0.27 -2.69,0.42 v -13.7 l -0.88,-1.11 -0.86,1.11 v 14 A 83.15,83.15 0 0 0 87.36,36 V 33 L 86.08,30.81 84.75,33 v 4 q -3.88,1.5 -7.56,3.36 V 37.3 l -1.75,2.85 v 1.14 A 83.73,83.73 0 0 0 59.29,52.54 v -3.05 l -1.75,2.71 v 1.95 a 83.71,83.71 0 0 0 -7.68,8.26 V 61.9 l -1.29,-2.2 z m 26.39,132 v -1.17 h 1.15 v -1.15 h 1.17 v 1.15 h 1.14 v 1.17 h -1.14 v 1.1 h -1.17 v -1.14 z m -23.77,-3.24 v -1.75 h 32.8 l 2,1.75 z m 18.21,3.24 v -1.17 h 1.15 v -1.15 h 1.17 v 1.15 h 1.14 v 1.17 h -1.13 v 1.1 h -1.17 v -1.14 z m -5.55,0 v -1.17 h 1.15 v -1.15 h 1.16 v 1.15 H 66 v 1.17 h -1.17 v 1.1 h -1.16 v -1.14 z m -5.55,0 v -1.17 h 1.15 v -1.15 h 1.17 v 1.15 h 1.14 v 1.17 h -1.14 v 1.1 h -1.17 v -1.14 z M 62,69.95 64.11,73.17 V 84.58 H 62.57 V 75.1 l 0.54,-0.86 -1.11,-1.78 -1.11,1.78 0.54,0.86 v 9.49 H 59.29 V 74 Z m -2.69,2 V 54.09 c 0.7,-0.64 1.41,-1.27 2.13,-1.88 v 16.53 z m 16.13,2 V 84.58 H 73.29 V 75.1 l 0.54,-0.86 -1.11,-1.78 -1.12,1.78 0.54,0.86 v 9.48 H 70.61 V 73.17 l 2.12,-3.22 z m -2.12,-5.2 v -25 c 0.7,-0.41 1.41,-0.81 2.12,-1.2 v 29.3 z m -2,50.38 v 2.23 a 23.41,23.41 0 0 0 -3,-0.31 V 121 l 3.59,-5.47 3.51,5.47 v 1.59 a 17.79,17.79 0 0 0 -3,-1 v -2.46 z m -3,-0.24 v -15.38 a 1.74,1.74 0 0 1 1.36,-0.61 1.56,1.56 0 0 1 1.66,1.41 v 10 z m 4.16,-4.6 v -10 a 1.42,1.42 0 0 1 1.44,-1.41 1.66,1.66 0 0 1 1.1,0.43 1.32,1.32 0 0 1 0.46,1 v 14.57 z m 1.45,-12.52 a 2.61,2.61 0 0 0 -2,1 2.92,2.92 0 0 0 -2.21,-1 3,3 0 0 0 -1.36,0.33 v -0.69 l 3.48,-9.62 3.58,10.21 v 0.23 a 2.82,2.82 0 0 0 -1.58,-0.48 z M 71.71,88.4 68.23,98 V 85.73 h 7.18 V 98.65 Z M 72.14,57.4 70,54.15 67.9,57.36 V 47.2 q 2.06,-1.43 4.21,-2.73 z M 70,56.24 l 2.11,3.21 v 9.29 l -1.54,2.34 v -8 h 1 v -1.17 h -1 v -2.22 h -1.11 v 2.22 h -1 v 1.15 h 1 v 8 l -1.53,-2.33 v -9.28 z m -0.57,16.92 v 11.42 h -1.5 V 75.1 l 0.54,-0.86 -1.11,-1.78 -1.11,1.78 0.54,0.86 v 9.48 H 65.25 V 73.17 L 67.36,70 Z m -2.65,-15.8 -2.11,-3.21 -2.11,3.21 v -6.11 q 2.05,-1.68 4.22,-3.24 z m -2.11,-1.12 2.11,3.21 v 9.29 l -1.53,2.33 v -8 h 1.11 V 61.91 H 65.25 V 59.69 H 64.1 v 2.22 h -1 v 1.15 h 1 v 8 l -1.53,-2.34 v -9.27 z m 1.81,29.49 v 12.63 l -3.59,-9.92 -3.6,10 V 85.73 Z m -3.59,6.1 3.59,9.91 v 0.34 a 3,3 0 0 0 -1.36,-0.33 2.93,2.93 0 0 0 -2.23,1 2.76,2.76 0 0 0 -2.12,-1 2.68,2.68 0 0 0 -1.49,0.46 v -0.43 z m 3.59,11.69 v 15.36 l -3,-4.6 v -10 a 1.55,1.55 0 0 1 1.66,-1.41 1.75,1.75 0 0 1 1.34,0.64 z m -5.7,-0.61 a 1.53,1.53 0 0 1 1.54,1.41 v 10 l -3,4.6 v -14.7 a 1.49,1.49 0 0 1 1.46,-1.32 z m 2.11,12.59 3.59,5.5 a 22.1,22.1 0 0 0 -3,0.3 v -2.25 h -1.17 v 2.48 a 17.58,17.58 0 0 0 -3,1 V 121 Z m 4.42,6.67 c 8,0 12.27,3.66 14.66,7.47 a 19.56,19.56 0 0 1 2.38,5.78 3.75,3.75 0 0 0 -1.73,-0.5 h -0.15 a 3.77,3.77 0 0 0 -2.31,0.9 16.46,16.46 0 0 0 -3.84,-7.89 c -2.25,-2.6 -5.21,-4.5 -8.31,-4.72 h -0.66 a 6.8,6.8 0 0 0 -1.33,0.12 13.61,13.61 0 0 0 -7.7,4.62 16.33,16.33 0 0 0 -3.94,7.83 3.67,3.67 0 0 0 -2.42,-0.84 3.72,3.72 0 0 0 -1.64,0.35 19.59,19.59 0 0 1 2.37,-5.63 c 2.39,-3.83 6.67,-7.48 14.62,-7.5 z m 15.89,24.37 v -10.37 a 2.45,2.45 0 0 1 0.9,0.46 1.68,1.68 0 0 1 0.63,1.12 v 34.33 l -1.52,2.75 v -19.27 -9.02 z m -3,-23.49 v 2.61 a 15.92,15.92 0 0 0 -2.87,-2.14 l 3.44,-5.32 4,6 v 8.47 A 20.15,20.15 0 0 0 82.95,129 17.16,17.16 0 0 0 81.34,126.81 V 123 Z M 81.33,117 v -12.69 a 1.56,1.56 0 0 1 1.67,-1.41 2,2 0 0 1 1.25,0.44 1.28,1.28 0 0 1 0.49,1 v 17.84 z m 3.39,-14.7 a 3.12,3.12 0 0 0 -1.73,-0.52 2.92,2.92 0 0 0 -2.22,1 2.7,2.7 0 0 0 -2.09,-1 2.74,2.74 0 0 0 -1.44,0.41 L 81,91.87 Z M 81.48,89.93 V 39.59 c 1.07,-0.47 2.16,-0.92 3.25,-1.35 V 98.92 Z M 80.33,90.25 77.17,99 V 41.66 c 1,-0.54 2.1,-1.06 3.16,-1.55 z m -1.65,12.65 a 1.49,1.49 0 0 1 1.51,1.41 V 117 l -3,4.66 v -17.38 a 1.51,1.51 0 0 1 1.49,-1.38 z m -7.52,79.82 V 184 l -0.14,0.23 v -5.83 c 0.07,-1 0.12,-2.2 0.17,-3.36 l 0.17,0.17 0.17,0.21 a 1,1 0 0 1 0.23,0.6 17.55,17.55 0 0 0 -0.57,3.37 c -0.07,0.98 -0.03,2.3 -0.03,3.33 z m -4,-0.4 -0.5,-0.14 -0.37,-0.11 L 66,179 l 3.66,0.62 c 0,0.17 0,0.32 -0.06,0.43 v 0.2 l -2.67,-0.47 z M 63,181.11 a 35.87,35.87 0 0 1 -3.88,-1.3 3.62,3.62 0 0 0 -1.3,-0.38 c 0,-0.17 -0.09,-0.33 -0.12,-0.48 1.9,0.46 6,1.49 7.33,1.81 l 0.08,0.94 c -0.46,-0.12 -1.24,-0.33 -2.11,-0.59 z m 0.58,1.36 v 4.64 h -2 v -5.21 z m -3.12,-0.95 v 5.58 h -2 v -6.33 l 0.16,0.07 c 0.5,0.23 1.14,0.46 1.83,0.69 z m -4,-6 a 4.38,4.38 0 0 0 -1.07,-0.28 V 137.9 a 1.59,1.59 0 0 1 0.69,-1.25 2.91,2.91 0 0 1 1.28,-0.53 v 39.8 z m 0.91,7 V 185 L 57,183.89 Z m -1.47,1.48 0.63,2.37 a 3.93,3.93 0 0 1 -1.63,-1 2.88,2.88 0 0 1 -0.73,-2.12 v -0.11 a 15.11,15.11 0 0 1 0.39,-2.49 c 0.18,-0.83 0.36,-1.49 0.36,-1.49 a 0.55,0.55 0 0 0 0,-0.35 c 0,0 -0.09,-0.25 -0.18,-0.61 a 4.84,4.84 0 0 1 -0.18,-1.13 0.77,0.77 0 0 1 0,-0.33 c 0.24,-0.36 0.25,-0.36 0.51,-0.38 a 2.79,2.79 0 0 1 0.9,0.23 l 0.65,0.26 a 3.93,3.93 0 0 0 -0.2,1.27 6,6 0 0 0 0.33,1.85 1.77,1.77 0 0 0 -0.15,0.39 c -0.16,0.6 -0.75,3.39 -0.75,3.4 A 0.55,0.55 0 0 0 55.9,184 Z m -2.14,-5 a 22.27,22.27 0 0 0 -0.74,4.09 v 0.14 a 4,4 0 0 0 1.07,2.93 5.39,5.39 0 0 0 1.17,0.9 h -2.57 v -51 a 1.79,1.79 0 0 1 1.52,1.74 v 37.62 a 1.89,1.89 0 0 0 -0.6,0.67 1.76,1.76 0 0 0 -0.21,0.92 7.09,7.09 0 0 0 0.37,2.04 z m 1.82,-43.48 a 15.45,15.45 0 0 1 3.6,-6.89 15.12,15.12 0 0 1 3,-2.62 9,9 0 0 0 -0.91,2.16 29,29 0 0 0 -0.82,7.51 4.26,4.26 0 0 0 -2.54,-0.83 4.34,4.34 0 0 0 -2.32,0.72 z m 25.81,12.11 -1,0.81 -1.05,-0.81 z m -1.07,-1.15 v -8.58 a 1.66,1.66 0 0 1 0.66,-1.26 2.56,2.56 0 0 1 1.07,-0.51 v 10.41 z m -0.46,2.33 -1.8,1.39 -1.77,-1.36 1.53,-1.21 h 0.51 z m -2.66,21.83 v -8.86 c 0.37,0 0.75,-0.1 1.09,-0.15 a 3.43,3.43 0 0 0 0.89,-0.24 v 23.44 c -0.66,-0.13 -1.33,-0.27 -1.88,-0.43 h -0.09 v -6.6 a 18.84,18.84 0 0 0 1.07,-4.19 4.42,4.42 0 0 0 -1.08,-2.97 z m 1.47,-10.29 a 10.76,10.76 0 0 1 -1.85,0.3 l -1,0.09 -0.64,-1.66 c 0,-0.12 0.09,-0.41 0.57,-0.71 a 11.38,11.38 0 0 1 2.36,-1 1,1 0 0 1 0.27,0 0.65,0.65 0 0 1 0.38,0.1 l -0.12,0.07 c -0.39,0.2 -0.76,0.33 -1.09,0.46 a 2.15,2.15 0 0 0 -0.47,0.24 0.81,0.81 0 0 0 -0.38,0.67 0.78,0.78 0 0 0 0,0.2 0.73,0.73 0 0 0 0.36,0.45 0.87,0.87 0 0 0 0.43,0.1 4.84,4.84 0 0 0 1.64,-0.53 10.51,10.51 0 0 1 2.3,-0.85 v 0.06 a 0.68,0.68 0 0 1 -0.23,0.4 10.34,10.34 0 0 1 -1.34,0.88 c -0.52,0.38 -1.07,0.67 -1.19,0.73 z m -6.4,19.08 a 8,8 0 0 1 0.44,-2.52 l 1,0.25 -1.24,6.61 h -0.22 v -1 c 0.06,-1.1 0.02,-2.44 0.02,-3.34 z M 63,150.5 l 0.46,-0.22 c 0.18,-0.08 0.39,-0.17 0.59,-0.24 a 6.54,6.54 0 0 0 0.38,0.72 3.21,3.21 0 0 0 1.92,1.59 5.74,5.74 0 0 0 1.17,0.12 9.15,9.15 0 0 0 1.74,-0.19 c 0.17,0.19 0.43,0.49 0.72,0.87 a 6.82,6.82 0 0 1 0.93,3.63 l -2.08,0.88 -0.08,-0.08 c -0.82,-0.82 -1.74,-2 -3.7,-4.4 l -0.89,0.73 1.61,2 -3.52,2.59 c -0.16,-0.4 -0.28,-0.69 -0.33,-0.81 a 9.71,9.71 0 0 1 -0.41,-1.33 10.13,10.13 0 0 1 -0.33,-2.31 2.6,2.6 0 0 1 0.27,-1.32 c 0.81,-1.19 1.4,-1.97 1.55,-2.23 z m -1.45,0 v -2.39 a 2.47,2.47 0 0 0 0.41,0.28 3.7,3.7 0 0 0 1.75,0.42 h 0.12 v 0.08 a 9.33,9.33 0 0 0 -1.49,0.64 0.65,0.65 0 0 0 -0.18,0.15 c 0,0 -0.16,0.32 -0.56,0.85 z m 5.29,-0.64 a 6.86,6.86 0 0 0 1.56,0.15 h 0.68 L 69,151.18 h -0.16 a 7.62,7.62 0 0 1 -1.26,0.12 4.59,4.59 0 0 1 -0.93,-0.09 2.15,2.15 0 0 1 -1.18,-1.07 5.64,5.64 0 0 1 -0.36,-0.7 c 0,-0.09 -0.07,-0.16 -0.08,-0.21 v -0.08 a 7.56,7.56 0 0 0 1.86,0.74 z m -1.07,-1.59 a 2.87,2.87 0 0 0 0.75,-0.61 l 0.25,0.68 0.13,0.35 a 6.87,6.87 0 0 1 -1.09,-0.38 z m 10.24,-1.77 h -2 v -8.6 a 1.6,1.6 0 0 1 0.69,-1.25 2.9,2.9 0 0 1 1.28,-0.53 z m 0.83,1.15 -1.06,0.84 -1.09,-0.84 z m -1.54,1.21 -1.27,1 v -2 z m 0.48,0.37 1.76,1.35 -1.79,1.42 -1.67,-1.28 v -0.11 z m -0.55,3.13 -1.2,0.92 v -1.84 z m 0.48,0.37 1.8,1.39 -1.92,1.47 -1.55,-1.2 v -0.37 z m -1,4.93 a 3.67,3.67 0 0 1 -0.27,-0.46 l 1.14,-0.88 0.64,0.49 a 9,9 0 0 0 -1.12,0.56 2.47,2.47 0 0 0 -0.32,0.33 z m 1.27,4.25 v 7.4 l -2,-2.24 v -4.37 z m -0.89,-6 -0.89,0.69 a 4.1,4.1 0 0 1 -0.19,-1.25 v -0.27 z m -1,3.65 -4.08,1.44 0.36,-1.06 3.52,-0.92 z M 72.36,148 a 1.52,1.52 0 0 1 -0.13,-0.37 2.85,2.85 0 0 1 0,-0.54 2.57,2.57 0 0 1 0,-0.43 1,1 0 0 1 0,-0.14 5.74,5.74 0 0 1 0.48,-0.58 l 0.12,-0.12 v 12.3 l -0.56,0.15 -0.15,-1.27 v -0.14 A 8,8 0 0 0 71,152.48 v -2.55 h 0.09 a 2.58,2.58 0 0 0 0.76,-0.09 1.07,1.07 0 0 0 0.75,-0.78 1.43,1.43 0 0 0 0,-0.34 1.46,1.46 0 0 0 -0.16,-0.63 z m -1.17,10.54 -1.11,0.29 -0.38,-0.38 1.36,-0.57 z m 1.67,-14.41 -0.2,-0.44 c -0.06,-0.12 -0.1,-0.24 -0.13,-0.32 v -0.07 a 4.5,4.5 0 0 0 0.18,-0.89 1.28,1.28 0 0 0 -0.25,-0.75 c -0.17,-0.25 -0.41,-0.55 -0.6,-0.78 a 2.58,2.58 0 0 0 0.42,-1.42 2.07,2.07 0 0 0 -0.84,-1.77 3.81,3.81 0 0 0 -0.53,-0.29 v -1.37 a 2.9,2.9 0 0 1 1.28,0.53 1.6,1.6 0 0 1 0.69,1.25 z m -1.36,-1.81 v 0.09 c 0,0 -0.09,0.31 -0.17,0.75 a 0.57,0.57 0 0 0 0,0.1 1.09,1.09 0 0 0 -0.82,1 3.15,3.15 0 0 1 1.07,-0.14 l 0.37,0.81 v 0.06 l -0.12,0.12 -0.07,0.08 -0.91,0.44 a 1.41,1.41 0 0 1 0.16,0.62 c 0,0.32 -0.12,0.68 -0.75,1.17 l 0.7,0.91 0.19,-0.16 c 0,0.11 0.08,0.2 0.11,0.26 0.03,0.06 0.06,0.14 0.06,0.16 a 1.54,1.54 0 0 1 -0.4,0 h -0.46 c -0.2,0 -0.43,0 -1.7,0.1 h -0.35 a 3.51,3.51 0 0 1 -0.37,-0.3 12.33,12.33 0 0 1 -0.47,-1.21 6.31,6.31 0 0 0 1.44,-1 c 1.4,-1.3 1.71,-3.45 2,-4.54 0.26,0.36 0.44,0.58 0.56,0.76 z M 63.71,162 a 17.85,17.85 0 0 0 2.55,1.73 h -1.92 v -0.09 L 63.67,162 Z m -0.87,-2.51 3.72,-2.75 0.5,0.59 -3.22,3.17 z m 2.81,2.51 c -0.42,-0.27 -0.79,-0.52 -1,-0.69 l 3.18,-3.12 0.17,0.17 0.33,0.33 z m 3.5,-2.5 0.19,0.18 -1.28,3.79 -1.21,-0.72 -0.22,-0.13 z m -7.55,0.27 0.56,1.47 1.06,2.76 a 4.44,4.44 0 0 1 0,0.57 1.82,1.82 0 0 1 -0.12,0.76 11.69,11.69 0 0 0 -1.1,5.6 2.39,2.39 0 0 0 0.59,1.79 1.47,1.47 0 0 0 0.63,0.36 c 0,0.18 0.07,0.43 0.14,0.79 a 22.21,22.21 0 0 0 1,3.06 6.59,6.59 0 0 0 -1.86,-0.57 5.44,5.44 0 0 0 -0.72,0 H 61.6 Z m 1.59,9.67 c 0.86,-0.17 2.85,-0.56 4.08,-0.88 1,-0.27 2.34,-0.67 3.12,-0.92 0,0.22 0.06,0.45 0.08,0.67 -0.8,0.24 -2.54,0.76 -3.58,1 -1.04,0.24 -2.82,0.59 -3.74,0.76 0.01,-0.17 0.02,-0.38 0.04,-0.59 z m 3.79,-2 c -1,0.27 -2.65,0.6 -3.62,0.79 a 8,8 0 0 1 0.78,-2.35 2.43,2.43 0 0 0 0.25,-1 h 3.83 l 0.19,0.11 0.54,0.34 a 4,4 0 0 1 1.08,1 1,1 0 0 1 0.1,0.2 c -0.75,0.26 -2.13,0.69 -3.13,0.95 z m 2.31,-4 0.33,-1 5,-1.74 0.19,0.5 z m 3.32,-0.11 0.33,-0.13 v 2.46 a 1.94,1.94 0 0 1 -0.33,-0.69 z m 0.8,4.74 2.47,2.8 -0.79,0.63 -2.44,-2.89 z m 0.78,4.15 -0.61,0.48 -2.18,-2 a 1,1 0 0 0 0.1,-0.19 4.13,4.13 0 0 0 0.15,-1.17 h 0.07 z m -1.52,1.21 -0.86,0.68 c -0.18,-0.17 -0.38,-0.36 -0.62,-0.55 v -1.46 z m 2.21,4 1.15,0.27 c -0.16,0.49 -0.33,1 -0.51,1.47 -0.64,1.83 -1.28,3.51 -1.53,4.16 l -0.24,0.12 z m 1.18,3.64 v 2.84 a 3.35,3.35 0 0 0 -0.84,-0.59 c 0.2,-0.55 0.5,-1.32 0.83,-2.26 z m -3.23,-5.3 a 2.15,2.15 0 0 0 -0.29,-0.76 l 4.07,-3.23 a 3.39,3.39 0 0 1 0.32,0.65 l -3.48,2.7 3.15,0.8 -0.21,0.68 z m 3.17,-1.19 1.11,-0.86 a 7.41,7.41 0 0 1 -0.22,1.09 z m 4,-17 a 0.46,0.46 0 0 0 0,-0.06 1.26,1.26 0 0 0 -0.3,-0.74 l 0.63,-0.48 1.15,0.88 A 5.17,5.17 0 0 0 80,157.56 Z m -0.78,-1.16 a 2,2 0 0 0 -0.79,-0.17 2.08,2.08 0 0 0 -0.59,0.09 c -0.27,0.08 -0.58,0.18 -0.9,0.3 l -0.79,-0.61 1.85,-1.51 1.8,1.38 z m -1.22,-2.63 -1.8,-1.39 1.86,-1.4 1.8,1.38 z m 1.15,-7.25 h -2 v -10.43 a 2.91,2.91 0 0 1 1.28,0.54 1.59,1.59 0 0 1 0.69,1.25 z m -2.54,-11.63 a 4.21,4.21 0 0 0 -2.55,0.83 29.5,29.5 0 0 0 -0.79,-7.61 8.68,8.68 0 0 0 -0.92,-2.18 14.66,14.66 0 0 1 3.1,2.73 15.58,15.58 0 0 1 3.5,6.9 4.31,4.31 0 0 0 -2.31,-0.67 z m -3.71,0.81 a 4.23,4.23 0 0 0 -2.53,-0.81 4.62,4.62 0 0 0 -2.51,0.66 v -11.23 c 2.45,0.19 3.6,1.7 4.34,4.1 a 28.39,28.39 0 0 1 0.73,7.28 z m -3.11,0.37 v 1.12 a 4,4 0 0 0 -1.06,0.16 4.79,4.79 0 0 0 -0.8,-0.24 1.45,1.45 0 0 1 0.54,-0.6 3.15,3.15 0 0 1 1.35,-0.43 z m -1.33,2.41 0.2,0.09 0.21,-0.06 a 3.17,3.17 0 0 1 0.93,-0.17 1.81,1.81 0 0 1 1.06,0.38 0.78,0.78 0 0 1 0.29,0.51 7.3,7.3 0 0 0 -1.72,-0.17 h -0.52 v 1.15 h 0.47 a 5.78,5.78 0 0 1 1.49,0.16 1.24,1.24 0 0 1 -0.52,0.42 l -0.14,0.06 a 2.81,2.81 0 0 0 -0.77,-0.09 h -0.59 v 1.15 h 0.59 a 1.8,1.8 0 0 1 0.38,0 c -0.29,1.18 -0.68,2.75 -1.56,3.53 -0.88,0.78 -1.54,1 -1.81,1 h -0.52 l -0.18,0.34 a 1.73,1.73 0 0 1 -0.9,0.68 2.79,2.79 0 0 1 0.38,-1.35 l -1,-0.54 a 4,4 0 0 0 -0.52,1.89 v 0.27 a 3.18,3.18 0 0 1 -0.44,0 v -0.33 a 3.58,3.58 0 0 1 0.54,-2 l -0.94,-0.66 a 4.52,4.52 0 0 0 -0.74,2.42 1.76,1.76 0 0 1 -0.35,-1.12 2.67,2.67 0 0 1 0.61,-1.71 l 0.16,-0.17 v -0.23 -0.18 a 5.83,5.83 0 0 1 1.15,-4 4.69,4.69 0 0 1 3.3,-1.58 3.62,3.62 0 0 1 1.48,0.32 z m -6.88,3.1 v -3.72 a 1.6,1.6 0 0 1 0.69,-1.24 2.93,2.93 0 0 1 1.28,-0.54 v 2.14 a 6.16,6.16 0 0 0 -0.69,0.62 5.39,5.39 0 0 0 -1.26,2.74 z m 3.12,-4 v -1.5 a 3.14,3.14 0 0 1 1.31,0.44 1.52,1.52 0 0 1 0.51,0.53 5.53,5.53 0 0 0 -1.8,0.5 z m 2,-2 a 4.62,4.62 0 0 0 -2.51,-0.66 4.23,4.23 0 0 0 -2.53,0.81 27.86,27.86 0 0 1 0.77,-7.18 c 0.74,-2.38 1.9,-3.92 4.31,-4.18 z m -6.24,21 v 19.8 a 8.07,8.07 0 0 1 -1.12,0.11 2,2 0 0 1 -0.69,-0.1 l -0.16,-0.06 v -40.24 a 2.89,2.89 0 0 1 1.28,0.53 1.59,1.59 0 0 1 0.69,1.25 v 14.39 a 3.86,3.86 0 0 0 -0.36,1.75 11.3,11.3 0 0 0 0.35,2.6 z m -2.73,20.69 0.53,0.19 a 3.22,3.22 0 0 0 1.07,0.17 c 0.84,0 1.6,-0.21 2.39,-0.21 a 4.42,4.42 0 0 1 0.57,0 5.51,5.51 0 0 1 2,0.71 5.06,5.06 0 0 1 0.57,0.37 l 0.08,1 c -1.7,-0.42 -5.71,-1.42 -7.29,-1.8 a 2.74,2.74 0 0 1 0.08,-0.4 z m 8.73,0.63 -0.58,-0.1 c -0.13,-0.32 -0.34,-0.88 -0.58,-1.52 a 19.72,19.72 0 0 1 -0.83,-2.66 l -0.12,-0.67 0.92,-0.2 z m -0.06,-5.41 1,-0.24 0.29,-0.07 0.56,6 -0.53,-0.09 z m -1.68,10.25 0.51,0.14 0.3,0.11 c 0.28,0.1 0.69,0.23 1.15,0.36 v 3.72 h -2 z m 4.66,-1.37 a 3.58,3.58 0 0 1 -0.11,0.43 1.15,1.15 0 0 1 -0.5,0.64 0.9,0.9 0 0 1 -0.31,0 h -0.12 l -0.12,-1.3 z m -1.54,2.2 a 4.59,4.59 0 0 0 0.62,0 1.63,1.63 0 0 0 1,-0.26 2.55,2.55 0 0 0 0.37,-0.32 v 4 h -2 z m 2,-5.11 -0.42,-0.07 -0.6,-6.54 c 0.4,-0.12 0.78,-0.24 1.11,-0.35 l 0.19,-0.07 c 0,0.78 0,2 -0.09,3.24 -0.09,1.24 -0.15,2.75 -0.22,3.83 z m -0.69,-7.91 c -2,0.66 -5.33,1.35 -5.51,1.38 a 0.33,0.33 0 0 1 -0.23,-0.09 1,1 0 0 1 -0.22,-0.61 c 0.82,-0.15 2.86,-0.55 4,-0.82 1,-0.24 2.45,-0.67 3.34,-0.94 a 3.7,3.7 0 0 1 -0.06,0.53 6.21,6.21 0 0 1 -1.35,0.59 z m 0.89,-6.21 1.45,-0.59 v 0.59 z m 1.57,1.15 a 5.28,5.28 0 0 0 0.74,1.23 l 0.34,0.43 -1.08,0.77 a 6.12,6.12 0 0 0 -0.54,-2.2 2.38,2.38 0 0 0 -0.17,-0.23 z m 0.33,19.34 a 2.84,2.84 0 0 0 0.49,0 4.44,4.44 0 0 0 2,-0.55 0.66,0.66 0 0 0 0.22,-0.05 h 0.11 a 2.34,2.34 0 0 1 0.52,0.39 4.35,4.35 0 0 0 1.69,0.75 39.73,39.73 0 0 0 4.73,0.9 c -0.06,0.19 -0.05,0.18 -0.16,0.24 a 2.62,2.62 0 0 1 -1,0.15 c -0.38,0 -0.8,0 -1.23,-0.05 a 30.35,30.35 0 0 1 -3.57,-0.3 1.86,1.86 0 0 0 -0.43,0 37.84,37.84 0 0 0 -3.79,0.41 c -0.07,0 -0.17,0 -0.21,-0.4 a 0.49,0.49 0 0 1 0,-0.08 3.32,3.32 0 0 1 0.6,-1.38 z m 8.41,0.14 v -24.24 l 0.19,-0.12 a 9.9,9.9 0 0 0 1.55,-1 v 25.69 C 81.67,185.24 81,185.15 80.32,185 Z m 1.51,-28.3 -1.05,-0.81 1.3,-1 v 0.52 a 3.43,3.43 0 0 1 -0.28,1.32 z m -1.53,-1.18 -1.8,-1.38 1.84,-1.42 1.74,1.34 v 0.1 z m 0.52,-3.17 1.26,-1 v 1.93 z m -0.48,-0.37 -1.8,-1.39 1.8,-1.39 1.73,1.33 v 0.1 z m 0.48,-3.14 1.25,-1 v 1.93 z m -23.31,-27.27 -3,-4.59 v -12.66 a 1.43,1.43 0 0 1 1.46,-1.41 1.67,1.67 0 0 1 1.1,0.43 1.33,1.33 0 0 1 0.46,1 z m 0,-22.6 -3.16,-8.74 V 59 q 1.54,-1.65 3.16,-3.22 z m 0,3.24 a 2.86,2.86 0 0 0 -1.52,-0.45 2.63,2.63 0 0 0 -2.05,1 3,3 0 0 0 -2.24,-1 3.34,3.34 0 0 0 -1.71,0.48 l 3.77,-10.42 z m -4.31,-12.37 -3.37,9.32 v -34.9 q 1.62,-2.07 3.37,-4 z m -2.86,13.52 a 2.1,2.1 0 0 1 1.3,-0.45 1.58,1.58 0 0 1 1.7,1.41 V 117 l -3.51,5.42 v -18.11 a 1.26,1.26 0 0 1 0.51,-0.96 z m 3.63,14.84 3.46,5.27 a 15.86,15.86 0 0 0 -2.89,2.13 v -2.72 h -1.2 v 3.89 a 17.41,17.41 0 0 0 -1.67,2.24 20.54,20.54 0 0 0 -1.84,3.78 v -8.28 z m -2.41,17.9 v 51 h -1.73 v -49.3 a 1.71,1.71 0 0 1 1.69,-1.69 z m 32.31,51.5 V 177.3 l 1.31,-2.38 v 13.85 z m 31,29.66 a 101.8,101.8 0 0 1 -65.79,-24 h 4.43 l 3.2,2.75 h 20.81 l 3,-2.69 h 4.64 a 83.86,83.86 0 0 0 59.43,0 h 4.61 l 2.93,2.69 h 20.52 l 3.22,-2.69 h 4.79 a 101.79,101.79 0 0 1 -65.82,23.95 z m 42.03,-147.3 2.07,3.22 v 11.41 h -1.53 V 75.1 l 0.54,-0.86 -1.11,-1.78 -1.11,1.78 0.54,0.85 v 9.49 h -2 V 73.83 Z m -2.61,1.83 V 42.59 c 0.69,0.38 1.37,0.76 2,1.15 v 25 z m 16.12,2.3 v 10.5 h -2.2 V 75.1 l 0.54,-0.86 -1.11,-1.78 -1.11,1.78 0.54,0.86 v 9.48 h -1.53 V 73.17 L 167.68,70 Z m -2.2,-5.34 V 52.15 c 0.75,0.63 1.47,1.28 2.2,1.94 V 72 Z m -2,50.35 v 2.25 a 22.7,22.7 0 0 0 -3.06,-0.29 V 121 l 3.59,-5.47 3.67,5.59 v 1.47 a 17.76,17.76 0 0 0 -3.05,-1 v -2.48 z m -3.06,-0.21 v -15.37 a 1.73,1.73 0 0 1 1.35,-0.61 1.55,1.55 0 0 1 1.66,1.4 v 10 z m 4.17,-4.59 v -10 a 1.43,1.43 0 0 1 1.45,-1.4 1.84,1.84 0 0 1 1.16,0.44 1.35,1.35 0 0 1 0.47,0.78 V 119 Z m 1.45,-12.53 a 2.62,2.62 0 0 0 -2,1 2.92,2.92 0 0 0 -2.21,-1 3,3 0 0 0 -1.35,0.33 v -0.23 l 3.61,-10 3.64,10.07 v 0.37 a 3,3 0 0 0 -1.69,-0.55 z m -2,-13.3 -3.61,10 V 85.73 h 7.25 v 12.8 z m 0.3,-31.1 -2.1,-3.21 -2.11,3.21 V 48 q 2.16,1.55 4.22,3.23 z m -2.1,-1.12 2.11,3.21 v 9.29 l -1.53,2.33 v -8 h 1 v -1.16 h -1 v -2.22 h -1.15 v 2.21 h -1 v 1.15 h 1 v 8 l -1.54,-2.33 v -9.27 z m -0.57,16.93 v 11.41 h -1.54 V 75.1 l 0.54,-0.86 -1.11,-1.78 -1.11,1.78 0.54,0.86 v 9.48 H 160.2 V 73.17 L 162.31,70 Z m -2.68,-15.81 -2.11,-3.21 -2.11,3.21 V 44.42 q 2.15,1.3 4.22,2.73 z m -2.11,-1.12 2.11,3.21 v 9.29 l -1.54,2.34 v -8 h 1.1 v -1.17 h -1.1 V 59.69 H 159 v 2.21 h -1 v 1.15 h 1 v 8 l -1.53,-2.33 v -9.27 z m 1.81,29.49 v 12.55 l -3.52,-9.73 -3.59,9.93 V 85.73 Z m -3.52,6.19 3.52,9.73 v 0.43 a 3,3 0 0 0 -1.35,-0.33 2.92,2.92 0 0 0 -2.21,1 2.62,2.62 0 0 0 -2,-1 2.68,2.68 0 0 0 -1.49,0.47 v -0.36 z m 3.52,11.59 v 15.36 l -3,-4.59 v -10 a 1.55,1.55 0 0 1 1.66,-1.4 1.75,1.75 0 0 1 1.32,0.63 z m -7.11,0.8 a 1.48,1.48 0 0 1 1.49,-1.41 1.43,1.43 0 0 1 1.45,1.41 v 10 l -2.94,4.49 z m 3.52,11.18 3.59,5.47 V 121 a 22.77,22.77 0 0 0 -3,0.29 v -2.23 h -1.15 v 2.45 a 18.47,18.47 0 0 0 -3,0.95 v -1.66 z m 4.55,6.67 c 7.93,0 12.2,3.68 14.6,7.52 a 19.78,19.78 0 0 1 2.34,5.55 3.85,3.85 0 0 0 -1.6,-0.32 3.67,3.67 0 0 0 -2.42,0.84 16.38,16.38 0 0 0 -3.94,-7.83 14.17,14.17 0 0 0 -6.82,-4.43 7.23,7.23 0 0 0 -2.21,-0.31 h -0.66 c -3.11,0.22 -6.07,2.13 -8.32,4.72 a 16.54,16.54 0 0 0 -3.83,7.85 3.55,3.55 0 0 0 -2.32,-0.86 3.78,3.78 0 0 0 -1.83,0.49 19.56,19.56 0 0 1 2.37,-5.76 c 2.33,-3.79 6.6,-7.44 14.62,-7.46 z m 6.55,71.7 v -1.17 h 1.14 v -1.15 h 1.17 v 1.15 h 1.14 v 1.17 h -1.14 V 195 h -1.17 v -1.14 z m -23.96,-3.24 2,-1.75 h 32.8 v 1.75 z m 18.35,3.24 v -1.17 h 1.14 v -1.15 h 1.17 v 1.15 h 1.14 v 1.17 h -1.1 V 195 h -1.17 v -1.14 z m -5.56,0 v -1.17 H 159 v -1.15 h 1.17 v 1.15 h 1.14 v 1.17 h -1.14 V 195 H 159 v -1.14 z m -5.55,0 v -1.17 h 1.14 v -1.15 h 1.17 v 1.15 h 1.14 v 1.17 H 154.6 V 195 h -1.17 v -1.14 z m 3.29,-53 v 7.75 a 3.37,3.37 0 0 1 -1.63,3.12 l -0.11,-0.08 a 16.43,16.43 0 0 0 -2.63,-1.12 2.06,2.06 0 0 0 -0.72,-0.14 1.35,1.35 0 0 0 -1.41,1.23 h -0.06 l -0.27,-0.13 a 3.46,3.46 0 0 1 -1.18,-2.85 v -7.75 z m -8,-1.15 v -3.61 a 2,2 0 0 1 1.77,1.8 v 1.81 z m 29,39.65 a 1.25,1.25 0 0 0 -0.64,-0.44 l -0.45,-0.17 V 137.9 a 1.82,1.82 0 0 1 1.7,-1.78 v 51 h -1.7 v -3.26 l 0.83,-1.58 a 4.38,4.38 0 0 0 0.55,-1.92 1.65,1.65 0 0 0 -0.28,-1 z m -0.92,0.69 a 0.61,0.61 0 0 1 0.07,0.32 3.29,3.29 0 0 1 -0.41,1.38 l -2.54,4.8 h -4.58 a 0.57,0.57 0 0 1 0.1,-0.21 3,3 0 0 1 1.14,-0.64 c 0.53,-0.2 1,-0.32 1,-0.33 l 0.25,-0.07 1.77,-3.53 c 0.18,-0.15 0.64,-0.52 1.17,-0.89 a 4.73,4.73 0 0 1 1.82,-0.9 c 0.2,0.02 0.19,0.02 0.22,0.02 z m -1.32,6 v 1.09 h -0.57 z m -7.19,1.09 h -1 v -6.64 l 2,0.5 v 4 a 2.39,2.39 0 0 0 -0.76,0.65 1.61,1.61 0 0 0 -0.3,0.91 1.29,1.29 0 0 0 0.07,0.55 z m -2.49,-8.17 0.39,-1.07 7.21,2.6 -0.38,0.3 z M 160.08,176 a 3,3 0 0 1 0,-0.3 v -0.33 l 4.38,0.44 -1,2.83 -0.72,-0.18 h -0.19 l 0.69,-2.07 z m 0.31,9.76 V 185.4 A 7.89,7.89 0 0 0 160.22,183.79 7.24,7.24 0 0 1 160,182 v -1.18 c 0,-0.78 0,-1.48 -0.09,-2.1 l 0.26,0.17 a 6.64,6.64 0 0 0 1.57,0.58 v 7.66 H 160 a 2.23,2.23 0 0 0 0.36,-1.27 z m -11.22,1.33 h -1.6 V 154 c 0.3,0.21 0.65,0.43 1,0.65 l 0.76,0.46 V 185 a 0.57,0.57 0 0 0 -0.65,0.44 1.46,1.46 0 0 0 0,0.33 2,2 0 0 0 0.49,1.34 z m 0,-33.46 a 11.09,11.09 0 0 1 -1.36,-0.93 0.53,0.53 0 0 1 -0.2,-0.35 0.25,0.25 0 0 1 0,-0.11 5.2,5.2 0 0 1 0.87,0.35 c 0.48,0.23 1,0.51 1.38,0.69 a 4.33,4.33 0 0 0 1.53,0.48 0.89,0.89 0 0 0 0.44,-0.11 0.76,0.76 0 0 0 0.36,-0.47 0.91,0.91 0 0 0 0,-0.15 0.8,0.8 0 0 0 -0.4,-0.68 c -0.46,-0.27 -1,-0.35 -1.57,-0.65 h -0.06 c 0,0 0,-0.1 0.26,-0.11 a 1,1 0 0 1 0.33,0.07 16.52,16.52 0 0 1 2.42,1 1.05,1.05 0 0 1 0.56,0.72 l -0.54,1.22 -1.19,-0.1 -1.16,-0.08 h -0.44 c -0.22,-0.16 -0.7,-0.42 -1.22,-0.77 z m 10.75,1.2 -0.26,0.72 -4.85,-1.68 0.14,-0.32 z M 155,152.4 a 4.8,4.8 0 0 0 0.59,-0.56 v 0.71 z m 0.59,-12.69 h -2 v -3.6 a 2.91,2.91 0 0 1 1.28,0.54 1.59,1.59 0 0 1 0.69,1.25 z m 3.11,6.22 v 7.42 l -2,-0.51 V 137.9 a 1.59,1.59 0 0 1 0.69,-1.25 2.85,2.85 0 0 1 1.27,-0.53 v 5.62 a 2.47,2.47 0 0 0 -0.58,0.45 2.27,2.27 0 0 0 -0.55,1.54 3.07,3.07 0 0 0 1.16,2.2 z m 1.94,-4.86 v 0.14 h -0.06 a 2.75,2.75 0 0 0 -0.56,0.06 h -0.14 v -0.67 a 8,8 0 0 0 0.75,0.47 z m -0.79,-1.62 v -3.35 a 3.07,3.07 0 0 1 1.79,0.82 l -0.18,0.14 a 2.19,2.19 0 0 0 -0.59,0.57 c -0.45,0.66 -0.67,1.31 -1.03,1.82 z m 0.36,2.94 a 1.88,1.88 0 0 1 0.34,0 1.29,1.29 0 0 1 0.87,0.37 2.67,2.67 0 0 0 1.43,0.7 h 0.22 a 2.51,2.51 0 0 0 1.74,-0.83 2.05,2.05 0 0 0 0.83,0.48 c -1.23,2.28 -2.54,2.57 -3.74,2.6 h -0.31 a 4.91,4.91 0 0 1 0.46,-0.54 l -0.83,-0.79 a 6.91,6.91 0 0 0 -0.91,1.18 2.07,2.07 0 0 1 -0.58,-0.24 l 0.14,-0.19 a 10.67,10.67 0 0 1 0.89,-1.07 l -0.81,-0.81 a 11.51,11.51 0 0 0 -1,1.23 1.45,1.45 0 0 1 -0.21,-0.68 1.11,1.11 0 0 1 0.26,-0.78 2.11,2.11 0 0 1 1.2,-0.63 z m 8.89,-4.11 a 2.18,2.18 0 0 1 0.76,1 4.24,4.24 0 0 1 0.44,1.76 2.75,2.75 0 0 1 -0.05,0.5 4.85,4.85 0 0 1 -0.54,-1.15 l -1.1,0.33 a 6.41,6.41 0 0 0 0.94,1.83 2.68,2.68 0 0 1 -0.34,0.17 5.78,5.78 0 0 1 -1,-1.8 l -1.11,0.31 a 6,6 0 0 0 0.72,1.57 2.45,2.45 0 0 1 -0.55,-0.25 2.54,2.54 0 0 1 -0.33,-0.24 l -0.1,-0.09 -0.21,-0.22 h -0.46 c -0.43,0 -0.79,-0.25 -1,-0.88 a 0.71,0.71 0 0 1 0,-0.18 c 0,-0.4 0.43,-0.95 0.76,-1.66 l 0.2,-0.49 -0.46,-0.24 a 13.53,13.53 0 0 1 -1.6,-0.79 1.59,1.59 0 0 1 -0.85,-1.35 0.24,0.24 0 0 1 0,-0.1 1.18,1.18 0 0 1 0.39,-0.49 3,3 0 0 1 1.17,-0.55 6.79,6.79 0 0 1 1.51,-0.18 2.93,2.93 0 0 1 2.14,0.73 1.28,1.28 0 0 1 0.45,0.94 4.87,4.87 0 0 1 -0.17,0.9 l -0.07,0.43 z m 1,-1.77 a 2.78,2.78 0 0 1 1.11,-0.41 v 3.41 a 5.67,5.67 0 0 0 -0.31,-0.78 3.82,3.82 0 0 0 -0.9,-1.22 3.29,3.29 0 0 0 0.1,-0.75 1.65,1.65 0 0 0 -0.04,-0.25 z m -11.2,44.29 v 1.18 a 8.29,8.29 0 0 0 0.21,2.06 v 0.26 l -0.38,-0.23 -2.84,-11.07 1.11,-0.43 0.88,2.35 a 14.93,14.93 0 0 1 1.02,5.88 z m -0.82,-8.68 0.62,-0.26 v 1.88 z m -4.56,1.76 1.29,-0.5 2.56,9.89 -0.52,-0.3 z m 2.18,9.29 a 13.36,13.36 0 0 1 -2.1,1.31 v -7 z m -3.4,-9.28 0.16,0.43 v 10.61 a 7,7 0 0 1 -1.68,0.2 h -0.28 v -29.58 c 0.42,0 1,0.08 1.59,0.11 h 0.38 v 12.59 a 4.18,4.18 0 0 0 -1.42,3 3.48,3.48 0 0 0 1.25,2.64 z m -0.14,-2.49 a 0.6,0.6 0 0 1 0,-0.09 2.39,2.39 0 0 1 0.39,-1.33 l 1,0.82 z m 3.66,-0.29 -2.56,-2 c 0.17,-0.18 0.37,-0.37 0.59,-0.56 0.51,0.43 1.62,1.38 2.16,1.92 a 3.86,3.86 0 0 1 0.69,0.95 h -0.1 l -3.7,1.44 a 2.62,2.62 0 0 1 -0.34,-0.41 z m 1,-5.1 a 19.27,19.27 0 0 1 3.16,-2.11 l 0.59,-0.31 -0.11,0.87 -5.28,3.72 -0.49,-0.42 z m -0.13,-1.36 v -7.09 l 2,0.81 v 5 a 20.72,20.72 0 0 0 -1.96,1.28 z m 11.15,-19.65 0.39,0.69 0.07,0.06 -4.4,1.4 a 1.27,1.27 0 0 0 -0.15,-0.41 z m -1.69,-0.52 a 7.89,7.89 0 0 0 0.56,-0.95 4.09,4.09 0 0 0 0.4,0.21 l 0.15,0.26 z m 0.35,11.82 1.17,-0.83 0.23,0.19 0.36,-0.34 c 0,0 0.26,-0.25 0.62,-0.64 -0.19,0.54 -0.35,1 -0.48,1.4 z m 1.5,1 c -0.12,0.37 -0.19,0.62 -0.23,0.76 l -4.18,0.39 0.07,-0.12 0.89,-0.62 z m -4.66,-0.16 -0.62,-0.85 2.84,-2.49 1.18,0.94 z m 4.81,2 c 0.1,0.16 0.22,0.35 0.34,0.56 0.12,0.21 0.23,0.4 0.33,0.62 l -6.72,0.63 0.16,-1.25 z m 1.06,2.29 v 0.1 c 0,0.16 0,0.32 0.05,0.48 l -7.4,0.74 0.08,-0.65 z m 0.2,1.73 0.07,0.61 -0.84,0.08 -7,0.66 0.07,-0.58 z m -0.19,4.36 c 0.38,-1.22 0.59,-2.09 0.7,-2.59 h 0.87 l -0.08,-0.62 c 0,0 -0.2,-1.57 -0.34,-2.86 a 8.2,8.2 0 0 0 -1.45,-3.19 c 0,-0.14 0.1,-0.34 0.19,-0.62 0.2,-0.64 0.55,-1.66 1.09,-3.19 a 18,18 0 0 0 0.81,-3.19 c 0.09,-0.59 0.15,-1.13 0.18,-1.6 v 27.27 c -0.33,-0.19 -0.71,-0.4 -1.11,-0.61 l -0.86,-0.43 z m 1.54,-20.76 a 13.15,13.15 0 0 0 -1.61,-1.8 l -0.55,-1 a 3.29,3.29 0 0 0 1.61,-0.54 2.56,2.56 0 0 0 1,-1.16 v 5.41 a 2.24,2.24 0 0 0 -0.46,-0.93 z m -1.54,-0.09 a 7.89,7.89 0 0 1 0.59,0.74 1.49,1.49 0 0 1 0.23,0.44 v 0.76 a 15.68,15.68 0 0 1 -0.19,2.36 7.12,7.12 0 0 1 -1.34,2.35 c -0.26,0.33 -0.52,0.61 -0.71,0.81 l -3.86,-3.13 1.57,-3.18 z m -5.22,1.65 -1.49,3 0.25,0.2 -0.35,0.35 c -0.07,-0.27 -0.14,-0.55 -0.19,-0.78 a 3.19,3.19 0 0 1 -0.06,-0.6 1.33,1.33 0 0 1 0.3,-0.89 c 0.21,-0.28 0.58,-0.63 1,-1.14 z m -0.34,3.93 1,0.79 -2.66,2.28 -0.6,-0.82 z m -1.86,-3.63 -0.26,0.31 a 2.51,2.51 0 0 0 -0.53,1.58 4.36,4.36 0 0 0 0.09,0.82 c 0.09,0.49 0.27,1.13 0.38,1.51 l -1,1 -0.66,-0.17 v -7.08 a 3.3,3.3 0 0 0 0.59,0.14 12,12 0 0 0 1.35,0.12 z m -0.93,7 1.67,2.27 a 1.54,1.54 0 0 1 -0.84,0.64 h -0.25 a 1.74,1.74 0 0 1 -1.16,-0.44 1.8,1.8 0 0 1 -0.24,-0.24 z m 0.23,4.06 -0.31,2.53 c -0.22,0.09 -0.54,0.25 -0.93,0.45 v -3.42 a 2.85,2.85 0 0 0 1.22,0.48 z m -4.45,9.73 -0.52,-0.48 4.59,-3.23 h 0.11 l -0.22,1.24 z m 4.07,3 0.54,-2.66 0.74,-4.2 1.36,-0.13 -2.15,8.86 -0.85,-0.08 z m 3.86,-7.11 1.58,-0.15 -3,9.31 -0.73,-0.07 z m 2.82,-0.26 1.33,-0.13 c 0,0.13 -0.07,0.27 -0.11,0.43 -0.2,0.79 -0.54,2 -1.08,3.53 a 43.34,43.34 0 0 1 -1.77,4.22 c -0.33,0.69 -0.61,1.24 -0.78,1.57 l -0.73,-0.07 z m 0.68,5.69 v 4.56 a 8.7,8.7 0 0 0 -1.61,-0.43 h -0.25 c 0.41,-0.86 1.16,-2.36 1.84,-4.07 z m -2.39,5.27 0.58,0.09 a 11.23,11.23 0 0 1 3.26,1.22 c 1,0.54 1.84,1.07 2.3,1.28 0.46,0.21 1.23,0.5 2,0.81 l -0.51,0.31 -8,-2.87 z m -6.42,-19.31 -0.22,0.61 -4.86,-2 0.15,-0.35 z m -3.7,0.44 v 8.49 c -0.75,0.62 -1.4,1.15 -2,1.64 v -10.97 z m -4.81,29.18 a 7,7 0 0 0 3,-0.6 14.29,14.29 0 0 0 2.66,-1.62 l 2.8,1.64 v 0.06 a 1.14,1.14 0 0 1 -0.17,0.63 c -0.17,0 -0.71,-0.12 -1.57,-0.12 h -0.67 c -1.92,0.14 -2.68,0.5 -3.91,0.5 h -0.31 c -1.59,-0.06 -2.18,-0.16 -2.5,-0.51 a 0.87,0.87 0 0 1 -0.12,-0.14 c 0.21,0.11 0.49,0.13 0.8,0.13 z m 8.4,-16 a 9.77,9.77 0 0 1 -1.32,0.65 h -0.07 a 5.43,5.43 0 0 0 -0.39,-0.67 l 2.92,-1.83 -0.18,1 a 3.33,3.33 0 0 1 -0.94,0.87 z m 1.07,6.87 1.47,0.16 -0.26,0.8 a 4.39,4.39 0 0 1 -0.68,-0.29 1.15,1.15 0 0 1 -0.52,-0.65 z m 4.68,3 v 6.9 h -2 v -7.4 z m 6.21,1.57 -1.27,2.54 c -0.17,0 -0.4,0.12 -0.66,0.21 v -3.2 z m 3.16,-3.49 c -0.78,-0.3 -1.61,-0.63 -2,-0.78 v -41.4 a 2.9,2.9 0 0 1 1.28,0.53 1.59,1.59 0 0 1 0.69,1.25 z m -2.54,-43.38 a 4.33,4.33 0 0 0 -2.1,0.51 3,3 0 0 0 -0.34,-0.4 l -0.11,-0.1 a 22.91,22.91 0 0 0 -1,-7.85 6.41,6.41 0 0 0 -0.33,-0.75 15.2,15.2 0 0 1 2.61,2.35 15.4,15.4 0 0 1 3.6,6.89 4.34,4.34 0 0 0 -2.31,-0.62 z m -3.72,-0.69 a 5,5 0 0 0 -1.7,-0.28 8,8 0 0 0 -1.76,0.21 4,4 0 0 0 -1.62,0.77 v -10.56 a 8.2,8.2 0 0 1 0.94,0.14 l 0.23,0.06 a 4.49,4.49 0 0 1 3,2.93 20.11,20.11 0 0 1 0.89,6.76 z m -4.57,4.52 a 7.7,7.7 0 0 0 1.17,0.61 3.18,3.18 0 0 0 -0.58,1.61 1.9,1.9 0 0 0 0.06,0.47 v 0.14 c -0.23,0.31 -0.71,0.74 -1.11,0.71 H 163 a 1.64,1.64 0 0 1 -0.85,-0.46 3.56,3.56 0 0 0 -0.4,-0.28 c 0,-0.21 0.07,-0.47 0.11,-0.73 a 0.58,0.58 0 0 0 -0.31,-0.58 l -0.6,-0.3 c 0.31,-0.48 0.5,-0.92 0.72,-1.3 v 0.92 c 0,0 0.22,0.21 0.71,0.24 a 1.79,1.79 0 0 0 0.77,-0.11 1.27,1.27 0 0 0 -0.34,-0.51 2.73,2.73 0 0 0 -1.08,-0.54 c 0.06,-0.1 0.12,-0.23 0.18,-0.32 a 1.11,1.11 0 0 1 0.32,-0.3 3.45,3.45 0 0 0 0.33,-0.27 3.2,3.2 0 0 0 0.91,1.03 z m -4.19,-3.83 a 4.26,4.26 0 0 0 -2.52,0.81 28.35,28.35 0 0 1 0.75,-7.28 c 0.73,-2.39 1.88,-3.89 4.3,-4.09 v 11.26 a 4.87,4.87 0 0 0 -2.51,-0.67 z m -2.9,-6.79 a 29.4,29.4 0 0 0 -0.79,7.62 4.23,4.23 0 0 0 -2.54,-0.83 4.29,4.29 0 0 0 -2.32,0.66 15.55,15.55 0 0 1 3.49,-6.9 14.62,14.62 0 0 1 3.09,-2.73 8.78,8.78 0 0 0 -0.91,2.21 z m -5.2,8.53 a 2.89,2.89 0 0 1 1.28,-0.53 v 3.6 h -2 v -1.79 a 1.59,1.59 0 0 1 0.74,-1.26 z m 27.12,50.47 v -51 a 1.91,1.91 0 0 1 1,0.46 1.59,1.59 0 0 1 0.46,0.89 v 49.65 z m -0.33,-58 a 17.91,17.91 0 0 0 -1.64,-2.24 v -4 h -1.15 v 2.77 a 16.18,16.18 0 0 0 -2.92,-2.19 l 3.46,-5.27 4.1,6.26 v 8.43 A 20.94,20.94 0 0 0 178,129.08 Z M 176.29,117 v -12.69 a 1.58,1.58 0 0 1 1.7,-1.4 2.13,2.13 0 0 1 1.31,0.45 1.27,1.27 0 0 1 0.51,0.91 v 18.1 z m 3.45,-14.71 a 3.34,3.34 0 0 0 -1.75,-0.51 3,3 0 0 0 -2.25,1 2.61,2.61 0 0 0 -2,-1 2.73,2.73 0 0 0 -1.47,0.43 L 176,91.83 Z M 176.59,90.18 V 60.3 q 1.67,1.88 3.22,3.87 v 34.9 z m -1.15,-0.21 -3.24,8.95 V 55.73 q 1.66,1.6 3.24,3.3 z m -1.74,13 a 1.43,1.43 0 0 1 1.45,1.4 V 117 l -2.94,4.48 v -17.3 a 1.5,1.5 0 0 1 1.48,-1.28 z m -24.22,1.41 a 1.43,1.43 0 0 1 1.45,-1.41 1.83,1.83 0 0 1 1.16,0.44 1.3,1.3 0 0 1 0.5,1 v 17.47 l -3.09,-4.8 v -12.77 z m 3.1,-5.23 -3.24,-9 v -50 q 1.64,0.76 3.24,1.59 z m -0.09,3.14 a 3,3 0 0 0 -1.56,-0.47 2.6,2.6 0 0 0 -2,1 2.93,2.93 0 0 0 -2.21,-1 3.15,3.15 0 0 0 -1.67,0.48 l 3.75,-10.37 z m -4.3,-12.16 -3.25,9 V 38.22 c 1.09,0.43 2.18,0.87 3.25,1.35 z m -2.77,13.29 a 2,2 0 0 1 1.25,-0.44 1.56,1.56 0 0 1 1.66,1.4 V 117 l -3.4,5.18 v -17.91 a 1.28,1.28 0 0 1 0.48,-0.93 z m 3.48,14.85 3.43,5.32 a 16,16 0 0 0 -2.82,2.11 V 123 h -1.15 v 3.78 a 16.83,16.83 0 0 0 -1.63,2.21 20.4,20.4 0 0 0 -1.81,3.74 v -8.52 z m -4,19.7 a 1.67,1.67 0 0 1 0.64,-1.27 2.37,2.37 0 0 1 0.85,-0.45 v 38.6 l -1.49,-2.71 V 137.9 Z m 0.87,39.4 v 10.3 l -1.31,1.17 v -13.92 z m 41.36,10 c -1.52,1.53 -3.11,3 -4.72,4.43 v -27.41 a 83.67,83.67 0 0 0 0,-98.66 V 61.9 l -1.33,-2.2 -1.29,2.2 v 0.41 a 83.89,83.89 0 0 0 -7.61,-8.18 v -1.92 l -1.75,-2.43 v 2.76 A 83.83,83.83 0 0 0 154.31,41.29 v -1.46 l -1.75,-2.56 v 3.1 a 83.31,83.31 0 0 0 -7.64,-3.4 V 33 l -1.3,-2.22 -1.32,2.22 v 3 a 83.33,83.33 0 0 0 -11.69,-3.12 v -14 l -0.89,-1.12 -0.87,1.12 v 13.7 c -0.9,-0.15 -1.8,-0.29 -2.7,-0.41 V 13.41 a 102.23,102.23 0 0 1 61,173.9 z M 187,107.26 v -1 h -1.15 v 1 h -1 v 1.15 h 1 v 2.2 l -3.44,5.26 V 96.09 l 7.94,11.35 v 8.28 l -3.35,-5.1 v -2.2 h 1 v -1.15 z m -0.57,4.57 3.92,6 v 2.79 a 3.14,3.14 0 0 0 -1.73,-0.53 2.84,2.84 0 0 0 -2.19,1 2.9,2.9 0 0 0 -2.22,-1 3.26,3.26 0 0 0 -1.79,0.54 V 118 Z m 2.81,20.43 a 2.8,2.8 0 0 0 -1.58,-2.51 h 2.68 v 5 h -2.65 a 2.8,2.8 0 0 0 1.57,-2.48 z m -2.79,2.21 a 2.21,2.21 0 1 1 2.2,-2.21 2.21,2.21 0 0 1 -2.18,2.22 z M 187,128 v -5.35 a 1.52,1.52 0 0 1 1.61,-1.4 1.94,1.94 0 0 1 1.24,0.45 1.28,1.28 0 0 1 0.49,0.88 V 128 Z m -4.09,-6.31 a 2,2 0 0 1 1.29,-0.45 1.55,1.55 0 0 1 1.65,1.41 V 128 h -3.44 v -5.43 a 1.26,1.26 0 0 1 0.53,-0.88 z m 2.32,8.06 a 2.79,2.79 0 0 0 0,5 h -2.79 v -5 z m 6.87,6.77 V 91.88 l -0.89,-1.41 -0.86,1.41 v 13.56 L 182.41,94.09 V 67.7 a 82.52,82.52 0 0 1 0,94.71 v -25.89 z m -4.53,-19.52 -1.11,-1.78 -1.12,1.78 1.11,1.78 z m -36.8,-88.81 1.07,0.48 0.47,-1 1,0.47 0.48,-1.07 -1,-0.47 0.47,-1 -1.07,-0.6 -0.47,1 -1,-0.47 -0.48,1.07 1,0.47 z m -0.21,3 -1.07,-0.48 -0.47,1 -1,-0.47 -0.48,1.07 1,0.47 -0.47,1 1.07,0.48 0.47,-1 1,0.47 0.48,-1.07 -1,-0.47 z m 43.36,28.64 h 0.07 v -1.85 l -1.78,-0.25 h -0.05 v 0.73 l -5.84,4.54 -0.29,-0.11 -0.14,-1.55 5.24,-4 c 0.43,-0.33 0.66,-0.11 0.66,-0.11 l 0.07,-0.06 v -2.11 l -1.88,-0.23 h -0.07 a 1.66,1.66 0 0 1 0.25,0.95 l -5.41,4.15 a 0.58,0.58 0 0 1 -0.57,0.1 l -0.07,0.06 0.32,2.62 A 29.88,29.88 0 0 1 188,64 l 5.25,-4 a 0.63,0.63 0 0 1 0.68,-0.17 z m -29.6,-21.11 -1,-0.65 -0.64,1 -0.95,-0.63 -0.65,1 0.95,0.64 -0.64,0.95 1,0.65 0.64,-0.95 0.95,0.64 0.65,-1 -0.95,-0.63 z M 127,74.07 l 1.11,1.78 1.11,-1.78 -1.11,-1.78 z m 34.36,-39 v -0.09 l -1.86,-2 3.77,-1.44 -0.19,-0.4 -0.58,0.26 A 14.39,14.39 0 0 1 161,29 27,27 0 0 1 156.68,28.32 l -1.3,2.52 a 0.65,0.65 0 0 1 -0.64,0.31 v 0.07 l 2,2.34 -4.91,1.94 0.23,0.29 0.94,-0.34 a 14.39,14.39 0 0 1 2,2.32 23.83,23.83 0 0 1 4.41,0.41 l 1.46,-2.82 a 0.58,0.58 0 0 1 0.5,-0.29 z M 157,37.48 h -0.34 a 20.24,20.24 0 0 0 -2.12,-2.54 l 3.25,-1.3 0.77,0.84 z m 1.28,-4.48 -0.78,-1 1.41,-2.72 h 0.2 a 20.69,20.69 0 0 0 1.81,2.72 z m 25.9,15.43 0.07,-0.07 -0.5,-2.34 -1.86,-0.12 -0.33,-2 a 9.53,9.53 0 0 1 -1.94,0 l -0.05,0.06 c 0.29,0.28 0.55,0.81 0.45,0.91 l -4.84,5.05 a 0.61,0.61 0 0 1 -0.62,0.19 l -0.05,0.06 0.23,1.84 h 1.79 l -0.12,-0.72 4.81,-5 0.83,0.07 0.25,1.08 -4.63,4.82 c -0.38,0.4 -0.64,0.21 -0.64,0.21 l -0.07,0.07 0.36,2.08 1.9,-0.05 0.06,-0.06 a 1.68,1.68 0 0 1 -0.39,-0.9 l 4.72,-4.92 a 0.58,0.58 0 0 1 0.57,-0.27 z m 3.22,4.44 a 0.58,0.58 0 0 1 0.55,-0.15 l 0.07,-0.06 -0.1,-2.12 A 7.41,7.41 0 0 1 186,50.4 l -0.06,0.05 c 0,0 0.66,0.69 0.26,1.07 l -5,4.47 c -0.41,0.37 -0.66,0.17 -0.66,0.17 l -0.07,0.07 0.2,2.1 1.9,0.08 h 0.06 a 1.61,1.61 0 0 1 -0.32,-0.93 z m -14.62,-5.23 c 0,0 4.06,-5.18 4.32,-5.5 a 0.62,0.62 0 0 1 0.59,-0.25 v -0.06 l -0.41,-1.8 -1.78,0.2 v 0.05 l 0.19,0.7 -4.29,5.47 h -0.85 l -0.35,-1 4.12,-5.26 c 0.34,-0.43 0.62,-0.28 0.62,-0.28 l 0.05,-0.07 -0.56,-2 -1.88,0.24 v 0.07 a 1.6,1.6 0 0 1 0.47,0.86 l -4.21,5.36 a 0.57,0.57 0 0 1 -0.52,0.24 l -0.07,0.07 0.74,2.28 1.87,-0.06 0.52,1.94 a 9.78,9.78 0 0 1 1.93,-0.19 v -0.07 c -0.28,-0.33 -0.6,-0.83 -0.51,-0.94 z m -76.64,165.54 2,-1.52 v -0.75 a 19.25,19.25 0 0 0 -2.3,1.06 4.84,4.84 0 0 0 0.3,1.21 z M 191.48,49.5 H 189 c 0,0 -0.36,0.46 -0.48,0.58 a 19.22,19.22 0 0 0 2.47,0.54 4.86,4.86 0 0 0 0.49,-1.12 z m -82.75,-24.2 -1.11,-1.78 -1.12,1.78 1.11,1.78 z M 105.19,41 104.08,39.22 103,41 l 1.11,1.78 z m -61.45,92.75 v -0.92 h 0.92 v -1.15 h -0.92 v -0.92 h -1.15 v 0.92 h -0.92 v 1.15 h 0.92 v 0.92 z M 119.41,41 118.3,39.22 117.19,41 118.3,42.78 Z M 116,22.09 l -1.11,-1.78 -1.11,1.78 1.11,1.78 z M 42.09,117 l 1.11,1.78 1.12,-1.78 -1.11,-1.78 z m 81,-91.61 -1.09,-1.8 -1.11,1.78 1.11,1.78 z m -74.78,25.32 0.06,0.06 2.36,-0.6 0.65,3.91 A 8.26,8.26 0 0 1 54,53.3 15.51,15.51 0 0 1 55.16,50 L 53,47.66 A 0.59,0.59 0 0 1 52.85,47.1 L 52.79,47 50.79,47.64 50.3,44.5 A 9.4,9.4 0 0 1 47.6,44.84 16.77,16.77 0 0 1 46.25,48 l 1.92,2.08 a 0.61,0.61 0 0 1 0.14,0.63 z m 3.54,-1.71 2.29,2.49 -0.07,0.26 a 13.58,13.58 0 0 0 -2.55,0.61 L 51,49.29 Z m -4.39,-2.59 a 15,15 0 0 0 2.71,-0.26 l 0.34,2.49 -1,0.18 -2.08,-2.25 z m 10.43,-5.62 a 5.79,5.79 0 0 0 -0.47,2.93 4.71,4.71 0 0 1 2.64,0 v -3 a 5.57,5.57 0 0 1 0.76,-2.83 l 0.53,-0.81 a 5.18,5.18 0 0 1 2.41,0.09 v -2.22 a 3.69,3.69 0 0 1 0.61,-2.43 H 65 c 2,0 3.4,-0.07 4.37,-0.84 a 8,8 0 0 0 -0.7,3.12 v 2.78 l -0.14,0.16 a 3.3,3.3 0 0 1 -1.92,0.78 H 64 a 7.35,7.35 0 0 1 0,2.42 5.37,5.37 0 0 0 2.26,-0.36 5.15,5.15 0 0 0 -0.4,2.42 5.63,5.63 0 0 1 2.72,0 v -2.88 a 5,5 0 0 1 0.35,-2.23 5.46,5.46 0 0 1 2.1,0 v -4.82 c 0,-0.89 -0.19,-3.33 0.5,-4.38 l 0.85,-1.29 -0.31,-0.21 -0.25,0.38 -0.82,1.29 -0.12,0.17 a 4.18,4.18 0 0 1 -3.2,1.06 h -1.75 c -0.86,0 -1.36,-0.4 -1.36,-0.69 h -0.49 v 2.71 c -0.14,0.1 -0.39,0.3 -0.69,0.55 a 3.4,3.4 0 0 1 -1.93,0.79 h -2.12 a 6.5,6.5 0 0 1 0,2.28 4.94,4.94 0 0 0 1.91,-0.24 4.2,4.2 0 0 0 -0.2,1.35 l -0.58,0.88 a 3.74,3.74 0 0 1 -2.22,1.09 h -3 a 7.34,7.34 0 0 1 0,2.41 6.65,6.65 0 0 0 2.64,-0.41 z m 21.24,-9.63 a 5,5 0 0 0 -0.51,2.54 5.6,5.6 0 0 1 2.72,0 v -2.81 a 5.27,5.27 0 0 1 0.33,-2.19 l 1,-1.53 a 5.8,5.8 0 0 0 2.64,-0.55 4.47,4.47 0 0 0 -0.51,2.4 5.17,5.17 0 0 1 2.49,0 v -2.6 a 3.93,3.93 0 0 1 0.36,-2.12 l 1.45,-2.19 h 2.85 l -1.47,1.73 a 4.33,4.33 0 0 0 -1,3.22 5.4,5.4 0 0 1 2.61,0 v -2.7 a 4.7,4.7 0 0 1 0.35,-2.17 4.71,4.71 0 0 1 3.46,2 L 96.22,24 94.74,21.6 a 5.12,5.12 0 0 0 -4.34,-2 h -7.33 a 2.48,2.48 0 0 1 0.25,2.16 3.56,3.56 0 0 1 -2.12,1 h -3 a 7.35,7.35 0 0 1 0,2.42 c 1.83,0 3.25,-0.3 4.42,-1.86 l 1,-1.32 h 5.05 l -1,1.55 a 3.76,3.76 0 0 1 -2.23,1.09 h -3 a 7.12,7.12 0 0 1 0,2.1 L 81.6,28 a 3.62,3.62 0 0 1 -2.17,1 h -2.57 a 7.28,7.28 0 0 1 0,2.41 5.36,5.36 0 0 0 2.27,-0.23 z m 11.06,88.67 h 1.15 v -0.92 h 0.92 v -1.15 h -0.92 v -0.92 h -1.15 v 0.92 h -0.92 v 1.15 h 0.92 z m 1.64,-39.33 -1.11,-1.78 -1.11,1.78 1.11,1.78 z m 7.06,46.26 H 100 v -0.92 h 1 v -1.15 h -1 v -0.92 h -1.1 v 0.92 H 98 v 1.15 h 0.92 z m 2.64,-54.49 -1.11,1.78 1.11,1.78 1.11,-1.78 z m 28.07,54.5 h 1.15 v -0.92 h 0.92 v -1.15 h -0.92 v -0.92 h -1.15 v 0.92 h -0.92 v 1.15 h 0.92 z m -88,-77.11 a 18.66,18.66 0 0 0 0.29,-2.51 4.65,4.65 0 0 0 -1.19,-0.38 l 0.3,2.49 a 7.14,7.14 0 0 1 0.64,0.43 z m 87.92,10.1 h 1.15 v -1.12 h 1.15 v -1.15 h -1.15 v -1.16 h -1.15 v 1.15 h -1.16 v 1.15 h 1.16 z M 126.69,41 l -1.11,-1.78 -1.11,1.78 1.11,1.78 z m -1.52,18.8 h 1.15 v -1.16 h 1.16 v -1.15 h -1.16 v -1.16 h -1.15 v 1.16 H 124 v 1.15 h 1.16 z m -34.43,61.37 a 2.79,2.79 0 1 0 -2.8,-2.8 2.8,2.8 0 0 0 2.8,2.8 z m 0,-5 a 2.21,2.21 0 1 1 -2.21,2.21 2.21,2.21 0 0 1 2.21,-2.21 z m -47,-60.4 -0.07,-0.06 -1.9,0.92 -0.95,-3 a 9.31,9.31 0 0 1 -2.62,0.74 16.75,16.75 0 0 1 -0.88,3.29 l 2.2,1.78 a 0.62,0.62 0 0 1 0.24,0.6 l 0.06,0.05 2.25,-0.94 1.21,3.77 a 8.49,8.49 0 0 1 2.51,-1.15 15.84,15.84 0 0 1 0.64,-3.44 l -2.47,-2 A 0.59,0.59 0 0 1 43.77,55.76 Z M 40.7,58 38.31,56.07 V 55.92 A 15.08,15.08 0 0 0 41,55.24 l 0.7,2.42 z m 5,2.24 a 13.76,13.76 0 0 0 -2.43,1 l -1,-3 0.81,-0.38 2.63,2.12 z M 94.09,206 h -2.92 a 1.34,1.34 0 0 1 -0.89,-0.36 3.12,3.12 0 0 0 0,-0.58 3.19,3.19 0 0 0 -0.44,-1.5 4.29,4.29 0 0 0 1.31,0.2 h 1.12 a 2.55,2.55 0 0 1 -0.3,-1.3 6.08,6.08 0 0 1 0.16,-1.3 h -3.67 a 2.22,2.22 0 0 1 -1.68,-1 l -0.1,-0.14 c -0.38,-0.57 -0.84,-1.23 -1,-1.57 h -4 a 3.64,3.64 0 0 0 1.64,-1.34 c 0.32,-0.45 0.69,-1 0.69,-1 l -1.85,-1 c 0,0 -1.07,1.67 -1.43,2.16 a 2.66,2.66 0 0 1 -2.2,1.24 h -0.36 a 4.6,4.6 0 0 1 -4,-1.9 l -0.34,0.2 1.56,2.38 1.85,2.81 a 6.87,6.87 0 0 1 0.66,3.28 v 2.41 a 9.88,9.88 0 0 1 2.54,0 v -1.35 a 3.78,3.78 0 0 0 -0.6,-1.8 3.76,3.76 0 0 0 1.51,0.31 h 1.28 a 4.89,4.89 0 0 1 -0.13,-1.21 5,5 0 0 1 0.13,-1.11 h -3.28 a 3,3 0 0 1 -2,-1.1 l -0.84,-1.27 a 7.31,7.31 0 0 0 3.68,0.66 h 6.51 a 8.06,8.06 0 0 1 0.68,3.56 v 1.47 a 8.27,8.27 0 0 1 2.65,0 v 0.05 a 3.58,3.58 0 0 1 0.26,1.65 v 2.5 a 4.47,4.47 0 0 1 2.17,0 3.9,3.9 0 0 0 -0.45,-2.33 3.1,3.1 0 0 0 1,0.17 h 1.12 a 1.86,1.86 0 0 1 -0.25,-1 2.88,2.88 0 0 1 0.21,-0.89 z M 31.14,84.33 c 0.43,0.72 0.1,0.94 -0.76,1.64 L 24.21,83.82 24,83.44 a 11.59,11.59 0 0 1 2.3,-0.59 v -0.09 a 6.84,6.84 0 0 1 -1,-1.62 H 25.21 L 22.89,81.9 23.65,83.58 22,84.5 a 9.51,9.51 0 0 1 0.8,1.76 h 0.08 c 0.13,-0.39 0.5,-0.84 0.64,-0.78 l 6.34,2.21 a 0.61,0.61 0 0 1 0.43,0.49 h 0.08 a 15,15 0 0 1 2.19,-1.88 l -1.1,-2.19 z m 19.35,-29.6 -0.06,-0.05 a 1.63,1.63 0 0 1 -0.89,0.41 l -5,-4.57 a 0.58,0.58 0 0 1 -0.2,-0.54 l -0.07,-0.07 -2.09,0.32 a 7.48,7.48 0 0 1 0.06,1.93 l 0.06,0.05 c 0,0 0.63,-0.73 1,-0.36 l 4.95,4.48 c 0.4,0.37 0.23,0.64 0.23,0.64 l 0.07,0.06 2.07,-0.41 z M 35.1,76.59 a 1.65,1.65 0 0 1 -0.71,0.68 l -6.77,-3 A 0.58,0.58 0 0 1 27.26,73.82 H 27.17 L 24.8,75.45 A 11.83,11.83 0 0 1 25.37,79 l 5.85,2.58 a 0.62,0.62 0 0 1 0.39,0.52 h 0.07 L 34,80.65 34.9,82.51 36.79,81 35.17,76.59 Z M 32,79.9 25.45,77.05 V 76.96 L 27,76 l 6.11,2.69 0.24,0.51 z m 2.32,0.79 -0.83,-1.81 2.24,1 z M 37.5,71 c 0.3,0.79 -0.36,1.08 -1.6,1.85 l -2,-1.15 A 23.25,23.25 0 0 1 33.08,67.75 H 29.56 A 17.38,17.38 0 0 1 29.3,71.2 l 5.85,3.3 a 0.6,0.6 0 0 1 0.33,0.55 h 0.07 a 18.72,18.72 0 0 1 3,-1.83 l -0.71,-2.37 z m -7.6,-1.54 3,-0.08 c 0,0 0.28,1.18 0.52,2 z m 11.17,-2.77 2,-0.76 L 42.61,64 h -0.07 a 1.65,1.65 0 0 1 -0.81,0.56 L 36,60.9 a 0.58,0.58 0 0 1 -0.29,-0.5 l -0.08,-0.05 -2.2,1 0.25,1.85 -1.87,0.72 a 9.72,9.72 0 0 1 0.38,1.9 h 0.07 c 0.22,-0.34 0.68,-0.7 0.8,-0.62 L 39,68.94 a 0.62,0.62 0 0 1 0.31,0.57 h 0.07 L 41.08,69 40.71,67.25 H 40.65 L 39.97,67.51 34.1,63.71 34,62.88 35,62.42 40.66,66 c 0.46,0.29 0.34,0.59 0.34,0.59 z m 29.54,32 1.11,1.78 1.11,-1.78 -1.11,-1.78 z M 81,100.47 82.11,98.69 81,96.91 79.89,98.69 Z m -27.18,0 1.11,-1.78 -1.13,-1.83 -1.11,1.78 z m -28,-8 A 23.28,23.28 0 0 1 24,88.82 h -0.09 l -3.32,0.91 a 16.77,16.77 0 0 1 0.63,3.4 l 6.49,1.7 a 0.62,0.62 0 0 1 0.46,0.45 h 0.08 a 18.77,18.77 0 0 1 2.48,-2.55 L 29.4,90.62 29.09,90.83 C 29.58,91.52 29,92 28,93 Z m -4.41,-1.16 2.84,-0.83 c 0,0 0.57,1.07 1,1.84 z m 42.59,7.33 -1.11,-1.78 -1.09,1.78 1.11,1.78 z m -41,13 a 23.06,23.06 0 0 1 -2.66,-3 h -0.09 l -3,1.72 a 16.93,16.93 0 0 1 1.47,3.13 h 6.71 a 0.62,0.62 0 0 1 0.57,0.32 h 0.08 a 18.52,18.52 0 0 1 1.74,-3.09 l -1.73,-1.72 -0.24,0.28 c 0.65,0.54 0.22,1.12 -0.48,2.39 z m -4.56,0 2.56,-1.5 c 0,0 0.82,0.89 1.46,1.52 z m 10.6,27.58 -6.22,2.06 a 0.59,0.59 0 0 1 -0.57,-0.09 h -0.09 l -0.66,2.25 2,1.17 -3.18,1.05 -0.84,1.72 a 9.36,9.36 0 0 1 1.72,0.9 h 0.07 c -0.13,-0.39 -0.11,-1 0,-1 l 9.52,-3.16 c 0.52,-0.17 0.66,0.1 0.66,0.1 h 0.09 l 0.66,-2 -1.71,-0.84 h -0.07 a 1.69,1.69 0 0 1 -0.08,1 l -6.54,2.17 -0.74,-0.43 0.31,-1.09 6.75,-2.24 a 7.44,7.44 0 0 1 2.32,-0.58 v -0.17 c 0,0 -2.03,-1.23 -3.37,-0.79 z M 15.9,106.92 H 16 c 0,0 0.09,-1 0.64,-0.89 l 9.52,1.14 c 0.54,0.07 0.56,0.38 0.56,0.38 h 0.09 L 28.23,106 27,104.56 a 1.65,1.65 0 0 1 -0.49,0.85 l -9.65,-1.15 a 0.59,0.59 0 0 1 -0.48,-0.32 h -0.09 l -1.53,1.47 a 7.36,7.36 0 0 1 1.14,1.51 z m 9.61,29 a 23.32,23.32 0 0 1 -3.4,-2.17 h -0.09 l -2.38,2.49 a 16.91,16.91 0 0 1 2.29,2.6 l 6.44,-1.88 a 0.63,0.63 0 0 1 0.63,0.15 h 0.08 a 18.86,18.86 0 0 1 0.81,-3.46 l -2.19,-1.15 -0.15,0.34 c 0.77,0.33 0.52,1 0.21,2.43 z m -4.37,1.28 2,-2.18 c 0,0 1,0.62 1.82,1.06 z m -4.57,-35.8 c 0.08,-0.4 0.38,-0.9 0.52,-0.87 l 9.28,1.78 a 0.61,0.61 0 0 1 0.5,0.42 h 0.08 l 2,-2.1 -1.42,-3.4 L 21.27,96 a 0.6,0.6 0 0 1 -0.46,-0.35 h -0.09 l -1.93,2 0.92,1.49 -2.71,-0.47 -1.57,1.09 a 9.59,9.59 0 0 1 1.06,1.62 z m 4.43,-3.57 7,1.31 v 0.05 l -1.21,1.33 -6.7,-1.26 L 19.92,99 Z m 4.79,27.11 1.27,1.3 A 6,6 0 0 0 28.34,125 l -1.27,-1.3 a 5.59,5.59 0 0 0 -1.29,1.24 z m -7.53,6.21 1.65,1 H 20 a 1.64,1.64 0 0 1 0.21,-1 l 3.08,-2.34 6.2,2.06 a 17.44,17.44 0 0 1 -0.89,-2 c -3.35,-1 -9.47,-3.12 -10.12,-3.48 H 18.4 l -0.88,1.63 1.47,1 H 19 c -0.06,-0.33 0.32,-0.65 0.32,-0.65 l 2.3,0.74 -2.86,2 z M 31,148.77 a 10.72,10.72 0 0 0 0.19,2.84 c -1,-0.9 -2.07,-1 -3.73,-1 a 7.92,7.92 0 0 1 0,2.68 h 2.36 a 6,6 0 0 1 3.18,1.13 l 0.6,0.91 a 3.86,3.86 0 0 0 -2.21,-0.4 6.52,6.52 0 0 1 0,2.24 h 2.08 a 3.13,3.13 0 0 1 1.75,0.67 v 2.08 a 9.78,9.78 0 0 0 1.88,5.35 l 0.27,0.4 c -1,-0.71 -1.84,-0.62 -3.72,-0.59 l -0.23,-0.3 -3.17,-4.78 a 4.08,4.08 0 0 1 -0.34,-2 v -2.41 a 5.06,5.06 0 0 1 -2.48,0 3.41,3.41 0 0 0 0.63,2.43 6,6 0 0 0 -2.25,-0.29 6.47,6.47 0 0 1 0,2.24 h 2.54 a 2.73,2.73 0 0 1 2.08,1 l 0.91,1.38 c -0.9,-0.72 -1.81,-0.83 -3.38,-0.83 a 7.84,7.84 0 0 1 0,2.75 h 2.84 a 3.81,3.81 0 0 1 2.24,0.92 3.64,3.64 0 0 1 0.18,2.28 l 2.08,0.07 a 6.54,6.54 0 0 1 5,2.69 l 0.32,0.48 a 7.5,7.5 0 0 0 0.32,1.71 c -1.77,-2.11 -2.63,-2 -6.42,-2 a 6.72,6.72 0 0 1 0.07,2.32 h 3.24 a 5.84,5.84 0 0 1 4.47,2.49 l 0.23,0.35 c 0.81,1.21 1.48,2.13 1.48,2.13 l 0.33,-0.21 c 0,0 -0.54,-0.76 -0.79,-1.17 -0.54,-0.85 -0.58,-3.36 -0.58,-4.68 v -8.69 a 7.61,7.61 0 0 1 -2.39,-0.09 v 7 l -1.74,-2.63 -0.71,-1.13 c -0.54,-0.85 -0.56,-3.46 -0.56,-4.79 v -0.85 c 0,-0.58 0.05,-2.64 0.84,-2.64 v -0.44 h -3 l -0.09,-0.11 -1.55,-2.33 a 7,7 0 0 1 -0.38,-2.32 v -3.84 A 4.87,4.87 0 0 1 31,148.77 Z m -11.75,-27.15 6.51,-0.51 a 0.63,0.63 0 0 1 0.59,0.27 h 0.08 l 1.42,-2.56 -2.26,-2.91 -7.05,0.55 a 0.59,0.59 0 0 1 -0.53,-0.22 h -0.09 c -1.1,2 -2.11,3.61 -3.41,5.63 a 7.14,7.14 0 0 1 1.56,1.26 h 0.08 c 0,-0.49 1.8,-3.36 1.8,-3.36 z m -0.38,-3.37 7.59,-0.6 -0.83,1.6 -7.23,0.57 -0.3,-0.39 z"
       fill="#5a0f09"
       id="path830"
       style="display:inline"
       inkscape:label="Siegel" />
  </g>
</svg>
