<svg width="235" height="96" viewBox="0 0 235 96" xmlns="http://www.w3.org/2000/svg"><g fill="none"><path d="M70.398 4.472c0 .45-.057.843-.17 1.18a2.82 2.82 0 01-.459.872c-.193.244-.418.44-.675.59-.256.15-.522.263-.797.338v.037c.338.063.653.181.947.356a2.978 2.978 0 011.294 1.584c.132.356.197.746.197 1.171 0 .513-.087.981-.262 1.406a2.867 2.867 0 01-.816 1.106c-.369.312-.835.556-1.397.73-.563.175-1.231.263-2.007.263H63.61V1.173h2.494c.763 0 1.416.078 1.96.234.544.157.99.378 1.34.666.35.287.604.634.76 1.04.156.406.235.86.235 1.359zm-1.65.056c0-.6-.213-1.093-.638-1.48-.425-.388-1.094-.582-2.007-.582h-.862v4.46h.844c.875 0 1.537-.212 1.987-.636.45-.425.675-1.012.675-1.762zm.243 5.96c0-.7-.228-1.253-.684-1.659-.457-.406-1.11-.609-1.96-.609h-1.106v4.535h1.012c.963 0 1.66-.19 2.091-.571.432-.381.647-.947.647-1.696zm10.051 3.617h-1.388v-1.012h-.037a1.837 1.837 0 01-.244.328 2.445 2.445 0 01-.478.412 3.211 3.211 0 01-.703.347c-.275.1-.581.15-.919.15-.4 0-.76-.06-1.078-.178a1.962 1.962 0 01-.816-.572c-.225-.262-.397-.603-.516-1.021-.118-.419-.178-.934-.178-1.546V5.109h1.52V10.9c0 .75.121 1.284.365 1.603.244.318.622.477 1.134.477.438 0 .807-.109 1.107-.328.3-.218.537-.434.712-.646V5.109h1.52v8.996zm7.238 0V8.314c0-.762-.128-1.309-.384-1.64-.256-.331-.647-.497-1.172-.497-.45 0-.825.113-1.125.338-.3.224-.538.443-.713.656v6.934h-1.519V5.109h1.388v1.012h.037a2.349 2.349 0 01.731-.74c.2-.132.438-.247.713-.347.275-.1.588-.15.938-.15.4 0 .762.06 1.087.178.326.119.6.31.826.572.225.262.4.603.525 1.021.125.419.187.934.187 1.546v5.904H86.28zm3.376-4.367c0-.912.118-1.674.356-2.286.237-.612.544-1.106.919-1.48a3.19 3.19 0 011.275-.797c.475-.157.95-.235 1.425-.235.287 0 .537.022.75.066.213.044.387.097.525.16V.854l1.519-.169v13.419h-1.388v-.956H95a2.154 2.154 0 01-.619.703 2.485 2.485 0 01-.656.337c-.263.094-.57.14-.92.14-.424 0-.827-.083-1.209-.252a2.61 2.61 0 01-1.003-.806c-.287-.369-.515-.844-.684-1.425-.169-.58-.253-1.283-.253-2.108zm3.562 3.242a1.966 1.966 0 001.472-.618c.094-.1.166-.187.216-.262V6.552a2.268 2.268 0 00-.478-.225 2.128 2.128 0 00-.685-.094c-.35 0-.678.06-.984.178a1.919 1.919 0 00-.797.59c-.225.276-.403.632-.534 1.07-.132.436-.197.974-.197 1.61 0 .626.053 1.147.16 1.566.105.418.252.756.44 1.012.187.256.4.44.637.553.238.112.488.168.75.168zm11.308-4.835c0 .387-.013.722-.038 1.003-.025.28-.05.528-.075.74H99.82c.05 1.062.278 1.843.684 2.343.407.5.991.75 1.754.75.262 0 .5-.032.712-.094a2.688 2.688 0 001.182-.694l.562 1.069c-.062.062-.156.153-.281.271a2.524 2.524 0 01-.506.356 3.635 3.635 0 01-.788.31 4.135 4.135 0 01-1.106.13 3.987 3.987 0 01-1.529-.28 2.89 2.89 0 01-1.162-.872c-.319-.393-.566-.893-.74-1.5-.176-.605-.263-1.333-.263-2.183 0-.8.09-1.49.272-2.07.18-.582.428-1.06.74-1.434a2.958 2.958 0 011.088-.834 3.275 3.275 0 011.331-.272c.863 0 1.538.272 2.025.815.488.544.732 1.36.732 2.446zm-2.85-2.024c-.538 0-.97.225-1.294.675-.326.45-.513 1.1-.563 1.949h3.282c.012-.063.021-.153.028-.272.006-.119.009-.247.009-.384 0-.625-.125-1.109-.375-1.453-.25-.343-.613-.515-1.088-.515zm8.756.806a3.823 3.823 0 00-.543-.46c-.263-.193-.607-.29-1.032-.29-.4 0-.706.094-.919.281a.87.87 0 00-.318.675c0 .337.097.615.29.834.194.219.49.453.891.703l.563.337c.612.363 1.093.753 1.443 1.171.35.42.526.96.526 1.622 0 .712-.247 1.312-.741 1.799-.494.487-1.203.73-2.129.73-.362 0-.68-.037-.956-.112a4.175 4.175 0 01-.722-.262 2.38 2.38 0 01-.515-.328 3.42 3.42 0 01-.338-.328l.731-1.2c.075.076.166.163.272.263a2.46 2.46 0 00.89.525 2.1 2.1 0 00.657.093c.45 0 .794-.1 1.032-.3a.922.922 0 00.356-.73c0-.213-.028-.397-.084-.553a1.266 1.266 0 00-.254-.422 2.358 2.358 0 00-.412-.356c-.163-.112-.35-.237-.563-.375l-.562-.356c-.563-.362-1.004-.743-1.322-1.143-.319-.4-.478-.912-.478-1.537 0-.337.065-.647.197-.928.13-.28.315-.524.553-.73.237-.207.515-.37.834-.488.319-.119.66-.178 1.022-.178.35 0 .65.034.9.103a2.694 2.694 0 011.097.581c.119.106.216.197.29.272l-.656 1.087zm2.157 4.891c0-.524.1-.962.3-1.311.2-.35.469-.635.806-.853a3.443 3.443 0 011.191-.469c.456-.094.94-.14 1.453-.14h.469v-.862c0-.763-.134-1.287-.403-1.575-.269-.287-.647-.43-1.135-.43-.45 0-.825.096-1.125.29-.3.193-.537.365-.712.515l-.638-1.012c.1-.1.228-.212.385-.337a3.22 3.22 0 01.571-.356 3.872 3.872 0 011.744-.394c.926 0 1.625.256 2.1.768.476.513.713 1.337.713 2.474v4.105c0 .387.013.765.038 1.133.025.37.05.616.075.74h-1.444l-.056-.992h-.038c-.05.112-.125.24-.225.384a1.85 1.85 0 01-.375.393c-.15.119-.331.222-.544.31a1.964 1.964 0 01-.75.13c-.337 0-.653-.062-.947-.187a2.334 2.334 0 01-1.275-1.321 2.747 2.747 0 01-.178-1.003zm2.719 1.219c.212 0 .4-.032.562-.094.163-.063.304-.138.422-.225.12-.087.22-.184.3-.29.082-.107.153-.197.216-.272v-1.987l-.488.019c-.725.025-1.275.15-1.65.375s-.562.587-.562 1.087c0 .462.106.809.319 1.04.212.231.506.347.88.347zm10.013 1.068V8.314c0-.737-.106-1.268-.319-1.593-.212-.325-.556-.488-1.03-.488a2.166 2.166 0 00-1.182.328 2.21 2.21 0 00-.394.31 5.479 5.479 0 00-.281.3v6.934h-1.52V5.109h1.388v1.012h.038c.063-.1.156-.222.281-.365a2.57 2.57 0 01.469-.413 2.56 2.56 0 011.5-.458c1.025 0 1.75.399 2.175 1.199.088-.125.207-.26.357-.403.15-.144.325-.275.525-.394s.425-.215.675-.29c.25-.075.525-.113.825-.113 1.825 0 2.738 1.062 2.738 3.186v6.035h-1.52V8.314c0-.737-.13-1.268-.393-1.593-.263-.325-.65-.488-1.163-.488-.425 0-.778.104-1.06.31a4.062 4.062 0 00-.665.59c.025.138.044.284.056.44.013.157.02.322.02.497v6.035h-1.52zm12.358-7.76h-1.97v4.986c0 .637.082 1.072.244 1.303.163.23.438.346.826.346a1.6 1.6 0 00.58-.093 2.03 2.03 0 00.357-.169l.206 1.218c-.062.05-.212.128-.45.235-.237.106-.556.159-.956.159-.775 0-1.356-.216-1.744-.647-.387-.43-.581-1.146-.581-2.146V6.346h-1.088V5.334l1.088-.225.169-2.511h1.35v2.511h2.156l-.187 1.237zm-70.6 18.9H65.24v7.759h-1.52v-7.76h-1.087v-1.011l1.088-.206v-1.8c0-.487.069-.905.206-1.255a2.49 2.49 0 01.544-.862 1.99 1.99 0 01.788-.488 3 3 0 01.956-.15c.325 0 .6.044.825.132.225.087.375.156.45.206l-.319 1.255a1.87 1.87 0 00-.319-.159 1.341 1.341 0 00-.506-.084c-.362 0-.637.112-.825.337-.187.225-.281.637-.281 1.237v1.612h2.025l-.188 1.237zm7.8 7.759h-1.387v-1.012h-.038a1.837 1.837 0 01-.244.328 2.445 2.445 0 01-.478.412 3.211 3.211 0 01-.703.347c-.275.1-.581.15-.919.15-.4 0-.76-.06-1.078-.178a1.962 1.962 0 01-.816-.572c-.225-.262-.397-.603-.515-1.022-.12-.418-.179-.933-.179-1.546v-5.903h1.52v5.791c0 .75.121 1.284.365 1.602.244.319.622.478 1.134.478.438 0 .807-.109 1.107-.328.3-.218.537-.434.712-.646v-6.897h1.52v8.996zm-3.731-11.582c0 .287-.088.518-.263.693a.868.868 0 01-.637.262.868.868 0 01-.638-.262c-.175-.175-.263-.406-.263-.693 0-.288.088-.519.263-.694a.868.868 0 01.638-.262c.25 0 .462.087.637.262.175.175.263.406.263.694zm2.887 0c0 .287-.087.518-.262.693a.868.868 0 01-.638.262.868.868 0 01-.637-.262c-.175-.175-.263-.406-.263-.693 0-.288.088-.519.263-.694a.868.868 0 01.637-.262c.25 0 .463.087.638.262.175.175.262.406.262.694zm7.126 3.917a1.084 1.084 0 00-.244-.094 1.825 1.825 0 00-.506-.056c-.475 0-.847.128-1.116.384-.269.256-.46.534-.572.834v6.597h-1.519v-8.996h1.388v1.218h.038a2.9 2.9 0 01.243-.515c.1-.17.225-.319.375-.45s.328-.234.535-.31c.206-.074.453-.112.74-.112.213 0 .385.019.516.056.131.038.235.07.31.094l-.188 1.35zm4.632 3.298c0-.912.118-1.674.356-2.286.237-.613.544-1.106.919-1.481s.8-.64 1.275-.797c.475-.156.95-.234 1.425-.234.288 0 .538.022.75.066.213.044.388.097.525.16v-4.311l1.519-.17v13.42h-1.388v-.956h-.037a2.154 2.154 0 01-.619.703 2.485 2.485 0 01-.656.337c-.263.094-.57.14-.919.14-.425 0-.828-.084-1.21-.252a2.61 2.61 0 01-1.003-.806c-.287-.369-.515-.844-.684-1.425-.169-.58-.253-1.283-.253-2.108zm3.563 3.242a1.966 1.966 0 001.472-.618c.093-.1.165-.188.215-.263v-5.547a2.268 2.268 0 00-.478-.225 2.128 2.128 0 00-.684-.094c-.35 0-.679.06-.985.178a1.919 1.919 0 00-.797.59c-.225.276-.403.632-.534 1.069-.131.437-.197.975-.197 1.612 0 .625.053 1.146.16 1.565.105.418.252.756.44 1.012.187.256.4.44.637.553.238.112.488.168.75.168zm7.05 1.125h-1.519v-8.996h1.52v8.996zm-.75-11.17c-.312 0-.562-.1-.75-.3-.188-.2-.281-.462-.281-.787 0-.312.093-.569.281-.769.188-.2.438-.3.75-.3.3 0 .544.1.731.3.188.2.282.457.282.769 0 .325-.094.587-.282.787-.187.2-.43.3-.73.3zm8.85 5.21c0 .387-.012.721-.037 1.003-.025.28-.05.527-.075.74H99.8c.05 1.062.278 1.843.685 2.343.406.5.99.75 1.753.75.262 0 .5-.032.712-.094a2.688 2.688 0 001.182-.694l.562 1.068c-.062.063-.156.153-.28.272a2.524 2.524 0 01-.507.356 3.635 3.635 0 01-.788.31 4.135 4.135 0 01-1.106.13 3.987 3.987 0 01-1.528-.28 2.89 2.89 0 01-1.163-.872c-.319-.394-.566-.893-.74-1.5-.176-.605-.263-1.333-.263-2.183 0-.8.09-1.49.272-2.07.181-.582.428-1.06.74-1.434a2.958 2.958 0 011.088-.834 3.275 3.275 0 011.331-.272c.863 0 1.538.272 2.026.815.487.544.73 1.359.73 2.446zm-2.85-2.024c-.537 0-.968.225-1.293.675-.325.45-.513 1.099-.563 1.949h3.282c.012-.063.022-.153.028-.272.006-.119.01-.247.01-.384 0-.625-.126-1.11-.376-1.453-.25-.343-.612-.515-1.087-.515zm14.064-2.961a3.175 3.175 0 00-.253-.216 2.442 2.442 0 00-.45-.272 3.286 3.286 0 00-1.453-.319c-.563 0-.988.15-1.275.45-.288.3-.431.65-.431 1.05 0 .25.034.481.103.694.068.212.175.421.319.627.143.207.321.413.534.619.212.206.469.428.769.665l1.05.862c.3.25.584.506.853.769.269.262.5.54.694.834.194.293.347.612.46.955.112.344.168.728.168 1.153 0 .987-.306 1.784-.919 2.39-.612.606-1.506.909-2.681.909a5.18 5.18 0 01-1.228-.132 4.869 4.869 0 01-.929-.318 3.864 3.864 0 01-1.05-.712l.656-1.425c.075.075.188.175.338.3.15.125.331.25.544.375.212.125.453.231.722.319.268.087.572.13.91.13.637 0 1.127-.159 1.471-.477.344-.319.516-.697.516-1.134a2.56 2.56 0 00-.103-.75 2.638 2.638 0 00-.3-.646 3.606 3.606 0 00-.497-.61 9.48 9.48 0 00-.713-.636l-1.05-.881c-.362-.3-.681-.584-.956-.853a5.126 5.126 0 01-.703-.844 3.5 3.5 0 01-.441-.955 4.27 4.27 0 01-.15-1.19c0-.413.078-.8.234-1.162.157-.363.378-.675.666-.937a3.132 3.132 0 011.04-.619 3.96 3.96 0 011.379-.225 4.672 4.672 0 011.96.403c.23.106.415.216.553.328.137.113.243.194.318.244l-.675 1.237zm4.426 10.945h-1.52v-8.996h1.52v8.996zm-.75-11.17c-.313 0-.563-.1-.75-.3-.188-.2-.282-.462-.282-.787 0-.312.094-.569.282-.769.187-.2.437-.3.75-.3.3 0 .544.1.731.3.188.2.281.457.281.769 0 .325-.093.587-.28.787-.188.2-.432.3-.732.3zm8.082 3.917a6.927 6.927 0 00-.178-.169 1.897 1.897 0 00-.31-.225 2.159 2.159 0 00-.45-.197 1.961 1.961 0 00-.6-.084c-.325 0-.628.06-.91.178a1.84 1.84 0 00-.73.572c-.207.262-.37.603-.488 1.021-.119.419-.178.928-.178 1.528 0 .662.053 1.218.16 1.668.105.45.252.809.44 1.077.187.269.415.463.684.581.269.119.566.178.89.178.463 0 .817-.081 1.06-.243a3.62 3.62 0 00.516-.394l.619 1.05a2.76 2.76 0 01-.272.271c-.119.107-.272.21-.46.31-.187.1-.415.184-.684.253a3.768 3.768 0 01-.928.103c-.5 0-.969-.082-1.407-.244a2.78 2.78 0 01-1.143-.806c-.326-.375-.582-.862-.77-1.462-.187-.6-.28-1.343-.28-2.23 0-.862.112-1.593.337-2.193.225-.6.519-1.084.881-1.452a3.369 3.369 0 011.21-.806c.444-.169.89-.253 1.34-.253.338 0 .635.031.891.094.257.062.475.14.657.234.18.094.33.194.45.3.118.106.215.197.29.272l-.637 1.068zm7.144 7.253v-5.791c0-.762-.128-1.31-.384-1.64-.257-.331-.647-.497-1.172-.497-.45 0-.825.113-1.125.337-.3.225-.538.444-.713.656v6.935h-1.519v-13.25l1.52-.17v5.342h.037c.05-.075.128-.175.234-.3.106-.125.253-.25.44-.374a2.878 2.878 0 011.631-.469c.789 0 1.414.256 1.876.768.463.513.694 1.362.694 2.55v5.903h-1.519zm9.563-5.96c0 .387-.012.721-.037 1.003-.025.28-.05.527-.075.74h-4.594c.05 1.062.278 1.843.684 2.343.407.5.991.75 1.754.75.262 0 .5-.032.712-.094a2.688 2.688 0 001.181-.694l.563 1.068c-.063.063-.156.153-.281.272a2.524 2.524 0 01-.507.356 3.635 3.635 0 01-.787.31 4.135 4.135 0 01-1.106.13 3.987 3.987 0 01-1.529-.28 2.89 2.89 0 01-1.162-.872c-.32-.394-.566-.893-.741-1.5-.175-.605-.263-1.333-.263-2.183 0-.8.091-1.49.272-2.07.182-.582.429-1.06.741-1.434a2.958 2.958 0 011.088-.834 3.275 3.275 0 011.331-.272c.863 0 1.538.272 2.025.815.488.544.731 1.359.731 2.446zm-2.85-2.024c-.537 0-.969.225-1.294.675-.325.45-.512 1.099-.562 1.949h3.281a2.05 2.05 0 00.029-.272c.006-.119.009-.247.009-.384 0-.625-.125-1.11-.375-1.453-.25-.343-.613-.515-1.088-.515zm8.832.319a1.084 1.084 0 00-.243-.094 1.825 1.825 0 00-.507-.056c-.475 0-.847.128-1.115.384-.27.256-.46.534-.572.834v6.597h-1.52v-8.996h1.388v1.218h.038c.062-.175.144-.347.244-.515.1-.17.225-.319.375-.45s.328-.234.534-.31c.206-.074.453-.112.74-.112.213 0 .385.019.516.056.132.038.235.07.31.094l-.188 1.35zm6.413 7.665v-5.791c0-.762-.128-1.31-.384-1.64-.256-.331-.647-.497-1.172-.497-.45 0-.825.113-1.125.337-.3.225-.538.444-.713.656v6.935h-1.519v-13.25l1.52-.17v5.342h.037c.05-.075.128-.175.234-.3.106-.125.253-.25.44-.374.188-.125.417-.235.685-.329.27-.093.585-.14.947-.14.788 0 1.413.256 1.875.768.463.513.694 1.362.694 2.55v5.903h-1.519zm9.564-5.96c0 .387-.013.721-.038 1.003-.025.28-.05.527-.075.74h-4.594c.05 1.062.278 1.843.685 2.343.406.5.99.75 1.753.75.262 0 .5-.032.712-.094a2.688 2.688 0 001.182-.694l.562 1.068a13.87 13.87 0 01-.281.272 2.524 2.524 0 01-.506.356 3.635 3.635 0 01-.788.31 4.135 4.135 0 01-1.106.13 3.987 3.987 0 01-1.528-.28 2.89 2.89 0 01-1.163-.872c-.319-.394-.566-.893-.74-1.5-.176-.605-.263-1.333-.263-2.183 0-.8.09-1.49.272-2.07.18-.582.428-1.06.74-1.434a2.958 2.958 0 011.088-.834 3.275 3.275 0 011.331-.272c.863 0 1.538.272 2.025.815.488.544.732 1.359.732 2.446zm-2.85-2.024c-.538 0-.97.225-1.294.675-.325.45-.513 1.099-.563 1.949h3.282c.012-.063.022-.153.028-.272.006-.119.01-.247.01-.384 0-.625-.126-1.11-.376-1.453-.25-.343-.612-.515-1.088-.515zm6.394 7.984h-1.52v-8.996h1.52v8.996zm-.75-11.17c-.313 0-.563-.1-.75-.3-.188-.2-.282-.462-.282-.787 0-.312.094-.569.282-.769.187-.2.437-.3.75-.3.3 0 .544.1.731.3.188.2.281.457.281.769 0 .325-.093.587-.28.787-.188.2-.432.3-.732.3zm6.92 3.41h-1.97v4.986c0 .637.082 1.071.244 1.302.162.232.438.347.825.347.225 0 .419-.03.581-.093a1.95 1.95 0 00.357-.17l.206 1.22a2.71 2.71 0 01-.45.233c-.238.107-.556.16-.956.16-.776 0-1.357-.216-1.744-.647-.388-.43-.582-1.146-.582-2.146v-5.191h-1.087v-1.012l1.087-.225.17-2.511h1.35v2.51h2.156l-.188 1.238zM62.877 47.537c0-.912.119-1.674.356-2.287.238-.612.544-1.105.92-1.48.374-.375.8-.64 1.274-.797.475-.156.95-.234 1.425-.234.288 0 .538.022.75.066.213.043.388.096.526.159v-4.31l1.518-.17v13.42H68.26v-.956h-.038a2.154 2.154 0 01-.618.703 2.485 2.485 0 01-.657.337c-.262.094-.569.14-.919.14-.425 0-.828-.084-1.209-.253a2.61 2.61 0 01-1.003-.805c-.288-.369-.516-.844-.685-1.425-.168-.58-.253-1.284-.253-2.108zm3.563 3.242a1.966 1.966 0 001.472-.618c.094-.1.166-.188.216-.263V44.35a2.268 2.268 0 00-.479-.225 2.128 2.128 0 00-.684-.094c-.35 0-.678.06-.984.178a1.919 1.919 0 00-.797.59c-.225.275-.404.632-.535 1.069-.131.437-.197.974-.197 1.612 0 .624.053 1.146.16 1.564.106.42.253.756.44 1.013.188.256.4.44.638.552.237.113.487.17.75.17zm11.307-4.835c0 .387-.012.721-.037 1.002-.025.282-.05.528-.075.74h-4.594c.05 1.063.278 1.844.684 2.343.406.5.99.75 1.753.75.263 0 .5-.031.713-.094a2.688 2.688 0 001.181-.693l.563 1.068c-.063.063-.157.153-.282.272a2.524 2.524 0 01-.506.356 3.635 3.635 0 01-.787.31 4.135 4.135 0 01-1.107.13 3.987 3.987 0 01-1.528-.28 2.89 2.89 0 01-1.163-.872c-.318-.394-.565-.893-.74-1.5-.175-.605-.263-1.333-.263-2.183 0-.8.09-1.49.272-2.07.181-.582.428-1.06.74-1.434a2.958 2.958 0 011.088-.834 3.275 3.275 0 011.332-.272c.862 0 1.537.272 2.025.815.487.544.731 1.359.731 2.446zm-2.85-2.024c-.538 0-.969.225-1.294.674-.325.45-.513 1.1-.562 1.95h3.281a1.92 1.92 0 00.028-.272c.006-.119.01-.247.01-.384 0-.625-.125-1.11-.375-1.453-.25-.343-.613-.515-1.088-.515zm8.832.318a1.084 1.084 0 00-.244-.093 1.825 1.825 0 00-.506-.057c-.475 0-.847.129-1.116.385-.269.256-.46.534-.572.834v6.597h-1.519v-8.996h1.388v1.218h.038c.062-.175.143-.347.243-.516.1-.168.225-.318.375-.45.15-.13.328-.234.535-.308.206-.075.453-.113.74-.113.213 0 .385.019.516.056.131.038.235.069.31.094l-.188 1.35zm9.957 7.666v-5.791c0-.763-.128-1.31-.384-1.64-.257-.331-.647-.497-1.172-.497-.45 0-.825.112-1.125.337-.3.225-.538.444-.713.656v6.935h-1.519v-8.996h1.388v1.012h.037a2.349 2.349 0 01.731-.74c.2-.132.438-.247.713-.347.275-.1.588-.15.938-.15.4 0 .762.06 1.087.178.325.119.6.31.825.572.225.262.4.602.526 1.02.124.42.187.935.187 1.547v5.904h-1.519zm10.089 0h-1.388V50.89h-.038a1.837 1.837 0 01-.243.327 2.445 2.445 0 01-.478.413 3.211 3.211 0 01-.704.347c-.275.1-.581.15-.919.15-.4 0-.759-.06-1.078-.178a1.962 1.962 0 01-.815-.572c-.225-.263-.397-.603-.516-1.022-.119-.418-.178-.934-.178-1.546v-5.903h1.519v5.79c0 .75.122 1.285.365 1.603.244.319.622.478 1.135.478.437 0 .806-.11 1.106-.328.3-.219.538-.434.713-.646v-6.897h1.519v8.996zm5.719-4.873l3.094 4.873h-1.82l-2.53-4.198h-.62v4.198H106.1v-13.25l1.519-.17v7.928h.637l2.42-3.504h1.8l-2.982 4.123zm5.944 2.774c0 .374.053.637.16.787.106.15.29.225.553.225.137 0 .253-.013.347-.038.093-.025.165-.05.215-.075l.132 1.125a3.202 3.202 0 01-.413.15c-.2.062-.469.093-.806.093-.513 0-.925-.156-1.238-.468-.312-.313-.469-.869-.469-1.668V38.652l1.52-.168v11.32zm8.55-3.861c0 .387-.012.721-.037 1.002-.025.282-.05.528-.075.74h-4.594c.05 1.063.278 1.844.685 2.343.406.5.99.75 1.753.75.262 0 .5-.031.713-.094a2.688 2.688 0 001.18-.693l.563 1.068c-.062.063-.156.153-.28.272a2.524 2.524 0 01-.507.356 3.635 3.635 0 01-.788.31 4.135 4.135 0 01-1.106.13 3.987 3.987 0 01-1.528-.28 2.89 2.89 0 01-1.163-.872c-.319-.394-.566-.893-.74-1.5-.176-.605-.263-1.333-.263-2.183 0-.8.09-1.49.272-2.07.181-.582.428-1.06.74-1.434a2.958 2.958 0 011.088-.834 3.275 3.275 0 011.331-.272c.863 0 1.538.272 2.026.815.487.544.73 1.359.73 2.446zm-2.85-2.024c-.537 0-.968.225-1.293.674-.325.45-.513 1.1-.563 1.95h3.282c.012-.063.022-.153.028-.272.006-.119.01-.247.01-.384 0-.625-.126-1.11-.376-1.453-.25-.343-.612-.515-1.087-.515zm4.351 5.697c0-.525.1-.962.3-1.312.2-.35.469-.634.806-.853a3.443 3.443 0 011.191-.468c.456-.094.94-.14 1.453-.14h.47v-.863c0-.762-.135-1.287-.404-1.574-.269-.287-.647-.431-1.134-.431-.45 0-.826.097-1.126.29-.3.194-.537.366-.712.516l-.638-1.012c.1-.1.228-.213.385-.337a3.22 3.22 0 01.572-.357 3.872 3.872 0 011.744-.394c.925 0 1.625.257 2.1.77.475.512.712 1.336.712 2.473v4.104c0 .388.013.766.038 1.134.025.369.05.616.075.74h-1.444l-.056-.993h-.038a2.39 2.39 0 01-.225.384c-.1.144-.225.275-.375.394s-.331.222-.544.31a1.964 1.964 0 01-.75.13c-.337 0-.653-.062-.947-.187a2.334 2.334 0 01-1.275-1.321 2.747 2.747 0 01-.178-1.003zm2.719 1.218c.213 0 .4-.03.563-.093.162-.063.303-.138.422-.225.118-.088.218-.185.3-.29.08-.107.153-.198.215-.272v-1.987l-.487.019c-.725.025-1.275.15-1.65.374-.376.225-.563.588-.563 1.087 0 .463.106.81.319 1.04.212.232.506.347.881.347zm9.245-6.597a1.084 1.084 0 00-.244-.093 1.825 1.825 0 00-.506-.057c-.476 0-.847.129-1.116.385-.269.256-.46.534-.572.834v6.597h-1.519v-8.996h1.388v1.218h.037c.063-.175.144-.347.244-.516.1-.168.225-.318.375-.45.15-.13.328-.234.534-.308.207-.075.453-.113.741-.113.213 0 .385.019.516.056.131.038.234.069.31.094l-.188 1.35zm7.05 1.706c0 .387-.012.721-.037 1.002-.025.282-.05.528-.075.74h-4.594c.05 1.063.278 1.844.684 2.343.406.5.99.75 1.753.75.263 0 .5-.031.713-.094a2.688 2.688 0 001.181-.693l.563 1.068c-.063.063-.157.153-.281.272a2.524 2.524 0 01-.507.356 3.635 3.635 0 01-.787.31 4.135 4.135 0 01-1.107.13 3.987 3.987 0 01-1.528-.28 2.89 2.89 0 01-1.162-.872c-.32-.394-.566-.893-.741-1.5-.175-.605-.263-1.333-.263-2.183 0-.8.09-1.49.272-2.07.181-.582.428-1.06.74-1.434a2.958 2.958 0 011.088-.834 3.275 3.275 0 011.332-.272c.862 0 1.537.272 2.025.815.487.544.731 1.359.731 2.446zm-2.85-2.024c-.537 0-.969.225-1.294.674-.325.45-.512 1.1-.562 1.95h3.281a1.92 1.92 0 00.028-.272c.006-.119.01-.247.01-.384 0-.625-.125-1.11-.375-1.453-.25-.343-.613-.515-1.088-.515zm9.788 7.984v-5.791c0-.763-.128-1.31-.384-1.64-.256-.331-.647-.497-1.172-.497-.45 0-.825.112-1.125.337-.3.225-.538.444-.713.656v6.935h-1.519v-8.996h1.388v1.012h.038c.037-.075.118-.184.243-.328.125-.144.288-.281.488-.413.2-.13.437-.246.712-.346.275-.1.588-.15.938-.15.4 0 .763.06 1.088.178.325.119.6.31.825.572.225.262.4.602.525 1.02.125.42.187.935.187 1.547v5.904h-1.519zm14.327-11.639h-4.613v4.46h4.238v1.294h-4.238v4.535h5.081l-.093 1.35h-6.62V38.97h6.357l-.112 1.293zm7.238 11.639v-5.791c0-.763-.128-1.31-.384-1.64-.257-.331-.647-.497-1.173-.497-.45 0-.825.112-1.125.337-.3.225-.537.444-.712.656v6.935h-1.52v-8.996h1.389v1.012h.037a2.349 2.349 0 01.731-.74c.2-.132.438-.247.713-.347.275-.1.588-.15.938-.15.4 0 .762.06 1.087.178.325.119.6.31.825.572.225.262.4.602.525 1.02.125.42.188.935.188 1.547v5.904h-1.52zm7.632-7.76h-1.97v4.986c0 .637.082 1.071.245 1.302.162.232.437.347.825.347.225 0 .419-.031.581-.094a1.92 1.92 0 00.356-.168l.207 1.218c-.063.05-.213.128-.45.234-.238.106-.557.16-.957.16-.775 0-1.356-.216-1.744-.647-.387-.431-.581-1.146-.581-2.146v-5.191h-1.088v-1.012l1.088-.225.169-2.512h1.35v2.512h2.156l-.187 1.237zm5.607.582a3.824 3.824 0 00-.544-.46c-.263-.193-.607-.29-1.032-.29-.4 0-.706.094-.918.281a.87.87 0 00-.32.675c0 .337.098.615.292.834.193.218.49.453.89.703l.563.337c.612.362 1.094.753 1.444 1.171.35.419.525.96.525 1.621 0 .713-.247 1.312-.741 1.8-.494.487-1.203.73-2.128.73-.363 0-.682-.037-.957-.112a4.175 4.175 0 01-.722-.262 2.38 2.38 0 01-.515-.328 3.42 3.42 0 01-.338-.328l.731-1.2c.075.075.166.163.272.263a2.46 2.46 0 00.891.524c.188.063.406.094.656.094.45 0 .794-.1 1.032-.3a.922.922 0 00.356-.73c0-.213-.028-.397-.084-.554a1.266 1.266 0 00-.254-.421 2.358 2.358 0 00-.412-.356c-.163-.113-.35-.238-.563-.375l-.562-.356c-.563-.363-1.003-.744-1.322-1.143-.319-.4-.478-.912-.478-1.537a2.143 2.143 0 01.75-1.658c.237-.207.515-.37.834-.488.32-.119.66-.178 1.022-.178.35 0 .65.034.9.103a2.694 2.694 0 011.097.58c.119.107.216.198.29.273l-.655 1.087zm2.269 2.68c0-.825.096-1.537.29-2.137.194-.6.456-1.09.788-1.471a3.097 3.097 0 011.144-.843c.431-.182.89-.272 1.378-.272.5 0 .962.09 1.387.272.425.18.794.462 1.107.843.312.381.56.871.74 1.471.182.6.272 1.312.272 2.137 0 .837-.093 1.555-.28 2.155-.188.6-.448 1.09-.779 1.471s-.716.66-1.153.834c-.438.175-.9.263-1.388.263-.5 0-.963-.088-1.388-.263a2.797 2.797 0 01-1.106-.834c-.312-.38-.56-.868-.74-1.462-.182-.593-.272-1.315-.272-2.164zm5.531 0c0-1.2-.175-2.071-.525-2.615-.35-.543-.837-.815-1.462-.815-.626 0-1.11.272-1.454.815-.343.544-.515 1.415-.515 2.615 0 1.2.175 2.061.525 2.586.35.525.837.787 1.462.787s1.11-.262 1.454-.787c.343-.525.515-1.387.515-2.586zm7.445-3.168a1.084 1.084 0 00-.244-.093 1.825 1.825 0 00-.506-.057c-.475 0-.847.129-1.116.385-.269.256-.46.534-.572.834v6.597h-1.519v-8.996h1.388v1.218h.037c.063-.175.144-.347.244-.516.1-.168.225-.318.375-.45.15-.13.328-.234.534-.308.207-.075.454-.113.741-.113.213 0 .385.019.516.056.131.038.234.069.31.094l-.188 1.35zm7.8-.15h-1.125a3.05 3.05 0 01.432 1.612c0 .475-.079.903-.235 1.284a2.7 2.7 0 01-.656.965 2.862 2.862 0 01-.994.6c-.381.137-.79.206-1.228.206h-.244a1.74 1.74 0 01-.244-.019 1.83 1.83 0 00-.469.3.677.677 0 00-.243.544c0 .187.072.34.215.459.144.119.378.178.704.178h1.143c.425 0 .82.044 1.182.131.362.087.678.228.947.422.268.193.478.44.628.74.15.3.225.662.225 1.087 0 .487-.103.93-.31 1.33-.206.4-.496.744-.871 1.031a4.246 4.246 0 01-1.37.675 6.213 6.213 0 01-1.8.244c-.962 0-1.693-.21-2.193-.628-.5-.419-.75-1.021-.75-1.809 0-.337.059-.627.178-.871.118-.244.26-.456.422-.637a2.38 2.38 0 01.497-.431c.168-.107.303-.19.403-.253v-.038c-.388-.287-.582-.706-.582-1.255 0-.238.047-.444.141-.619.094-.175.2-.319.319-.431.118-.112.237-.203.356-.272.119-.068.21-.115.272-.14v-.038a2.537 2.537 0 01-1.116-1.003c-.281-.455-.422-1.04-.422-1.752 0-.5.082-.94.244-1.321a2.67 2.67 0 01.656-.946c.275-.25.597-.438.966-.563a3.688 3.688 0 011.19-.187c.426 0 .826.075 1.2.225h2.739l-.207 1.18zm-4.181 7.534a3.8 3.8 0 01-.694-.056 2.193 2.193 0 00-.328.225 1.587 1.587 0 00-.29.319 1.7 1.7 0 00-.216.44 1.867 1.867 0 00-.085.59c0 .963.531 1.444 1.594 1.444.913 0 1.588-.178 2.025-.534.438-.356.657-.766.657-1.228 0-.437-.138-.747-.413-.928-.275-.18-.644-.272-1.106-.272h-1.144zm2.006-5.922c0-.65-.153-1.112-.46-1.387a1.563 1.563 0 00-1.077-.412c-.438 0-.813.138-1.126.412-.312.275-.468.738-.468 1.387 0 .65.156 1.112.468 1.387.313.275.676.412 1.088.412.438 0 .81-.137 1.116-.412.306-.275.46-.737.46-1.387zm10.201 6.204h-1.387V50.89h-.038a1.837 1.837 0 01-.244.327 2.445 2.445 0 01-.478.413 3.211 3.211 0 01-.703.347c-.275.1-.581.15-.919.15-.4 0-.76-.06-1.078-.178a1.962 1.962 0 01-.816-.572c-.225-.263-.397-.603-.515-1.022-.12-.418-.179-.934-.179-1.546v-5.903h1.52v5.79c0 .75.121 1.285.365 1.603.244.319.622.478 1.134.478.438 0 .807-.11 1.107-.328.3-.219.537-.434.712-.646v-6.897h1.52v8.996zm7.238 0v-5.791c0-.763-.128-1.31-.384-1.64-.256-.331-.647-.497-1.172-.497-.45 0-.825.112-1.125.337-.3.225-.538.444-.713.656v6.935h-1.519v-8.996h1.388v1.012h.037a2.349 2.349 0 01.731-.74c.2-.132.438-.247.713-.347.275-.1.588-.15.938-.15.4 0 .762.06 1.088.178.325.119.6.31.825.572.225.262.4.602.525 1.02.125.42.187.935.187 1.547v5.904h-1.519zm10.239-7.816h-1.125a3.05 3.05 0 01.43 1.612c0 .475-.077.903-.233 1.284a2.7 2.7 0 01-.657.965 2.862 2.862 0 01-.994.6c-.38.137-.79.206-1.228.206h-.244a1.74 1.74 0 01-.243-.019c-.15.063-.307.163-.47.3a.677.677 0 00-.243.544c0 .187.072.34.216.459.143.119.378.178.703.178h1.144c.425 0 .818.044 1.181.131.363.087.678.228.947.422.269.193.478.44.628.74.15.3.225.662.225 1.087 0 .487-.103.93-.31 1.33-.205.4-.496.744-.871 1.031a4.246 4.246 0 01-1.369.675 6.213 6.213 0 01-1.8.244c-.963 0-1.694-.21-2.194-.628-.5-.419-.75-1.021-.75-1.809 0-.337.06-.627.178-.871.119-.244.26-.456.422-.637a2.38 2.38 0 01.497-.431c.168-.107.303-.19.403-.253v-.038c-.388-.287-.581-.706-.581-1.255a1.3 1.3 0 01.14-.619c.094-.175.2-.319.32-.431.118-.112.237-.203.355-.272.12-.068.21-.115.272-.14v-.038a2.537 2.537 0 01-1.115-1.003c-.282-.455-.422-1.04-.422-1.752 0-.5.08-.94.243-1.321.163-.381.382-.697.657-.946.275-.25.597-.438.965-.563a3.688 3.688 0 011.191-.187 3.2 3.2 0 011.2.225H235l-.206 1.18zm-4.182 7.534a3.8 3.8 0 01-.694-.056 2.193 2.193 0 00-.328.225 1.587 1.587 0 00-.29.319 1.7 1.7 0 00-.216.44 1.867 1.867 0 00-.085.59c0 .963.532 1.444 1.594 1.444.913 0 1.588-.178 2.026-.534.437-.356.656-.766.656-1.228 0-.437-.138-.747-.413-.928-.275-.18-.644-.272-1.106-.272h-1.144zm2.007-5.922c0-.65-.154-1.112-.46-1.387a1.563 1.563 0 00-1.078-.412c-.438 0-.813.138-1.125.412-.313.275-.469.738-.469 1.387 0 .65.156 1.112.469 1.387.312.275.675.412 1.087.412.438 0 .81-.137 1.116-.412.306-.275.46-.737.46-1.387zm-210.4-32.636c.043-.353.068-.717.068-1.088 0-.204.002-.44-.023-.708 3.14-.044 5.894-2.305 5.894-4.905 0-1.323-.863-2.322-1.35-2.919.109-.023.22-.049.331-.075.46.4 1.765 1.82 1.765 3.614 0 3.12-3.12 6.016-6.685 6.08M19.054 2.2a2.14 2.14 0 00-.392-.934c.01-.318.142-.622.654-.372-.278.283-.063.786-.063.786s.567-.263.449-.638c.841.202.236 1.33-.648 1.158m-.73 1.601a3.287 3.287 0 00-.655-1.305c-.277-.328-.736-.717-1.353-.717-.283 0-.755.132-1.056.26-.112-.205-.331-.698-.331-.92 0-.228.386-.46 1.125-.46 1.626 0 2.597.734 2.597 1.966 0 .433-.172.827-.326 1.176M22.5 24.747c.19 0 .281.03.391.07.468 1.273 2.273 3.675 2.348 3.777l.016.022.027-.006c.443-.071 1.572-.241 2.518-.241h.022c.102 0 .219 0 .293.072.061.062.091.169.091.322 0 .234-.099.636-.219.807-.33-.36-.868-.522-1.728-.522-.259 0-.564.077-.73.12l-.068.015-.077.02.497.497c.765.765 1.427 1.425 1.427 1.864 0 .265-.258.61-.495.763-.052-.805-.865-1.882-1.657-2.486l-.068-.05-.013.283c-.01.193-.028.48-.028.79 0 1.532-.156 1.765-.687 1.765a.97.97 0 01-.284-.052c.3-.37.418-.858.418-1.715l-.005-.395-.005-.319c0-.35.037-.61.065-.82l.016-.118-.084-.011a8.606 8.606 0 00-1.063-.098c-.758 0-1.272.07-1.644.419-.246-.198-.498-.54-.498-.756 0-.32.199-.345.46-.345.133 0 .255.02.426.04.326.048.816.12 1.826.12h.063l-.02-.06c-.256-.733-.959-1.798-2.085-3.166.1-.367.2-.606.554-.606m-9.728 3.771l-.02.062h.062c1.009 0 1.5-.073 1.827-.121.17-.02.293-.04.425-.04.26 0 .46.025.46.345 0 .216-.252.558-.496.756-.374-.35-.887-.419-1.644-.419-.354 0-.818.063-1.065.098l-.04.004-.044.007.015.118c.03.21.066.47.066.82l-.005.319-.005.395c0 .857.119 1.345.42 1.715a.99.99 0 01-.286.052c-.532 0-.687-.233-.687-1.766 0-.308-.015-.596-.027-.789l-.015-.285-.066.052c-.791.604-1.608 1.68-1.657 2.486-.238-.153-.496-.498-.496-.763 0-.44.662-1.099 1.428-1.864l.44-.44.056-.057-.145-.034c-.165-.044-.471-.121-.731-.121-.859 0-1.395.162-1.727.522-.12-.171-.22-.573-.22-.807 0-.153.03-.26.092-.322.074-.072.19-.072.293-.072h.022c.946 0 2.077.17 2.518.24l.027.007.016-.022c.077-.102 1.88-2.504 2.35-3.777.107-.04.2-.07.389-.07.354 0 .454.239.556.606-1.128 1.368-1.831 2.433-2.086 3.165M7.899 6.983C7.9 5.19 9.206 3.77 9.666 3.37c.11.026.22.052.33.075-.488.597-1.351 1.596-1.351 2.919 0 2.627 2.808 4.907 5.988 4.907-.02.225-.032.461-.032.706 0 .387.022.748.06 1.088-3.596-.022-6.762-2.939-6.762-6.08m24.12 5.532c1.613 2.55 2.875 2.507 4.782 2.507-1.578-1.208-2.62-2.756-3.119-3.547l-2.947-4.712a6.969 6.969 0 00-2.168-3.828c.38-.144.695-.295.884-.438-1.924 0-3.83-.977-4.88-.977-.674 0-1.108.404-1.108.936.043.594.654 1.197 1.784 1.197.255 0 .583-.033.942-.093.612.852 1.105 1.622 1.105 2.721 0 2.063-2.468 3.671-4.959 3.671-.142 0-.276-.006-.416-.015-.225-.512-.977-1.37-.977-2.347 0-1.64 1.07-2.978 1.07-4.602 0-1.01-.492-1.635-.68-1.894.305-.284.639-.632.718-.871-.178.077-.39.086-.697.086C20.16.31 19.185 0 18.236 0c-.542 0-.687.167-.687.326a.35.35 0 00.024.146 3.197 3.197 0 00-.616-.171 4.815 4.815 0 00-.903-.08c-1.153 0-1.563.483-1.563.897 0 .35.276.99.59 1.477.448-.226.989-.38 1.235-.38.613 0 1.156.584 1.445 1.273-.412.05-.49.068-.907.068-1.123 0-1.887-.401-2.045-.401-.014 0-.044.007-.044.033 0 .157.318.573.945.801.828.303 2.066.429 2.273.463 0 .036-.21.427-.445.503a.255.255 0 01-.146.004c-.864-.17-1.105-.242-2.2-.658-.033-.013-.054.008-.054.043 0 .433 1.122 1.389 2.128 1.756-.84 1.07-1.888 2.167-2.383 3.838a6.12 6.12 0 01-.416.015c-2.491 0-4.959-1.608-4.959-3.67 0-1.1.493-1.87 1.105-2.722.36.06.685.093.942.093 1.13 0 1.741-.603 1.785-1.197 0-.532-.433-.936-1.109-.936-1.05 0-2.954.977-4.882.977.191.143.506.294.884.438a6.976 6.976 0 00-2.166 3.828L3.12 11.476c-.496.79-1.543 2.34-3.12 3.547 1.907 0 3.17.043 4.784-2.507L6.295 10.1c.112.313.25.619.411.918l-3.005 4.805c-.499.797-1.536 2.33-3.12 3.547 1.907 0 3.17.044 4.785-2.504l2.585-4.14c.194.207.397.409.612.6l-3.65 5.84c-.5.8-1.531 2.33-3.118 3.544 1.906 0 3.17.046 4.782-2.504l3.558-5.693c.235.148.475.291.724.427l-4.345 6.946c-.5.799-1.531 2.325-3.118 3.544 1.906 0 3.17.044 4.784-2.504l4.472-7.155c.265.1.532.199.805.285L8.404 24.14c-.494.788-1.548 2.342-3.117 3.544 1.905 0 3.17.044 4.782-2.504l5.386-8.615c.055.01.109.017.162.028.147.466.25.901.25 1.334 0 2.707-1.778 5.098-3.912 6.944.137.06.375.08.594.08.442 0 .725-.023.925-.058-.494 1.123-1.556 2.573-2.092 3.323a15.582 15.582 0 00-2.38-.224c-.696 0-.775.407-.775.77 0 .632.296 1.134.64 1.415.13-.323.39-.755 1.675-.755.025 0 .07.004.13.008-.376.418-1.553 1.369-1.553 2.134 0 .507.556 1.268 1.289 1.268-.043-.164-.038-.313-.038-.427 0-.62.55-1.346 1.015-1.853-.014.15-.006.135-.006.311 0 1.467.132 2.14 1.063 2.14.457 0 .772-.25.881-.325-.605-.556-.636-.994-.636-1.816l.006-.712a3.992 3.992 0 00-.032-.617c.333-.046.468-.046.725-.046 0 0 1.322-.106 1.642.583.36-.33.881-.794.881-1.306 0-.339-.16-.721-.843-.721-.258 0-1.07.157-1.75.157.184-.404.995-1.592 1.7-2.453.107.333.272.694.64.99.053-.554.377-2.307 1.244-3.332.101.693.237 1.403.237 2.9 0 3.645-.877 6.337-2.738 6.85.243.42.755.8 1.286.8.681 0 1.051-.77 1.43-1.496.196.535.74 1.849 1.285 1.849.546 0 1.09-1.314 1.288-1.85.376.727.748 1.497 1.429 1.497.531 0 1.043-.38 1.286-.8-1.861-.513-2.739-3.205-2.739-6.85 0-1.497.136-2.207.236-2.9.869 1.025 1.195 2.778 1.244 3.332.37-.296.537-.657.643-.99.702.861 1.516 2.049 1.698 2.453-.679 0-1.492-.157-1.749-.157-.68 0-.841.382-.841.721 0 .512.521.977.88 1.306.317-.689 1.643-.583 1.643-.583.255 0 .39 0 .724.046-.031.18-.033.428-.031.617l.005.712c0 .822-.032 1.26-.637 1.816.109.075.424.326.88.326.932 0 1.066-.674 1.066-2.14 0-.177.005-.161-.008-.312.465.507 1.015 1.233 1.015 1.853 0 .114.006.263-.04.427.735 0 1.293-.76 1.293-1.268 0-.765-1.177-1.716-1.556-2.134a2.2 2.2 0 01.13-.008c1.287 0 1.547.432 1.676.755.344-.28.64-.783.64-1.414 0-.364-.079-.77-.775-.77a15.6 15.6 0 00-2.38.223c-.537-.75-1.596-2.2-2.092-3.323.2.035.485.058.925.058.22 0 .457-.02.594-.08-2.134-1.846-3.911-4.237-3.911-6.944 0-.433.102-.868.249-1.334l.162-.028 5.386 8.615c1.612 2.548 2.877 2.504 4.782 2.504-1.569-1.202-2.623-2.756-3.116-3.544l-5.055-8.084c.274-.086.543-.184.808-.285l4.47 7.155c1.614 2.548 2.878 2.504 4.784 2.504-1.586-1.219-2.617-2.745-3.118-3.544l-4.343-6.946c.246-.136.487-.28.72-.427l3.56 5.693c1.614 2.55 2.876 2.504 4.782 2.504-1.586-1.214-2.615-2.745-3.118-3.543l-3.65-5.84c.215-.192.42-.394.61-.6l2.59 4.139c1.611 2.548 2.875 2.504 4.782 2.504-1.585-1.216-2.62-2.75-3.12-3.547l-3.004-4.805c.161-.3.298-.605.412-.918l1.51 2.416zm19.866 20.487H46.37V1.506h5.515z" fill="#000"/><path fill="red" d="M51.885 64.502H46.37V33.004h5.515z"/><path fill="#FC0" d="M51.885 96H46.37V64.502h5.515z"/></g></svg>